<svg width="57" height="70" viewBox="0 0 57 70" fill="none" xmlns="http://www.w3.org/2000/svg">
<mask id="path-1-outside-1_1520_1112" maskUnits="userSpaceOnUse" x="0" y="0" width="57" height="70" fill="black">
<rect fill="white" width="57" height="70"/>
<path d="M29.666 69C22.1993 69 16.066 67.6333 11.266 64.9C6.53268 62.1 3.23268 57.9333 1.36602 52.4L19.966 44.7C20.0327 47.0333 20.4327 48.8667 21.166 50.2C21.8993 51.5333 22.8993 52.4667 24.166 53C25.4993 53.4667 26.8994 53.7 28.366 53.7C29.8327 53.7 31.0994 53.4667 32.166 53C33.2993 52.4667 34.166 51.7 34.766 50.7C35.366 49.7 35.666 48.5333 35.666 47.2C35.666 45.6667 35.3327 44.4667 34.666 43.6C34.066 42.7333 33.2327 42.1333 32.166 41.8C31.0994 41.4 29.866 41.2 28.466 41.2C27.5327 41.2 26.6994 41.2333 25.966 41.3C25.2994 41.3667 24.4994 41.4667 23.566 41.6V29.2C24.0993 29.2667 24.6327 29.3333 25.166 29.4C25.6994 29.4 26.366 29.4 27.166 29.4C29.6327 29.4 31.4327 28.8667 32.566 27.8C33.6994 26.7333 34.266 25 34.266 22.6C34.266 20.6 33.6994 19.0667 32.566 18C31.4994 16.8667 29.9994 16.3 28.066 16.3C25.9994 16.3 24.2327 16.9333 22.766 18.2C21.366 19.4 20.566 21.6333 20.366 24.9L2.66602 19.2C3.19935 15.2 4.69935 11.8667 7.16602 9.2C9.69935 6.53333 12.866 4.5 16.666 3.1C20.5327 1.7 24.7993 0.999998 29.466 0.999998C34.7327 0.999998 39.166 1.73333 42.766 3.2C46.4327 4.66666 49.1994 6.76666 51.066 9.5C52.9994 12.2333 53.966 15.5667 53.966 19.5C53.966 22.5 53.466 24.9667 52.466 26.9C51.5327 28.8333 50.3327 30.3667 48.866 31.5C47.3994 32.6333 45.9994 33.4667 44.666 34C43.3327 34.4667 42.2994 34.7 41.566 34.7V35.1C42.366 35.1 43.4994 35.2667 44.966 35.6C46.4994 35.9333 48.0327 36.5667 49.566 37.5C51.166 38.4333 52.4993 39.8333 53.566 41.7C54.6994 43.5 55.266 45.9 55.266 48.9C55.266 53.0333 54.1327 56.6333 51.866 59.7C49.5994 62.7 46.5327 65 42.666 66.6C38.7994 68.2 34.466 69 29.666 69Z"/>
</mask>
<path d="M11.266 64.9L10.7569 65.7607L10.764 65.7649L10.7712 65.769L11.266 64.9ZM1.36602 52.4L0.983518 51.476L0.119601 51.8337L0.41848 52.7197L1.36602 52.4ZM19.966 44.7L20.9656 44.6714L20.9242 43.221L19.5835 43.776L19.966 44.7ZM21.166 50.2L22.0422 49.7181L22.0422 49.7181L21.166 50.2ZM24.166 53L23.778 53.9216L23.8065 53.9336L23.8357 53.9439L24.166 53ZM32.166 53L32.5668 53.9162L32.5794 53.9107L32.5918 53.9048L32.166 53ZM34.666 43.6L33.8438 44.1692L33.8581 44.1898L33.8734 44.2097L34.666 43.6ZM32.166 41.8L31.8149 42.7363L31.8411 42.7461L31.8677 42.7545L32.166 41.8ZM25.966 41.3L25.8755 40.3041L25.8665 40.305L25.966 41.3ZM23.566 41.6H22.566V42.753L23.7074 42.5899L23.566 41.6ZM23.566 29.2L23.6901 28.2077L22.566 28.0672V29.2H23.566ZM25.166 29.4L25.042 30.3923L25.1038 30.4H25.166V29.4ZM32.566 27.8L33.2514 28.5282L33.2514 28.5282L32.566 27.8ZM32.566 18L31.8378 18.6854L31.8586 18.7074L31.8807 18.7282L32.566 18ZM22.766 18.2L23.4168 18.9593L23.4196 18.9568L22.766 18.2ZM20.366 24.9L20.0595 25.8519L21.2854 26.2467L21.3641 24.9611L20.366 24.9ZM2.66602 19.2L1.67479 19.0678L1.56439 19.8958L2.35948 20.1519L2.66602 19.2ZM7.16602 9.2L6.44095 8.51119L6.43192 8.52096L7.16602 9.2ZM16.666 3.1L16.3256 2.15971L16.3203 2.16165L16.666 3.1ZM42.766 3.2L42.3887 4.12611L42.3946 4.12848L42.766 3.2ZM51.066 9.5L50.2402 10.064L50.2449 10.0707L50.2496 10.0775L51.066 9.5ZM52.466 26.9L51.5778 26.4406L51.5715 26.4528L51.5655 26.4652L52.466 26.9ZM48.866 31.5L48.2546 30.7087L48.2546 30.7087L48.866 31.5ZM44.666 34L44.9964 34.9439L45.0171 34.9366L45.0374 34.9285L44.666 34ZM41.566 34.7V33.7H40.566V34.7H41.566ZM41.566 35.1H40.566V36.1H41.566V35.1ZM44.966 35.6L44.7444 36.5752L44.7536 36.5772L44.966 35.6ZM49.566 37.5L49.0461 38.3542L49.0541 38.3591L49.0621 38.3638L49.566 37.5ZM53.566 41.7L52.6978 42.1961L52.7084 42.2147L52.7198 42.2328L53.566 41.7ZM51.866 59.7L52.6639 60.3029L52.6702 60.2944L51.866 59.7ZM42.666 66.6L43.0484 67.524L43.0484 67.524L42.666 66.6ZM29.666 69V68C22.3142 68 16.3662 66.6535 11.7609 64.031L11.266 64.9L10.7712 65.769C15.7658 68.6132 22.0845 70 29.666 70V69ZM11.266 64.9L11.7752 64.0393C7.26149 61.3693 4.10877 57.4019 2.31355 52.0803L1.36602 52.4L0.41848 52.7197C2.3566 58.4648 5.80388 62.8307 10.7569 65.7607L11.266 64.9ZM1.36602 52.4L1.74851 53.324L20.3485 45.624L19.966 44.7L19.5835 43.776L0.983518 51.476L1.36602 52.4ZM19.966 44.7L18.9664 44.7286C19.0354 47.1436 19.4498 49.1547 20.2898 50.6819L21.166 50.2L22.0422 49.7181C21.4155 48.5786 21.0299 46.9231 20.9656 44.6714L19.966 44.7ZM21.166 50.2L20.2898 50.6819C21.1193 52.1902 22.2813 53.2914 23.778 53.9216L24.166 53L24.5541 52.0784C23.5174 51.6419 22.6794 50.8765 22.0422 49.7181L21.166 50.2ZM24.166 53L23.8357 53.9439C25.2792 54.4491 26.7912 54.7 28.366 54.7V53.7V52.7C27.0075 52.7 25.7195 52.4842 24.4964 52.0561L24.166 53ZM28.366 53.7V54.7C29.936 54.7 31.3455 54.4505 32.5668 53.9162L32.166 53L31.7652 52.0838C30.8532 52.4828 29.7293 52.7 28.366 52.7V53.7ZM32.166 53L32.5918 53.9048C33.8906 53.2936 34.9138 52.3973 35.6235 51.2145L34.766 50.7L33.9085 50.1855C33.4182 51.0027 32.7081 51.6397 31.7402 52.0952L32.166 53ZM34.766 50.7L35.6235 51.2145C36.3295 50.0378 36.666 48.6881 36.666 47.2H35.666H34.666C34.666 48.3786 34.4025 49.3622 33.9085 50.1855L34.766 50.7ZM35.666 47.2H36.666C36.666 45.5329 36.3045 44.0899 35.4586 42.9903L34.666 43.6L33.8734 44.2097C34.3608 44.8434 34.666 45.8004 34.666 47.2H35.666ZM34.666 43.6L35.4882 43.0308C34.7534 41.9694 33.7299 41.241 32.4643 40.8455L32.166 41.8L31.8677 42.7545C32.7354 43.0256 33.3786 43.4972 33.8438 44.1692L34.666 43.6ZM32.166 41.8L32.5171 40.8637C31.3158 40.4132 29.9594 40.2 28.466 40.2V41.2V42.2C29.7726 42.2 30.8829 42.3868 31.8149 42.7363L32.166 41.8ZM28.466 41.2V40.2C27.51 40.2 26.6456 40.2341 25.8755 40.3041L25.966 41.3L26.0566 42.2959C26.7531 42.2326 27.5553 42.2 28.466 42.2V41.2ZM25.966 41.3L25.8665 40.305C25.1815 40.3735 24.3667 40.4755 23.4246 40.6101L23.566 41.6L23.7074 42.5899C24.632 42.4579 25.4172 42.3599 26.0655 42.295L25.966 41.3ZM23.566 41.6H24.566V29.2H23.566H22.566V41.6H23.566ZM23.566 29.2L23.442 30.1923C23.9753 30.2589 24.5086 30.3256 25.042 30.3923L25.166 29.4L25.2901 28.4077C24.7567 28.3411 24.2234 28.2744 23.6901 28.2077L23.566 29.2ZM25.166 29.4V30.4C25.1671 30.4 25.1681 30.4 25.1691 30.4C25.1702 30.4 25.1712 30.4 25.1723 30.4C25.1733 30.4 25.1744 30.4 25.1754 30.4C25.1765 30.4 25.1775 30.4 25.1785 30.4C25.1796 30.4 25.1806 30.4 25.1817 30.4C25.1827 30.4 25.1838 30.4 25.1848 30.4C25.1859 30.4 25.1869 30.4 25.188 30.4C25.189 30.4 25.1901 30.4 25.1911 30.4C25.1922 30.4 25.1932 30.4 25.1943 30.4C25.1953 30.4 25.1964 30.4 25.1974 30.4C25.1985 30.4 25.1995 30.4 25.2006 30.4C25.2016 30.4 25.2027 30.4 25.2037 30.4C25.2048 30.4 25.2058 30.4 25.2069 30.4C25.208 30.4 25.209 30.4 25.2101 30.4C25.2111 30.4 25.2122 30.4 25.2132 30.4C25.2143 30.4 25.2154 30.4 25.2164 30.4C25.2175 30.4 25.2185 30.4 25.2196 30.4C25.2206 30.4 25.2217 30.4 25.2228 30.4C25.2238 30.4 25.2249 30.4 25.2259 30.4C25.227 30.4 25.2281 30.4 25.2291 30.4C25.2302 30.4 25.2313 30.4 25.2323 30.4C25.2334 30.4 25.2344 30.4 25.2355 30.4C25.2366 30.4 25.2376 30.4 25.2387 30.4C25.2398 30.4 25.2408 30.4 25.2419 30.4C25.243 30.4 25.244 30.4 25.2451 30.4C25.2462 30.4 25.2472 30.4 25.2483 30.4C25.2494 30.4 25.2504 30.4 25.2515 30.4C25.2526 30.4 25.2536 30.4 25.2547 30.4C25.2558 30.4 25.2569 30.4 25.2579 30.4C25.259 30.4 25.2601 30.4 25.2611 30.4C25.2622 30.4 25.2633 30.4 25.2644 30.4C25.2654 30.4 25.2665 30.4 25.2676 30.4C25.2687 30.4 25.2697 30.4 25.2708 30.4C25.2719 30.4 25.273 30.4 25.274 30.4C25.2751 30.4 25.2762 30.4 25.2773 30.4C25.2783 30.4 25.2794 30.4 25.2805 30.4C25.2816 30.4 25.2827 30.4 25.2837 30.4C25.2848 30.4 25.2859 30.4 25.287 30.4C25.2881 30.4 25.2891 30.4 25.2902 30.4C25.2913 30.4 25.2924 30.4 25.2935 30.4C25.2945 30.4 25.2956 30.4 25.2967 30.4C25.2978 30.4 25.2989 30.4 25.3 30.4C25.301 30.4 25.3021 30.4 25.3032 30.4C25.3043 30.4 25.3054 30.4 25.3065 30.4C25.3076 30.4 25.3086 30.4 25.3097 30.4C25.3108 30.4 25.3119 30.4 25.313 30.4C25.3141 30.4 25.3152 30.4 25.3163 30.4C25.3174 30.4 25.3184 30.4 25.3195 30.4C25.3206 30.4 25.3217 30.4 25.3228 30.4C25.3239 30.4 25.325 30.4 25.3261 30.4C25.3272 30.4 25.3283 30.4 25.3294 30.4C25.3305 30.4 25.3315 30.4 25.3326 30.4C25.3337 30.4 25.3348 30.4 25.3359 30.4C25.337 30.4 25.3381 30.4 25.3392 30.4C25.3403 30.4 25.3414 30.4 25.3425 30.4C25.3436 30.4 25.3447 30.4 25.3458 30.4C25.3469 30.4 25.348 30.4 25.3491 30.4C25.3502 30.4 25.3513 30.4 25.3524 30.4C25.3535 30.4 25.3546 30.4 25.3557 30.4C25.3568 30.4 25.3579 30.4 25.359 30.4C25.3601 30.4 25.3612 30.4 25.3623 30.4C25.3634 30.4 25.3645 30.4 25.3656 30.4C25.3667 30.4 25.3678 30.4 25.3689 30.4C25.3701 30.4 25.3712 30.4 25.3723 30.4C25.3734 30.4 25.3745 30.4 25.3756 30.4C25.3767 30.4 25.3778 30.4 25.3789 30.4C25.38 30.4 25.3811 30.4 25.3822 30.4C25.3834 30.4 25.3845 30.4 25.3856 30.4C25.3867 30.4 25.3878 30.4 25.3889 30.4C25.39 30.4 25.3911 30.4 25.3922 30.4C25.3934 30.4 25.3945 30.4 25.3956 30.4C25.3967 30.4 25.3978 30.4 25.3989 30.4C25.4 30.4 25.4012 30.4 25.4023 30.4C25.4034 30.4 25.4045 30.4 25.4056 30.4C25.4067 30.4 25.4079 30.4 25.409 30.4C25.4101 30.4 25.4112 30.4 25.4123 30.4C25.4134 30.4 25.4146 30.4 25.4157 30.4C25.4168 30.4 25.4179 30.4 25.4191 30.4C25.4202 30.4 25.4213 30.4 25.4224 30.4C25.4235 30.4 25.4247 30.4 25.4258 30.4C25.4269 30.4 25.428 30.4 25.4292 30.4C25.4303 30.4 25.4314 30.4 25.4325 30.4C25.4337 30.4 25.4348 30.4 25.4359 30.4C25.437 30.4 25.4382 30.4 25.4393 30.4C25.4404 30.4 25.4415 30.4 25.4427 30.4C25.4438 30.4 25.4449 30.4 25.4461 30.4C25.4472 30.4 25.4483 30.4 25.4494 30.4C25.4506 30.4 25.4517 30.4 25.4528 30.4C25.454 30.4 25.4551 30.4 25.4562 30.4C25.4574 30.4 25.4585 30.4 25.4596 30.4C25.4608 30.4 25.4619 30.4 25.463 30.4C25.4642 30.4 25.4653 30.4 25.4664 30.4C25.4676 30.4 25.4687 30.4 25.4698 30.4C25.471 30.4 25.4721 30.4 25.4732 30.4C25.4744 30.4 25.4755 30.4 25.4767 30.4C25.4778 30.4 25.4789 30.4 25.4801 30.4C25.4812 30.4 25.4824 30.4 25.4835 30.4C25.4846 30.4 25.4858 30.4 25.4869 30.4C25.4881 30.4 25.4892 30.4 25.4903 30.4C25.4915 30.4 25.4926 30.4 25.4938 30.4C25.4949 30.4 25.4961 30.4 25.4972 30.4C25.4984 30.4 25.4995 30.4 25.5006 30.4C25.5018 30.4 25.5029 30.4 25.5041 30.4C25.5052 30.4 25.5064 30.4 25.5075 30.4C25.5087 30.4 25.5098 30.4 25.511 30.4C25.5121 30.4 25.5133 30.4 25.5144 30.4C25.5156 30.4 25.5167 30.4 25.5179 30.4C25.519 30.4 25.5202 30.4 25.5213 30.4C25.5225 30.4 25.5236 30.4 25.5248 30.4C25.5259 30.4 25.5271 30.4 25.5282 30.4C25.5294 30.4 25.5305 30.4 25.5317 30.4C25.5328 30.4 25.534 30.4 25.5352 30.4C25.5363 30.4 25.5375 30.4 25.5386 30.4C25.5398 30.4 25.5409 30.4 25.5421 30.4C25.5433 30.4 25.5444 30.4 25.5456 30.4C25.5467 30.4 25.5479 30.4 25.549 30.4C25.5502 30.4 25.5514 30.4 25.5525 30.4C25.5537 30.4 25.5549 30.4 25.556 30.4C25.5572 30.4 25.5583 30.4 25.5595 30.4C25.5607 30.4 25.5618 30.4 25.563 30.4C25.5642 30.4 25.5653 30.4 25.5665 30.4C25.5676 30.4 25.5688 30.4 25.57 30.4C25.5711 30.4 25.5723 30.4 25.5735 30.4C25.5746 30.4 25.5758 30.4 25.577 30.4C25.5781 30.4 25.5793 30.4 25.5805 30.4C25.5817 30.4 25.5828 30.4 25.584 30.4C25.5852 30.4 25.5863 30.4 25.5875 30.4C25.5887 30.4 25.5898 30.4 25.591 30.4C25.5922 30.4 25.5934 30.4 25.5945 30.4C25.5957 30.4 25.5969 30.4 25.5981 30.4C25.5992 30.4 25.6004 30.4 25.6016 30.4C25.6028 30.4 25.6039 30.4 25.6051 30.4C25.6063 30.4 25.6075 30.4 25.6086 30.4C25.6098 30.4 25.611 30.4 25.6122 30.4C25.6133 30.4 25.6145 30.4 25.6157 30.4C25.6169 30.4 25.6181 30.4 25.6192 30.4C25.6204 30.4 25.6216 30.4 25.6228 30.4C25.624 30.4 25.6251 30.4 25.6263 30.4C25.6275 30.4 25.6287 30.4 25.6299 30.4C25.6311 30.4 25.6322 30.4 25.6334 30.4C25.6346 30.4 25.6358 30.4 25.637 30.4C25.6382 30.4 25.6393 30.4 25.6405 30.4C25.6417 30.4 25.6429 30.4 25.6441 30.4C25.6453 30.4 25.6465 30.4 25.6477 30.4C25.6488 30.4 25.65 30.4 25.6512 30.4C25.6524 30.4 25.6536 30.4 25.6548 30.4C25.656 30.4 25.6572 30.4 25.6584 30.4C25.6596 30.4 25.6607 30.4 25.6619 30.4C25.6631 30.4 25.6643 30.4 25.6655 30.4C25.6667 30.4 25.6679 30.4 25.6691 30.4C25.6703 30.4 25.6715 30.4 25.6727 30.4C25.6739 30.4 25.6751 30.4 25.6763 30.4C25.6775 30.4 25.6787 30.4 25.6799 30.4C25.6811 30.4 25.6823 30.4 25.6835 30.4C25.6847 30.4 25.6859 30.4 25.6871 30.4C25.6883 30.4 25.6895 30.4 25.6907 30.4C25.6919 30.4 25.6931 30.4 25.6943 30.4C25.6955 30.4 25.6967 30.4 25.6979 30.4C25.6991 30.4 25.7003 30.4 25.7015 30.4C25.7027 30.4 25.7039 30.4 25.7051 30.4C25.7063 30.4 25.7075 30.4 25.7087 30.4C25.7099 30.4 25.7111 30.4 25.7123 30.4C25.7135 30.4 25.7147 30.4 25.7159 30.4C25.7171 30.4 25.7183 30.4 25.7196 30.4C25.7208 30.4 25.722 30.4 25.7232 30.4C25.7244 30.4 25.7256 30.4 25.7268 30.4C25.728 30.4 25.7292 30.4 25.7304 30.4C25.7317 30.4 25.7329 30.4 25.7341 30.4C25.7353 30.4 25.7365 30.4 25.7377 30.4C25.7389 30.4 25.7402 30.4 25.7414 30.4C25.7426 30.4 25.7438 30.4 25.745 30.4C25.7462 30.4 25.7474 30.4 25.7487 30.4C25.7499 30.4 25.7511 30.4 25.7523 30.4C25.7535 30.4 25.7547 30.4 25.756 30.4C25.7572 30.4 25.7584 30.4 25.7596 30.4C25.7608 30.4 25.7621 30.4 25.7633 30.4C25.7645 30.4 25.7657 30.4 25.7669 30.4C25.7682 30.4 25.7694 30.4 25.7706 30.4C25.7718 30.4 25.7731 30.4 25.7743 30.4C25.7755 30.4 25.7767 30.4 25.778 30.4C25.7792 30.4 25.7804 30.4 25.7816 30.4C25.7829 30.4 25.7841 30.4 25.7853 30.4C25.7865 30.4 25.7878 30.4 25.789 30.4C25.7902 30.4 25.7914 30.4 25.7927 30.4C25.7939 30.4 25.7951 30.4 25.7964 30.4C25.7976 30.4 25.7988 30.4 25.8001 30.4C25.8013 30.4 25.8025 30.4 25.8038 30.4C25.805 30.4 25.8062 30.4 25.8074 30.4C25.8087 30.4 25.8099 30.4 25.8111 30.4C25.8124 30.4 25.8136 30.4 25.8149 30.4C25.8161 30.4 25.8173 30.4 25.8186 30.4C25.8198 30.4 25.821 30.4 25.8223 30.4C25.8235 30.4 25.8247 30.4 25.826 30.4C25.8272 30.4 25.8285 30.4 25.8297 30.4C25.8309 30.4 25.8322 30.4 25.8334 30.4C25.8347 30.4 25.8359 30.4 25.8371 30.4C25.8384 30.4 25.8396 30.4 25.8409 30.4C25.8421 30.4 25.8433 30.4 25.8446 30.4C25.8458 30.4 25.8471 30.4 25.8483 30.4C25.8496 30.4 25.8508 30.4 25.8521 30.4C25.8533 30.4 25.8545 30.4 25.8558 30.4C25.857 30.4 25.8583 30.4 25.8595 30.4C25.8608 30.4 25.862 30.4 25.8633 30.4C25.8645 30.4 25.8658 30.4 25.867 30.4C25.8683 30.4 25.8695 30.4 25.8708 30.4C25.872 30.4 25.8733 30.4 25.8745 30.4C25.8758 30.4 25.877 30.4 25.8783 30.4C25.8795 30.4 25.8808 30.4 25.882 30.4C25.8833 30.4 25.8845 30.4 25.8858 30.4C25.887 30.4 25.8883 30.4 25.8896 30.4C25.8908 30.4 25.8921 30.4 25.8933 30.4C25.8946 30.4 25.8958 30.4 25.8971 30.4C25.8984 30.4 25.8996 30.4 25.9009 30.4C25.9021 30.4 25.9034 30.4 25.9046 30.4C25.9059 30.4 25.9072 30.4 25.9084 30.4C25.9097 30.4 25.9109 30.4 25.9122 30.4C25.9135 30.4 25.9147 30.4 25.916 30.4C25.9173 30.4 25.9185 30.4 25.9198 30.4C25.921 30.4 25.9223 30.4 25.9236 30.4C25.9248 30.4 25.9261 30.4 25.9274 30.4C25.9286 30.4 25.9299 30.4 25.9312 30.4C25.9324 30.4 25.9337 30.4 25.935 30.4C25.9362 30.4 25.9375 30.4 25.9388 30.4C25.94 30.4 25.9413 30.4 25.9426 30.4C25.9438 30.4 25.9451 30.4 25.9464 30.4C25.9477 30.4 25.9489 30.4 25.9502 30.4C25.9515 30.4 25.9527 30.4 25.954 30.4C25.9553 30.4 25.9566 30.4 25.9578 30.4C25.9591 30.4 25.9604 30.4 25.9617 30.4C25.9629 30.4 25.9642 30.4 25.9655 30.4C25.9668 30.4 25.968 30.4 25.9693 30.4C25.9706 30.4 25.9719 30.4 25.9731 30.4C25.9744 30.4 25.9757 30.4 25.977 30.4C25.9783 30.4 25.9795 30.4 25.9808 30.4C25.9821 30.4 25.9834 30.4 25.9847 30.4C25.9859 30.4 25.9872 30.4 25.9885 30.4C25.9898 30.4 25.9911 30.4 25.9923 30.4C25.9936 30.4 25.9949 30.4 25.9962 30.4C25.9975 30.4 25.9988 30.4 26.0001 30.4C26.0013 30.4 26.0026 30.4 26.0039 30.4C26.0052 30.4 26.0065 30.4 26.0078 30.4C26.0091 30.4 26.0103 30.4 26.0116 30.4C26.0129 30.4 26.0142 30.4 26.0155 30.4C26.0168 30.4 26.0181 30.4 26.0194 30.4C26.0207 30.4 26.0219 30.4 26.0232 30.4C26.0245 30.4 26.0258 30.4 26.0271 30.4C26.0284 30.4 26.0297 30.4 26.031 30.4C26.0323 30.4 26.0336 30.4 26.0349 30.4C26.0362 30.4 26.0375 30.4 26.0387 30.4C26.04 30.4 26.0413 30.4 26.0426 30.4C26.0439 30.4 26.0452 30.4 26.0465 30.4C26.0478 30.4 26.0491 30.4 26.0504 30.4C26.0517 30.4 26.053 30.4 26.0543 30.4C26.0556 30.4 26.0569 30.4 26.0582 30.4C26.0595 30.4 26.0608 30.4 26.0621 30.4C26.0634 30.4 26.0647 30.4 26.066 30.4C26.0673 30.4 26.0686 30.4 26.0699 30.4C26.0712 30.4 26.0725 30.4 26.0738 30.4C26.0751 30.4 26.0764 30.4 26.0777 30.4C26.0791 30.4 26.0804 30.4 26.0817 30.4C26.083 30.4 26.0843 30.4 26.0856 30.4C26.0869 30.4 26.0882 30.4 26.0895 30.4C26.0908 30.4 26.0921 30.4 26.0934 30.4C26.0947 30.4 26.0961 30.4 26.0974 30.4C26.0987 30.4 26.1 30.4 26.1013 30.4C26.1026 30.4 26.1039 30.4 26.1052 30.4C26.1065 30.4 26.1079 30.4 26.1092 30.4C26.1105 30.4 26.1118 30.4 26.1131 30.4C26.1144 30.4 26.1157 30.4 26.1171 30.4C26.1184 30.4 26.1197 30.4 26.121 30.4C26.1223 30.4 26.1236 30.4 26.125 30.4C26.1263 30.4 26.1276 30.4 26.1289 30.4C26.1302 30.4 26.1315 30.4 26.1329 30.4C26.1342 30.4 26.1355 30.4 26.1368 30.4C26.1381 30.4 26.1395 30.4 26.1408 30.4C26.1421 30.4 26.1434 30.4 26.1448 30.4C26.1461 30.4 26.1474 30.4 26.1487 30.4C26.15 30.4 26.1514 30.4 26.1527 30.4C26.154 30.4 26.1553 30.4 26.1567 30.4C26.158 30.4 26.1593 30.4 26.1606 30.4C26.162 30.4 26.1633 30.4 26.1646 30.4C26.166 30.4 26.1673 30.4 26.1686 30.4C26.1699 30.4 26.1713 30.4 26.1726 30.4C26.1739 30.4 26.1753 30.4 26.1766 30.4C26.1779 30.4 26.1792 30.4 26.1806 30.4C26.1819 30.4 26.1832 30.4 26.1846 30.4C26.1859 30.4 26.1872 30.4 26.1886 30.4C26.1899 30.4 26.1912 30.4 26.1926 30.4C26.1939 30.4 26.1952 30.4 26.1966 30.4C26.1979 30.4 26.1993 30.4 26.2006 30.4C26.2019 30.4 26.2033 30.4 26.2046 30.4C26.2059 30.4 26.2073 30.4 26.2086 30.4C26.21 30.4 26.2113 30.4 26.2126 30.4C26.214 30.4 26.2153 30.4 26.2167 30.4C26.218 30.4 26.2193 30.4 26.2207 30.4C26.222 30.4 26.2234 30.4 26.2247 30.4C26.2261 30.4 26.2274 30.4 26.2287 30.4C26.2301 30.4 26.2314 30.4 26.2328 30.4C26.2341 30.4 26.2355 30.4 26.2368 30.4C26.2382 30.4 26.2395 30.4 26.2408 30.4C26.2422 30.4 26.2435 30.4 26.2449 30.4C26.2462 30.4 26.2476 30.4 26.2489 30.4C26.2503 30.4 26.2516 30.4 26.253 30.4C26.2543 30.4 26.2557 30.4 26.257 30.4C26.2584 30.4 26.2597 30.4 26.2611 30.4C26.2624 30.4 26.2638 30.4 26.2651 30.4C26.2665 30.4 26.2678 30.4 26.2692 30.4C26.2706 30.4 26.2719 30.4 26.2733 30.4C26.2746 30.4 26.276 30.4 26.2773 30.4C26.2787 30.4 26.28 30.4 26.2814 30.4C26.2828 30.4 26.2841 30.4 26.2855 30.4C26.2868 30.4 26.2882 30.4 26.2896 30.4C26.2909 30.4 26.2923 30.4 26.2936 30.4C26.295 30.4 26.2964 30.4 26.2977 30.4C26.2991 30.4 26.3004 30.4 26.3018 30.4C26.3032 30.4 26.3045 30.4 26.3059 30.4C26.3072 30.4 26.3086 30.4 26.31 30.4C26.3113 30.4 26.3127 30.4 26.3141 30.4C26.3154 30.4 26.3168 30.4 26.3182 30.4C26.3195 30.4 26.3209 30.4 26.3223 30.4C26.3236 30.4 26.325 30.4 26.3264 30.4C26.3277 30.4 26.3291 30.4 26.3305 30.4C26.3318 30.4 26.3332 30.4 26.3346 30.4C26.336 30.4 26.3373 30.4 26.3387 30.4C26.3401 30.4 26.3414 30.4 26.3428 30.4C26.3442 30.4 26.3456 30.4 26.3469 30.4C26.3483 30.4 26.3497 30.4 26.3511 30.4C26.3524 30.4 26.3538 30.4 26.3552 30.4C26.3566 30.4 26.3579 30.4 26.3593 30.4C26.3607 30.4 26.3621 30.4 26.3634 30.4C26.3648 30.4 26.3662 30.4 26.3676 30.4C26.3689 30.4 26.3703 30.4 26.3717 30.4C26.3731 30.4 26.3745 30.4 26.3758 30.4C26.3772 30.4 26.3786 30.4 26.38 30.4C26.3814 30.4 26.3828 30.4 26.3841 30.4C26.3855 30.4 26.3869 30.4 26.3883 30.4C26.3897 30.4 26.391 30.4 26.3924 30.4C26.3938 30.4 26.3952 30.4 26.3966 30.4C26.398 30.4 26.3994 30.4 26.4007 30.4C26.4021 30.4 26.4035 30.4 26.4049 30.4C26.4063 30.4 26.4077 30.4 26.4091 30.4C26.4105 30.4 26.4118 30.4 26.4132 30.4C26.4146 30.4 26.416 30.4 26.4174 30.4C26.4188 30.4 26.4202 30.4 26.4216 30.4C26.423 30.4 26.4244 30.4 26.4258 30.4C26.4272 30.4 26.4285 30.4 26.4299 30.4C26.4313 30.4 26.4327 30.4 26.4341 30.4C26.4355 30.4 26.4369 30.4 26.4383 30.4C26.4397 30.4 26.4411 30.4 26.4425 30.4C26.4439 30.4 26.4453 30.4 26.4467 30.4C26.4481 30.4 26.4495 30.4 26.4509 30.4C26.4523 30.4 26.4537 30.4 26.4551 30.4C26.4565 30.4 26.4579 30.4 26.4593 30.4C26.4607 30.4 26.4621 30.4 26.4635 30.4C26.4649 30.4 26.4663 30.4 26.4677 30.4C26.4691 30.4 26.4705 30.4 26.4719 30.4C26.4733 30.4 26.4747 30.4 26.4761 30.4C26.4775 30.4 26.4789 30.4 26.4803 30.4C26.4817 30.4 26.4831 30.4 26.4845 30.4C26.486 30.4 26.4874 30.4 26.4888 30.4C26.4902 30.4 26.4916 30.4 26.493 30.4C26.4944 30.4 26.4958 30.4 26.4972 30.4C26.4986 30.4 26.5 30.4 26.5015 30.4C26.5029 30.4 26.5043 30.4 26.5057 30.4C26.5071 30.4 26.5085 30.4 26.5099 30.4C26.5113 30.4 26.5128 30.4 26.5142 30.4C26.5156 30.4 26.517 30.4 26.5184 30.4C26.5198 30.4 26.5212 30.4 26.5227 30.4C26.5241 30.4 26.5255 30.4 26.5269 30.4C26.5283 30.4 26.5297 30.4 26.5312 30.4C26.5326 30.4 26.534 30.4 26.5354 30.4C26.5368 30.4 26.5383 30.4 26.5397 30.4C26.5411 30.4 26.5425 30.4 26.5439 30.4C26.5454 30.4 26.5468 30.4 26.5482 30.4C26.5496 30.4 26.551 30.4 26.5525 30.4C26.5539 30.4 26.5553 30.4 26.5567 30.4C26.5582 30.4 26.5596 30.4 26.561 30.4C26.5624 30.4 26.5639 30.4 26.5653 30.4C26.5667 30.4 26.5681 30.4 26.5696 30.4C26.571 30.4 26.5724 30.4 26.5739 30.4C26.5753 30.4 26.5767 30.4 26.5781 30.4C26.5796 30.4 26.581 30.4 26.5824 30.4C26.5839 30.4 26.5853 30.4 26.5867 30.4C26.5882 30.4 26.5896 30.4 26.591 30.4C26.5924 30.4 26.5939 30.4 26.5953 30.4C26.5967 30.4 26.5982 30.4 26.5996 30.4C26.6011 30.4 26.6025 30.4 26.6039 30.4C26.6054 30.4 26.6068 30.4 26.6082 30.4C26.6097 30.4 26.6111 30.4 26.6125 30.4C26.614 30.4 26.6154 30.4 26.6169 30.4C26.6183 30.4 26.6197 30.4 26.6212 30.4C26.6226 30.4 26.624 30.4 26.6255 30.4C26.6269 30.4 26.6284 30.4 26.6298 30.4C26.6313 30.4 26.6327 30.4 26.6341 30.4C26.6356 30.4 26.637 30.4 26.6385 30.4C26.6399 30.4 26.6414 30.4 26.6428 30.4C26.6442 30.4 26.6457 30.4 26.6471 30.4C26.6486 30.4 26.65 30.4 26.6515 30.4C26.6529 30.4 26.6544 30.4 26.6558 30.4C26.6573 30.4 26.6587 30.4 26.6602 30.4C26.6616 30.4 26.6631 30.4 26.6645 30.4C26.666 30.4 26.6674 30.4 26.6689 30.4C26.6703 30.4 26.6718 30.4 26.6732 30.4C26.6747 30.4 26.6761 30.4 26.6776 30.4C26.679 30.4 26.6805 30.4 26.6819 30.4C26.6834 30.4 26.6848 30.4 26.6863 30.4C26.6877 30.4 26.6892 30.4 26.6907 30.4C26.6921 30.4 26.6936 30.4 26.695 30.4C26.6965 30.4 26.6979 30.4 26.6994 30.4C26.7008 30.4 26.7023 30.4 26.7038 30.4C26.7052 30.4 26.7067 30.4 26.7081 30.4C26.7096 30.4 26.7111 30.4 26.7125 30.4C26.714 30.4 26.7154 30.4 26.7169 30.4C26.7184 30.4 26.7198 30.4 26.7213 30.4C26.7228 30.4 26.7242 30.4 26.7257 30.4C26.7271 30.4 26.7286 30.4 26.7301 30.4C26.7315 30.4 26.733 30.4 26.7345 30.4C26.7359 30.4 26.7374 30.4 26.7389 30.4C26.7403 30.4 26.7418 30.4 26.7433 30.4C26.7447 30.4 26.7462 30.4 26.7477 30.4C26.7491 30.4 26.7506 30.4 26.7521 30.4C26.7536 30.4 26.755 30.4 26.7565 30.4C26.758 30.4 26.7594 30.4 26.7609 30.4C26.7624 30.4 26.7639 30.4 26.7653 30.4C26.7668 30.4 26.7683 30.4 26.7698 30.4C26.7712 30.4 26.7727 30.4 26.7742 30.4C26.7757 30.4 26.7771 30.4 26.7786 30.4C26.7801 30.4 26.7816 30.4 26.783 30.4C26.7845 30.4 26.786 30.4 26.7875 30.4C26.7889 30.4 26.7904 30.4 26.7919 30.4C26.7934 30.4 26.7949 30.4 26.7963 30.4C26.7978 30.4 26.7993 30.4 26.8008 30.4C26.8023 30.4 26.8037 30.4 26.8052 30.4C26.8067 30.4 26.8082 30.4 26.8097 30.4C26.8112 30.4 26.8126 30.4 26.8141 30.4C26.8156 30.4 26.8171 30.4 26.8186 30.4C26.8201 30.4 26.8216 30.4 26.823 30.4C26.8245 30.4 26.826 30.4 26.8275 30.4C26.829 30.4 26.8305 30.4 26.832 30.4C26.8334 30.4 26.8349 30.4 26.8364 30.4C26.8379 30.4 26.8394 30.4 26.8409 30.4C26.8424 30.4 26.8439 30.4 26.8454 30.4C26.8469 30.4 26.8484 30.4 26.8498 30.4C26.8513 30.4 26.8528 30.4 26.8543 30.4C26.8558 30.4 26.8573 30.4 26.8588 30.4C26.8603 30.4 26.8618 30.4 26.8633 30.4C26.8648 30.4 26.8663 30.4 26.8678 30.4C26.8693 30.4 26.8708 30.4 26.8723 30.4C26.8738 30.4 26.8753 30.4 26.8768 30.4C26.8783 30.4 26.8798 30.4 26.8813 30.4C26.8828 30.4 26.8843 30.4 26.8858 30.4C26.8873 30.4 26.8888 30.4 26.8903 30.4C26.8918 30.4 26.8933 30.4 26.8948 30.4C26.8963 30.4 26.8978 30.4 26.8993 30.4C26.9008 30.4 26.9023 30.4 26.9038 30.4C26.9053 30.4 26.9068 30.4 26.9083 30.4C26.9098 30.4 26.9113 30.4 26.9128 30.4C26.9143 30.4 26.9158 30.4 26.9173 30.4C26.9188 30.4 26.9204 30.4 26.9219 30.4C26.9234 30.4 26.9249 30.4 26.9264 30.4C26.9279 30.4 26.9294 30.4 26.9309 30.4C26.9324 30.4 26.9339 30.4 26.9355 30.4C26.937 30.4 26.9385 30.4 26.94 30.4C26.9415 30.4 26.943 30.4 26.9445 30.4C26.946 30.4 26.9476 30.4 26.9491 30.4C26.9506 30.4 26.9521 30.4 26.9536 30.4C26.9551 30.4 26.9567 30.4 26.9582 30.4C26.9597 30.4 26.9612 30.4 26.9627 30.4C26.9642 30.4 26.9658 30.4 26.9673 30.4C26.9688 30.4 26.9703 30.4 26.9718 30.4C26.9734 30.4 26.9749 30.4 26.9764 30.4C26.9779 30.4 26.9794 30.4 26.981 30.4C26.9825 30.4 26.984 30.4 26.9855 30.4C26.987 30.4 26.9886 30.4 26.9901 30.4C26.9916 30.4 26.9931 30.4 26.9947 30.4C26.9962 30.4 26.9977 30.4 26.9992 30.4C27.0008 30.4 27.0023 30.4 27.0038 30.4C27.0053 30.4 27.0069 30.4 27.0084 30.4C27.0099 30.4 27.0115 30.4 27.013 30.4C27.0145 30.4 27.016 30.4 27.0176 30.4C27.0191 30.4 27.0206 30.4 27.0222 30.4C27.0237 30.4 27.0252 30.4 27.0268 30.4C27.0283 30.4 27.0298 30.4 27.0314 30.4C27.0329 30.4 27.0344 30.4 27.036 30.4C27.0375 30.4 27.039 30.4 27.0406 30.4C27.0421 30.4 27.0436 30.4 27.0452 30.4C27.0467 30.4 27.0482 30.4 27.0498 30.4C27.0513 30.4 27.0529 30.4 27.0544 30.4C27.0559 30.4 27.0575 30.4 27.059 30.4C27.0605 30.4 27.0621 30.4 27.0636 30.4C27.0652 30.4 27.0667 30.4 27.0683 30.4C27.0698 30.4 27.0713 30.4 27.0729 30.4C27.0744 30.4 27.076 30.4 27.0775 30.4C27.079 30.4 27.0806 30.4 27.0821 30.4C27.0837 30.4 27.0852 30.4 27.0868 30.4C27.0883 30.4 27.0899 30.4 27.0914 30.4C27.093 30.4 27.0945 30.4 27.096 30.4C27.0976 30.4 27.0991 30.4 27.1007 30.4C27.1022 30.4 27.1038 30.4 27.1053 30.4C27.1069 30.4 27.1084 30.4 27.11 30.4C27.1115 30.4 27.1131 30.4 27.1146 30.4C27.1162 30.4 27.1177 30.4 27.1193 30.4C27.1208 30.4 27.1224 30.4 27.124 30.4C27.1255 30.4 27.1271 30.4 27.1286 30.4C27.1302 30.4 27.1317 30.4 27.1333 30.4C27.1348 30.4 27.1364 30.4 27.1379 30.4C27.1395 30.4 27.1411 30.4 27.1426 30.4C27.1442 30.4 27.1457 30.4 27.1473 30.4C27.1488 30.4 27.1504 30.4 27.152 30.4C27.1535 30.4 27.1551 30.4 27.1566 30.4C27.1582 30.4 27.1598 30.4 27.1613 30.4C27.1629 30.4 27.1645 30.4 27.166 30.4V29.4V28.4C27.1645 28.4 27.1629 28.4 27.1613 28.4C27.1598 28.4 27.1582 28.4 27.1566 28.4C27.1551 28.4 27.1535 28.4 27.152 28.4C27.1504 28.4 27.1488 28.4 27.1473 28.4C27.1457 28.4 27.1442 28.4 27.1426 28.4C27.1411 28.4 27.1395 28.4 27.1379 28.4C27.1364 28.4 27.1348 28.4 27.1333 28.4C27.1317 28.4 27.1302 28.4 27.1286 28.4C27.1271 28.4 27.1255 28.4 27.124 28.4C27.1224 28.4 27.1208 28.4 27.1193 28.4C27.1177 28.4 27.1162 28.4 27.1146 28.4C27.1131 28.4 27.1115 28.4 27.11 28.4C27.1084 28.4 27.1069 28.4 27.1053 28.4C27.1038 28.4 27.1022 28.4 27.1007 28.4C27.0991 28.4 27.0976 28.4 27.096 28.4C27.0945 28.4 27.093 28.4 27.0914 28.4C27.0899 28.4 27.0883 28.4 27.0868 28.4C27.0852 28.4 27.0837 28.4 27.0821 28.4C27.0806 28.4 27.079 28.4 27.0775 28.4C27.076 28.4 27.0744 28.4 27.0729 28.4C27.0713 28.4 27.0698 28.4 27.0683 28.4C27.0667 28.4 27.0652 28.4 27.0636 28.4C27.0621 28.4 27.0605 28.4 27.059 28.4C27.0575 28.4 27.0559 28.4 27.0544 28.4C27.0529 28.4 27.0513 28.4 27.0498 28.4C27.0482 28.4 27.0467 28.4 27.0452 28.4C27.0436 28.4 27.0421 28.4 27.0406 28.4C27.039 28.4 27.0375 28.4 27.036 28.4C27.0344 28.4 27.0329 28.4 27.0314 28.4C27.0298 28.4 27.0283 28.4 27.0268 28.4C27.0252 28.4 27.0237 28.4 27.0222 28.4C27.0206 28.4 27.0191 28.4 27.0176 28.4C27.016 28.4 27.0145 28.4 27.013 28.4C27.0115 28.4 27.0099 28.4 27.0084 28.4C27.0069 28.4 27.0053 28.4 27.0038 28.4C27.0023 28.4 27.0008 28.4 26.9992 28.4C26.9977 28.4 26.9962 28.4 26.9947 28.4C26.9931 28.4 26.9916 28.4 26.9901 28.4C26.9886 28.4 26.987 28.4 26.9855 28.4C26.984 28.4 26.9825 28.4 26.981 28.4C26.9794 28.4 26.9779 28.4 26.9764 28.4C26.9749 28.4 26.9734 28.4 26.9718 28.4C26.9703 28.4 26.9688 28.4 26.9673 28.4C26.9658 28.4 26.9642 28.4 26.9627 28.4C26.9612 28.4 26.9597 28.4 26.9582 28.4C26.9567 28.4 26.9551 28.4 26.9536 28.4C26.9521 28.4 26.9506 28.4 26.9491 28.4C26.9476 28.4 26.946 28.4 26.9445 28.4C26.943 28.4 26.9415 28.4 26.94 28.4C26.9385 28.4 26.937 28.4 26.9355 28.4C26.9339 28.4 26.9324 28.4 26.9309 28.4C26.9294 28.4 26.9279 28.4 26.9264 28.4C26.9249 28.4 26.9234 28.4 26.9219 28.4C26.9204 28.4 26.9188 28.4 26.9173 28.4C26.9158 28.4 26.9143 28.4 26.9128 28.4C26.9113 28.4 26.9098 28.4 26.9083 28.4C26.9068 28.4 26.9053 28.4 26.9038 28.4C26.9023 28.4 26.9008 28.4 26.8993 28.4C26.8978 28.4 26.8963 28.4 26.8948 28.4C26.8933 28.4 26.8918 28.4 26.8903 28.4C26.8888 28.4 26.8873 28.4 26.8858 28.4C26.8843 28.4 26.8828 28.4 26.8813 28.4C26.8798 28.4 26.8783 28.4 26.8768 28.4C26.8753 28.4 26.8738 28.4 26.8723 28.4C26.8708 28.4 26.8693 28.4 26.8678 28.4C26.8663 28.4 26.8648 28.4 26.8633 28.4C26.8618 28.4 26.8603 28.4 26.8588 28.4C26.8573 28.4 26.8558 28.4 26.8543 28.4C26.8528 28.4 26.8513 28.4 26.8498 28.4C26.8484 28.4 26.8469 28.4 26.8454 28.4C26.8439 28.4 26.8424 28.4 26.8409 28.4C26.8394 28.4 26.8379 28.4 26.8364 28.4C26.8349 28.4 26.8334 28.4 26.832 28.4C26.8305 28.4 26.829 28.4 26.8275 28.4C26.826 28.4 26.8245 28.4 26.823 28.4C26.8216 28.4 26.8201 28.4 26.8186 28.4C26.8171 28.4 26.8156 28.4 26.8141 28.4C26.8126 28.4 26.8112 28.4 26.8097 28.4C26.8082 28.4 26.8067 28.4 26.8052 28.4C26.8037 28.4 26.8023 28.4 26.8008 28.4C26.7993 28.4 26.7978 28.4 26.7963 28.4C26.7949 28.4 26.7934 28.4 26.7919 28.4C26.7904 28.4 26.7889 28.4 26.7875 28.4C26.786 28.4 26.7845 28.4 26.783 28.4C26.7816 28.4 26.7801 28.4 26.7786 28.4C26.7771 28.4 26.7757 28.4 26.7742 28.4C26.7727 28.4 26.7712 28.4 26.7698 28.4C26.7683 28.4 26.7668 28.4 26.7653 28.4C26.7639 28.4 26.7624 28.4 26.7609 28.4C26.7594 28.4 26.758 28.4 26.7565 28.4C26.755 28.4 26.7536 28.4 26.7521 28.4C26.7506 28.4 26.7491 28.4 26.7477 28.4C26.7462 28.4 26.7447 28.4 26.7433 28.4C26.7418 28.4 26.7403 28.4 26.7389 28.4C26.7374 28.4 26.7359 28.4 26.7345 28.4C26.733 28.4 26.7315 28.4 26.7301 28.4C26.7286 28.4 26.7271 28.4 26.7257 28.4C26.7242 28.4 26.7228 28.4 26.7213 28.4C26.7198 28.4 26.7184 28.4 26.7169 28.4C26.7154 28.4 26.714 28.4 26.7125 28.4C26.7111 28.4 26.7096 28.4 26.7081 28.4C26.7067 28.4 26.7052 28.4 26.7038 28.4C26.7023 28.4 26.7008 28.4 26.6994 28.4C26.6979 28.4 26.6965 28.4 26.695 28.4C26.6936 28.4 26.6921 28.4 26.6907 28.4C26.6892 28.4 26.6877 28.4 26.6863 28.4C26.6848 28.4 26.6834 28.4 26.6819 28.4C26.6805 28.4 26.679 28.4 26.6776 28.4C26.6761 28.4 26.6747 28.4 26.6732 28.4C26.6718 28.4 26.6703 28.4 26.6689 28.4C26.6674 28.4 26.666 28.4 26.6645 28.4C26.6631 28.4 26.6616 28.4 26.6602 28.4C26.6587 28.4 26.6573 28.4 26.6558 28.4C26.6544 28.4 26.6529 28.4 26.6515 28.4C26.65 28.4 26.6486 28.4 26.6471 28.4C26.6457 28.4 26.6442 28.4 26.6428 28.4C26.6414 28.4 26.6399 28.4 26.6385 28.4C26.637 28.4 26.6356 28.4 26.6341 28.4C26.6327 28.4 26.6313 28.4 26.6298 28.4C26.6284 28.4 26.6269 28.4 26.6255 28.4C26.624 28.4 26.6226 28.4 26.6212 28.4C26.6197 28.4 26.6183 28.4 26.6169 28.4C26.6154 28.4 26.614 28.4 26.6125 28.4C26.6111 28.4 26.6097 28.4 26.6082 28.4C26.6068 28.4 26.6054 28.4 26.6039 28.4C26.6025 28.4 26.6011 28.4 26.5996 28.4C26.5982 28.4 26.5967 28.4 26.5953 28.4C26.5939 28.4 26.5924 28.4 26.591 28.4C26.5896 28.4 26.5882 28.4 26.5867 28.4C26.5853 28.4 26.5839 28.4 26.5824 28.4C26.581 28.4 26.5796 28.4 26.5781 28.4C26.5767 28.4 26.5753 28.4 26.5739 28.4C26.5724 28.4 26.571 28.4 26.5696 28.4C26.5681 28.4 26.5667 28.4 26.5653 28.4C26.5639 28.4 26.5624 28.4 26.561 28.4C26.5596 28.4 26.5582 28.4 26.5567 28.4C26.5553 28.4 26.5539 28.4 26.5525 28.4C26.551 28.4 26.5496 28.4 26.5482 28.4C26.5468 28.4 26.5454 28.4 26.5439 28.4C26.5425 28.4 26.5411 28.4 26.5397 28.4C26.5383 28.4 26.5368 28.4 26.5354 28.4C26.534 28.4 26.5326 28.4 26.5312 28.4C26.5297 28.4 26.5283 28.4 26.5269 28.4C26.5255 28.4 26.5241 28.4 26.5227 28.4C26.5212 28.4 26.5198 28.4 26.5184 28.4C26.517 28.4 26.5156 28.4 26.5142 28.4C26.5128 28.4 26.5113 28.4 26.5099 28.4C26.5085 28.4 26.5071 28.4 26.5057 28.4C26.5043 28.4 26.5029 28.4 26.5015 28.4C26.5 28.4 26.4986 28.4 26.4972 28.4C26.4958 28.4 26.4944 28.4 26.493 28.4C26.4916 28.4 26.4902 28.4 26.4888 28.4C26.4874 28.4 26.486 28.4 26.4845 28.4C26.4831 28.4 26.4817 28.4 26.4803 28.4C26.4789 28.4 26.4775 28.4 26.4761 28.4C26.4747 28.4 26.4733 28.4 26.4719 28.4C26.4705 28.4 26.4691 28.4 26.4677 28.4C26.4663 28.4 26.4649 28.4 26.4635 28.4C26.4621 28.4 26.4607 28.4 26.4593 28.4C26.4579 28.4 26.4565 28.4 26.4551 28.4C26.4537 28.4 26.4523 28.4 26.4509 28.4C26.4495 28.4 26.4481 28.4 26.4467 28.4C26.4453 28.4 26.4439 28.4 26.4425 28.4C26.4411 28.4 26.4397 28.4 26.4383 28.4C26.4369 28.4 26.4355 28.4 26.4341 28.4C26.4327 28.4 26.4313 28.4 26.4299 28.4C26.4285 28.4 26.4272 28.4 26.4258 28.4C26.4244 28.4 26.423 28.4 26.4216 28.4C26.4202 28.4 26.4188 28.4 26.4174 28.4C26.416 28.4 26.4146 28.4 26.4132 28.4C26.4118 28.4 26.4105 28.4 26.4091 28.4C26.4077 28.4 26.4063 28.4 26.4049 28.4C26.4035 28.4 26.4021 28.4 26.4007 28.4C26.3994 28.4 26.398 28.4 26.3966 28.4C26.3952 28.4 26.3938 28.4 26.3924 28.4C26.391 28.4 26.3897 28.4 26.3883 28.4C26.3869 28.4 26.3855 28.4 26.3841 28.4C26.3828 28.4 26.3814 28.4 26.38 28.4C26.3786 28.4 26.3772 28.4 26.3758 28.4C26.3745 28.4 26.3731 28.4 26.3717 28.4C26.3703 28.4 26.3689 28.4 26.3676 28.4C26.3662 28.4 26.3648 28.4 26.3634 28.4C26.3621 28.4 26.3607 28.4 26.3593 28.4C26.3579 28.4 26.3566 28.4 26.3552 28.4C26.3538 28.4 26.3524 28.4 26.3511 28.4C26.3497 28.4 26.3483 28.4 26.3469 28.4C26.3456 28.4 26.3442 28.4 26.3428 28.4C26.3414 28.4 26.3401 28.4 26.3387 28.4C26.3373 28.4 26.336 28.4 26.3346 28.4C26.3332 28.4 26.3318 28.4 26.3305 28.4C26.3291 28.4 26.3277 28.4 26.3264 28.4C26.325 28.4 26.3236 28.4 26.3223 28.4C26.3209 28.4 26.3195 28.4 26.3182 28.4C26.3168 28.4 26.3154 28.4 26.3141 28.4C26.3127 28.4 26.3113 28.4 26.31 28.4C26.3086 28.4 26.3072 28.4 26.3059 28.4C26.3045 28.4 26.3032 28.4 26.3018 28.4C26.3004 28.4 26.2991 28.4 26.2977 28.4C26.2964 28.4 26.295 28.4 26.2936 28.4C26.2923 28.4 26.2909 28.4 26.2896 28.4C26.2882 28.4 26.2868 28.4 26.2855 28.4C26.2841 28.4 26.2828 28.4 26.2814 28.4C26.28 28.4 26.2787 28.4 26.2773 28.4C26.276 28.4 26.2746 28.4 26.2733 28.4C26.2719 28.4 26.2706 28.4 26.2692 28.4C26.2678 28.4 26.2665 28.4 26.2651 28.4C26.2638 28.4 26.2624 28.4 26.2611 28.4C26.2597 28.4 26.2584 28.4 26.257 28.4C26.2557 28.4 26.2543 28.4 26.253 28.4C26.2516 28.4 26.2503 28.4 26.2489 28.4C26.2476 28.4 26.2462 28.4 26.2449 28.4C26.2435 28.4 26.2422 28.4 26.2408 28.4C26.2395 28.4 26.2382 28.4 26.2368 28.4C26.2355 28.4 26.2341 28.4 26.2328 28.4C26.2314 28.4 26.2301 28.4 26.2287 28.4C26.2274 28.4 26.2261 28.4 26.2247 28.4C26.2234 28.4 26.222 28.4 26.2207 28.4C26.2193 28.4 26.218 28.4 26.2167 28.4C26.2153 28.4 26.214 28.4 26.2126 28.4C26.2113 28.4 26.21 28.4 26.2086 28.4C26.2073 28.4 26.2059 28.4 26.2046 28.4C26.2033 28.4 26.2019 28.4 26.2006 28.4C26.1993 28.4 26.1979 28.4 26.1966 28.4C26.1952 28.4 26.1939 28.4 26.1926 28.4C26.1912 28.4 26.1899 28.4 26.1886 28.4C26.1872 28.4 26.1859 28.4 26.1846 28.4C26.1832 28.4 26.1819 28.4 26.1806 28.4C26.1792 28.4 26.1779 28.4 26.1766 28.4C26.1753 28.4 26.1739 28.4 26.1726 28.4C26.1713 28.4 26.1699 28.4 26.1686 28.4C26.1673 28.4 26.166 28.4 26.1646 28.4C26.1633 28.4 26.162 28.4 26.1606 28.4C26.1593 28.4 26.158 28.4 26.1567 28.4C26.1553 28.4 26.154 28.4 26.1527 28.4C26.1514 28.4 26.15 28.4 26.1487 28.4C26.1474 28.4 26.1461 28.4 26.1448 28.4C26.1434 28.4 26.1421 28.4 26.1408 28.4C26.1395 28.4 26.1381 28.4 26.1368 28.4C26.1355 28.4 26.1342 28.4 26.1329 28.4C26.1315 28.4 26.1302 28.4 26.1289 28.4C26.1276 28.4 26.1263 28.4 26.125 28.4C26.1236 28.4 26.1223 28.4 26.121 28.4C26.1197 28.4 26.1184 28.4 26.1171 28.4C26.1157 28.4 26.1144 28.4 26.1131 28.4C26.1118 28.4 26.1105 28.4 26.1092 28.4C26.1079 28.4 26.1065 28.4 26.1052 28.4C26.1039 28.4 26.1026 28.4 26.1013 28.4C26.1 28.4 26.0987 28.4 26.0974 28.4C26.0961 28.4 26.0947 28.4 26.0934 28.4C26.0921 28.4 26.0908 28.4 26.0895 28.4C26.0882 28.4 26.0869 28.4 26.0856 28.4C26.0843 28.4 26.083 28.4 26.0817 28.4C26.0804 28.4 26.0791 28.4 26.0777 28.4C26.0764 28.4 26.0751 28.4 26.0738 28.4C26.0725 28.4 26.0712 28.4 26.0699 28.4C26.0686 28.4 26.0673 28.4 26.066 28.4C26.0647 28.4 26.0634 28.4 26.0621 28.4C26.0608 28.4 26.0595 28.4 26.0582 28.4C26.0569 28.4 26.0556 28.4 26.0543 28.4C26.053 28.4 26.0517 28.4 26.0504 28.4C26.0491 28.4 26.0478 28.4 26.0465 28.4C26.0452 28.4 26.0439 28.4 26.0426 28.4C26.0413 28.4 26.04 28.4 26.0387 28.4C26.0375 28.4 26.0362 28.4 26.0349 28.4C26.0336 28.4 26.0323 28.4 26.031 28.4C26.0297 28.4 26.0284 28.4 26.0271 28.4C26.0258 28.4 26.0245 28.4 26.0232 28.4C26.0219 28.4 26.0207 28.4 26.0194 28.4C26.0181 28.4 26.0168 28.4 26.0155 28.4C26.0142 28.4 26.0129 28.4 26.0116 28.4C26.0103 28.4 26.0091 28.4 26.0078 28.4C26.0065 28.4 26.0052 28.4 26.0039 28.4C26.0026 28.4 26.0013 28.4 26.0001 28.4C25.9988 28.4 25.9975 28.4 25.9962 28.4C25.9949 28.4 25.9936 28.4 25.9923 28.4C25.9911 28.4 25.9898 28.4 25.9885 28.4C25.9872 28.4 25.9859 28.4 25.9847 28.4C25.9834 28.4 25.9821 28.4 25.9808 28.4C25.9795 28.4 25.9783 28.4 25.977 28.4C25.9757 28.4 25.9744 28.4 25.9731 28.4C25.9719 28.4 25.9706 28.4 25.9693 28.4C25.968 28.4 25.9668 28.4 25.9655 28.4C25.9642 28.4 25.9629 28.4 25.9617 28.4C25.9604 28.4 25.9591 28.4 25.9578 28.4C25.9566 28.4 25.9553 28.4 25.954 28.4C25.9527 28.4 25.9515 28.4 25.9502 28.4C25.9489 28.4 25.9477 28.4 25.9464 28.4C25.9451 28.4 25.9438 28.4 25.9426 28.4C25.9413 28.4 25.94 28.4 25.9388 28.4C25.9375 28.4 25.9362 28.4 25.935 28.4C25.9337 28.4 25.9324 28.4 25.9312 28.4C25.9299 28.4 25.9286 28.4 25.9274 28.4C25.9261 28.4 25.9248 28.4 25.9236 28.4C25.9223 28.4 25.921 28.4 25.9198 28.4C25.9185 28.4 25.9173 28.4 25.916 28.4C25.9147 28.4 25.9135 28.4 25.9122 28.4C25.9109 28.4 25.9097 28.4 25.9084 28.4C25.9072 28.4 25.9059 28.4 25.9046 28.4C25.9034 28.4 25.9021 28.4 25.9009 28.4C25.8996 28.4 25.8984 28.4 25.8971 28.4C25.8958 28.4 25.8946 28.4 25.8933 28.4C25.8921 28.4 25.8908 28.4 25.8896 28.4C25.8883 28.4 25.887 28.4 25.8858 28.4C25.8845 28.4 25.8833 28.4 25.882 28.4C25.8808 28.4 25.8795 28.4 25.8783 28.4C25.877 28.4 25.8758 28.4 25.8745 28.4C25.8733 28.4 25.872 28.4 25.8708 28.4C25.8695 28.4 25.8683 28.4 25.867 28.4C25.8658 28.4 25.8645 28.4 25.8633 28.4C25.862 28.4 25.8608 28.4 25.8595 28.4C25.8583 28.4 25.857 28.4 25.8558 28.4C25.8545 28.4 25.8533 28.4 25.8521 28.4C25.8508 28.4 25.8496 28.4 25.8483 28.4C25.8471 28.4 25.8458 28.4 25.8446 28.4C25.8433 28.4 25.8421 28.4 25.8409 28.4C25.8396 28.4 25.8384 28.4 25.8371 28.4C25.8359 28.4 25.8347 28.4 25.8334 28.4C25.8322 28.4 25.8309 28.4 25.8297 28.4C25.8285 28.4 25.8272 28.4 25.826 28.4C25.8247 28.4 25.8235 28.4 25.8223 28.4C25.821 28.4 25.8198 28.4 25.8186 28.4C25.8173 28.4 25.8161 28.4 25.8149 28.4C25.8136 28.4 25.8124 28.4 25.8111 28.4C25.8099 28.4 25.8087 28.4 25.8074 28.4C25.8062 28.4 25.805 28.4 25.8038 28.4C25.8025 28.4 25.8013 28.4 25.8001 28.4C25.7988 28.4 25.7976 28.4 25.7964 28.4C25.7951 28.4 25.7939 28.4 25.7927 28.4C25.7914 28.4 25.7902 28.4 25.789 28.4C25.7878 28.4 25.7865 28.4 25.7853 28.4C25.7841 28.4 25.7829 28.4 25.7816 28.4C25.7804 28.4 25.7792 28.4 25.778 28.4C25.7767 28.4 25.7755 28.4 25.7743 28.4C25.7731 28.4 25.7718 28.4 25.7706 28.4C25.7694 28.4 25.7682 28.4 25.7669 28.4C25.7657 28.4 25.7645 28.4 25.7633 28.4C25.7621 28.4 25.7608 28.4 25.7596 28.4C25.7584 28.4 25.7572 28.4 25.756 28.4C25.7547 28.4 25.7535 28.4 25.7523 28.4C25.7511 28.4 25.7499 28.4 25.7487 28.4C25.7474 28.4 25.7462 28.4 25.745 28.4C25.7438 28.4 25.7426 28.4 25.7414 28.4C25.7402 28.4 25.7389 28.4 25.7377 28.4C25.7365 28.4 25.7353 28.4 25.7341 28.4C25.7329 28.4 25.7317 28.4 25.7304 28.4C25.7292 28.4 25.728 28.4 25.7268 28.4C25.7256 28.4 25.7244 28.4 25.7232 28.4C25.722 28.4 25.7208 28.4 25.7196 28.4C25.7183 28.4 25.7171 28.4 25.7159 28.4C25.7147 28.4 25.7135 28.4 25.7123 28.4C25.7111 28.4 25.7099 28.4 25.7087 28.4C25.7075 28.4 25.7063 28.4 25.7051 28.4C25.7039 28.4 25.7027 28.4 25.7015 28.4C25.7003 28.4 25.6991 28.4 25.6979 28.4C25.6967 28.4 25.6955 28.4 25.6943 28.4C25.6931 28.4 25.6919 28.4 25.6907 28.4C25.6895 28.4 25.6883 28.4 25.6871 28.4C25.6859 28.4 25.6847 28.4 25.6835 28.4C25.6823 28.4 25.6811 28.4 25.6799 28.4C25.6787 28.4 25.6775 28.4 25.6763 28.4C25.6751 28.4 25.6739 28.4 25.6727 28.4C25.6715 28.4 25.6703 28.4 25.6691 28.4C25.6679 28.4 25.6667 28.4 25.6655 28.4C25.6643 28.4 25.6631 28.4 25.6619 28.4C25.6607 28.4 25.6596 28.4 25.6584 28.4C25.6572 28.4 25.656 28.4 25.6548 28.4C25.6536 28.4 25.6524 28.4 25.6512 28.4C25.65 28.4 25.6488 28.4 25.6477 28.4C25.6465 28.4 25.6453 28.4 25.6441 28.4C25.6429 28.4 25.6417 28.4 25.6405 28.4C25.6393 28.4 25.6382 28.4 25.637 28.4C25.6358 28.4 25.6346 28.4 25.6334 28.4C25.6322 28.4 25.6311 28.4 25.6299 28.4C25.6287 28.4 25.6275 28.4 25.6263 28.4C25.6251 28.4 25.624 28.4 25.6228 28.4C25.6216 28.4 25.6204 28.4 25.6192 28.4C25.6181 28.4 25.6169 28.4 25.6157 28.4C25.6145 28.4 25.6133 28.4 25.6122 28.4C25.611 28.4 25.6098 28.4 25.6086 28.4C25.6075 28.4 25.6063 28.4 25.6051 28.4C25.6039 28.4 25.6028 28.4 25.6016 28.4C25.6004 28.4 25.5992 28.4 25.5981 28.4C25.5969 28.4 25.5957 28.4 25.5945 28.4C25.5934 28.4 25.5922 28.4 25.591 28.4C25.5898 28.4 25.5887 28.4 25.5875 28.4C25.5863 28.4 25.5852 28.4 25.584 28.4C25.5828 28.4 25.5817 28.4 25.5805 28.4C25.5793 28.4 25.5781 28.4 25.577 28.4C25.5758 28.4 25.5746 28.4 25.5735 28.4C25.5723 28.4 25.5711 28.4 25.57 28.4C25.5688 28.4 25.5676 28.4 25.5665 28.4C25.5653 28.4 25.5642 28.4 25.563 28.4C25.5618 28.4 25.5607 28.4 25.5595 28.4C25.5583 28.4 25.5572 28.4 25.556 28.4C25.5549 28.4 25.5537 28.4 25.5525 28.4C25.5514 28.4 25.5502 28.4 25.549 28.4C25.5479 28.4 25.5467 28.4 25.5456 28.4C25.5444 28.4 25.5433 28.4 25.5421 28.4C25.5409 28.4 25.5398 28.4 25.5386 28.4C25.5375 28.4 25.5363 28.4 25.5352 28.4C25.534 28.4 25.5328 28.4 25.5317 28.4C25.5305 28.4 25.5294 28.4 25.5282 28.4C25.5271 28.4 25.5259 28.4 25.5248 28.4C25.5236 28.4 25.5225 28.4 25.5213 28.4C25.5202 28.4 25.519 28.4 25.5179 28.4C25.5167 28.4 25.5156 28.4 25.5144 28.4C25.5133 28.4 25.5121 28.4 25.511 28.4C25.5098 28.4 25.5087 28.4 25.5075 28.4C25.5064 28.4 25.5052 28.4 25.5041 28.4C25.5029 28.4 25.5018 28.4 25.5006 28.4C25.4995 28.4 25.4984 28.4 25.4972 28.4C25.4961 28.4 25.4949 28.4 25.4938 28.4C25.4926 28.4 25.4915 28.4 25.4903 28.4C25.4892 28.4 25.4881 28.4 25.4869 28.4C25.4858 28.4 25.4846 28.4 25.4835 28.4C25.4824 28.4 25.4812 28.4 25.4801 28.4C25.4789 28.4 25.4778 28.4 25.4767 28.4C25.4755 28.4 25.4744 28.4 25.4732 28.4C25.4721 28.4 25.471 28.4 25.4698 28.4C25.4687 28.4 25.4676 28.4 25.4664 28.4C25.4653 28.4 25.4642 28.4 25.463 28.4C25.4619 28.4 25.4608 28.4 25.4596 28.4C25.4585 28.4 25.4574 28.4 25.4562 28.4C25.4551 28.4 25.454 28.4 25.4528 28.4C25.4517 28.4 25.4506 28.4 25.4494 28.4C25.4483 28.4 25.4472 28.4 25.4461 28.4C25.4449 28.4 25.4438 28.4 25.4427 28.4C25.4415 28.4 25.4404 28.4 25.4393 28.4C25.4382 28.4 25.437 28.4 25.4359 28.4C25.4348 28.4 25.4337 28.4 25.4325 28.4C25.4314 28.4 25.4303 28.4 25.4292 28.4C25.428 28.4 25.4269 28.4 25.4258 28.4C25.4247 28.4 25.4235 28.4 25.4224 28.4C25.4213 28.4 25.4202 28.4 25.4191 28.4C25.4179 28.4 25.4168 28.4 25.4157 28.4C25.4146 28.4 25.4134 28.4 25.4123 28.4C25.4112 28.4 25.4101 28.4 25.409 28.4C25.4079 28.4 25.4067 28.4 25.4056 28.4C25.4045 28.4 25.4034 28.4 25.4023 28.4C25.4012 28.4 25.4 28.4 25.3989 28.4C25.3978 28.4 25.3967 28.4 25.3956 28.4C25.3945 28.4 25.3934 28.4 25.3922 28.4C25.3911 28.4 25.39 28.4 25.3889 28.4C25.3878 28.4 25.3867 28.4 25.3856 28.4C25.3845 28.4 25.3834 28.4 25.3822 28.4C25.3811 28.4 25.38 28.4 25.3789 28.4C25.3778 28.4 25.3767 28.4 25.3756 28.4C25.3745 28.4 25.3734 28.4 25.3723 28.4C25.3712 28.4 25.3701 28.4 25.3689 28.4C25.3678 28.4 25.3667 28.4 25.3656 28.4C25.3645 28.4 25.3634 28.4 25.3623 28.4C25.3612 28.4 25.3601 28.4 25.359 28.4C25.3579 28.4 25.3568 28.4 25.3557 28.4C25.3546 28.4 25.3535 28.4 25.3524 28.4C25.3513 28.4 25.3502 28.4 25.3491 28.4C25.348 28.4 25.3469 28.4 25.3458 28.4C25.3447 28.4 25.3436 28.4 25.3425 28.4C25.3414 28.4 25.3403 28.4 25.3392 28.4C25.3381 28.4 25.337 28.4 25.3359 28.4C25.3348 28.4 25.3337 28.4 25.3326 28.4C25.3315 28.4 25.3305 28.4 25.3294 28.4C25.3283 28.4 25.3272 28.4 25.3261 28.4C25.325 28.4 25.3239 28.4 25.3228 28.4C25.3217 28.4 25.3206 28.4 25.3195 28.4C25.3184 28.4 25.3174 28.4 25.3163 28.4C25.3152 28.4 25.3141 28.4 25.313 28.4C25.3119 28.4 25.3108 28.4 25.3097 28.4C25.3086 28.4 25.3076 28.4 25.3065 28.4C25.3054 28.4 25.3043 28.4 25.3032 28.4C25.3021 28.4 25.301 28.4 25.3 28.4C25.2989 28.4 25.2978 28.4 25.2967 28.4C25.2956 28.4 25.2945 28.4 25.2935 28.4C25.2924 28.4 25.2913 28.4 25.2902 28.4C25.2891 28.4 25.2881 28.4 25.287 28.4C25.2859 28.4 25.2848 28.4 25.2837 28.4C25.2827 28.4 25.2816 28.4 25.2805 28.4C25.2794 28.4 25.2783 28.4 25.2773 28.4C25.2762 28.4 25.2751 28.4 25.274 28.4C25.273 28.4 25.2719 28.4 25.2708 28.4C25.2697 28.4 25.2687 28.4 25.2676 28.4C25.2665 28.4 25.2654 28.4 25.2644 28.4C25.2633 28.4 25.2622 28.4 25.2611 28.4C25.2601 28.4 25.259 28.4 25.2579 28.4C25.2569 28.4 25.2558 28.4 25.2547 28.4C25.2536 28.4 25.2526 28.4 25.2515 28.4C25.2504 28.4 25.2494 28.4 25.2483 28.4C25.2472 28.4 25.2462 28.4 25.2451 28.4C25.244 28.4 25.243 28.4 25.2419 28.4C25.2408 28.4 25.2398 28.4 25.2387 28.4C25.2376 28.4 25.2366 28.4 25.2355 28.4C25.2344 28.4 25.2334 28.4 25.2323 28.4C25.2313 28.4 25.2302 28.4 25.2291 28.4C25.2281 28.4 25.227 28.4 25.2259 28.4C25.2249 28.4 25.2238 28.4 25.2228 28.4C25.2217 28.4 25.2206 28.4 25.2196 28.4C25.2185 28.4 25.2175 28.4 25.2164 28.4C25.2154 28.4 25.2143 28.4 25.2132 28.4C25.2122 28.4 25.2111 28.4 25.2101 28.4C25.209 28.4 25.208 28.4 25.2069 28.4C25.2058 28.4 25.2048 28.4 25.2037 28.4C25.2027 28.4 25.2016 28.4 25.2006 28.4C25.1995 28.4 25.1985 28.4 25.1974 28.4C25.1964 28.4 25.1953 28.4 25.1943 28.4C25.1932 28.4 25.1922 28.4 25.1911 28.4C25.1901 28.4 25.189 28.4 25.188 28.4C25.1869 28.4 25.1859 28.4 25.1848 28.4C25.1838 28.4 25.1827 28.4 25.1817 28.4C25.1806 28.4 25.1796 28.4 25.1785 28.4C25.1775 28.4 25.1765 28.4 25.1754 28.4C25.1744 28.4 25.1733 28.4 25.1723 28.4C25.1712 28.4 25.1702 28.4 25.1691 28.4C25.1681 28.4 25.1671 28.4 25.166 28.4V29.4ZM27.166 29.4V30.4C29.7447 30.4 31.8497 29.8474 33.2514 28.5282L32.566 27.8L31.8807 27.0718C31.0156 27.8859 29.5206 28.4 27.166 28.4V29.4ZM32.566 27.8L33.2514 28.5282C34.6722 27.1909 35.266 25.1283 35.266 22.6H34.266H33.266C33.266 24.8717 32.7265 26.2757 31.8807 27.0718L32.566 27.8ZM34.266 22.6H35.266C35.266 20.4073 34.6389 18.5777 33.2514 17.2718L32.566 18L31.8807 18.7282C32.7598 19.5557 33.266 20.7927 33.266 22.6H34.266ZM32.566 18L33.2942 17.3146C31.9947 15.9339 30.2037 15.3 28.066 15.3V16.3V17.3C29.795 17.3 31.004 17.7995 31.8378 18.6854L32.566 18ZM28.066 16.3V15.3C25.7766 15.3 23.7734 16.0087 22.1124 17.4432L22.766 18.2L23.4196 18.9568C24.692 17.858 26.2221 17.3 28.066 17.3V16.3ZM22.766 18.2L22.1152 17.4407C20.3986 18.9121 19.5726 21.4954 19.3679 24.8389L20.366 24.9L21.3641 24.9611C21.5594 21.7713 22.3334 19.8879 23.4168 18.9593L22.766 18.2ZM20.366 24.9L20.6725 23.9481L2.97255 18.2481L2.66602 19.2L2.35948 20.1519L20.0595 25.8519L20.366 24.9ZM2.66602 19.2L3.65724 19.3322C4.16648 15.5129 5.5889 12.3776 7.90012 9.87904L7.16602 9.2L6.43192 8.52096C3.80979 11.3557 2.23222 14.8871 1.67479 19.0678L2.66602 19.2ZM7.16602 9.2L7.89102 9.88875C10.3084 7.34412 13.3409 5.39076 17.0117 4.03834L16.666 3.1L16.3203 2.16165C12.3912 3.60924 9.09028 5.72255 6.44102 8.51125L7.16602 9.2ZM16.666 3.1L17.0065 4.04026C20.7503 2.68473 24.9 2 29.466 2V0.999998V-1.66893e-06C24.6987 -1.66893e-06 20.3151 0.715266 16.3256 2.15973L16.666 3.1ZM29.466 0.999998V2C34.6464 2 38.9429 2.72222 42.3887 4.12609L42.766 3.2L43.1433 2.27391C39.3892 0.744446 34.8189 -1.66893e-06 29.466 -1.66893e-06V0.999998ZM42.766 3.2L42.3946 4.12848C45.9132 5.53591 48.5056 7.52402 50.2402 10.064L51.066 9.5L51.8918 8.93603C49.8931 6.0093 46.9522 3.79742 43.1374 2.27152L42.766 3.2ZM51.066 9.5L50.2496 10.0775C52.0437 12.6139 52.966 15.7363 52.966 19.5H53.966H54.966C54.966 15.397 53.955 11.8527 51.8824 8.92253L51.066 9.5ZM53.966 19.5H52.966C52.966 22.3974 52.4819 24.6926 51.5778 26.4406L52.466 26.9L53.3542 27.3594C54.4501 25.2407 54.966 22.6026 54.966 19.5H53.966ZM52.466 26.9L51.5655 26.4652C50.6889 28.281 49.5805 29.6841 48.2546 30.7087L48.866 31.5L49.4775 32.2913C51.0849 31.0492 52.3765 29.3856 53.3666 27.3347L52.466 26.9ZM48.866 31.5L48.2546 30.7087C46.8411 31.8009 45.5212 32.5809 44.2946 33.0715L44.666 34L45.0374 34.9285C46.4775 34.3525 47.9576 33.4657 49.4775 32.2913L48.866 31.5ZM44.666 34L44.3357 33.0561C43.0291 33.5134 42.1257 33.7 41.566 33.7V34.7V35.7C42.473 35.7 43.6363 35.4199 44.9964 34.9439L44.666 34ZM41.566 34.7H40.566V35.1H41.566H42.566V34.7H41.566ZM41.566 35.1V36.1C42.2525 36.1 43.2988 36.2466 44.7444 36.5751L44.966 35.6L45.1876 34.6249C43.6999 34.2868 42.4795 34.1 41.566 34.1V35.1ZM44.966 35.6L44.7536 36.5772C46.1639 36.8838 47.5942 37.4705 49.0461 38.3542L49.566 37.5L50.086 36.6458C48.4711 35.6629 46.8348 34.9829 45.1784 34.6228L44.966 35.6ZM49.566 37.5L49.0621 38.3638C50.4877 39.1953 51.704 40.4571 52.6978 42.1961L53.566 41.7L54.4343 41.2039C53.2947 39.2096 51.8444 37.6713 50.0699 36.6362L49.566 37.5ZM53.566 41.7L52.7198 42.2328C53.7195 43.8205 54.266 46.0146 54.266 48.9H55.266H56.266C56.266 45.7853 55.6792 43.1795 54.4123 41.1672L53.566 41.7ZM55.266 48.9H54.266C54.266 52.8383 53.1905 56.2257 51.0618 59.1056L51.866 59.7L52.6702 60.2944C55.0749 57.041 56.266 53.2283 56.266 48.9H55.266ZM51.866 59.7L51.0681 59.0972C48.9207 61.9394 46.0048 64.1362 42.2837 65.676L42.666 66.6L43.0484 67.524C47.0606 65.8638 50.278 63.4606 52.6639 60.3028L51.866 59.7ZM42.666 66.6L42.2837 65.676C38.5547 67.219 34.3539 68 29.666 68V69V70C34.5781 70 39.044 69.181 43.0484 67.524L42.666 66.6Z" fill="#14F6FE" mask="url(#path-1-outside-1_1520_1112)"/>
</svg>
