<svg width="299" height="91" viewBox="0 0 299 91" fill="none" xmlns="http://www.w3.org/2000/svg">
<rect x="1.46924" y="3.25" width="295.5" height="85.64" rx="42.82" fill="#080808"/>
<rect x="1.46924" y="3.25" width="295.5" height="85.64" rx="42.82" fill="url(#paint0_linear_20_216)" fill-opacity="0.4"/>
<rect x="1.46924" y="3.25" width="295.5" height="85.64" rx="42.82" stroke="#ED0EEB" stroke-width="2.5"/>
<rect x="2.25" y="1.25" width="294.5" height="85.5" rx="42.75" stroke="#14F6FE" stroke-width="2.5"/>
<path d="M59.021 42.748C58.8304 42.44 58.559 42.2053 58.207 42.044C57.855 41.868 57.4297 41.78 56.931 41.78C55.9924 41.78 55.2664 42.088 54.753 42.704C54.2397 43.3053 53.983 44.134 53.983 45.19C53.983 46.4073 54.269 47.3167 54.841 47.918C55.413 48.5193 56.293 48.82 57.481 48.82C58.6104 48.82 59.5197 48.3653 60.209 47.456H56.315V44.002H64.257V48.886C63.5824 50.0447 62.651 51.042 61.463 51.878C60.275 52.6993 58.7717 53.11 56.953 53.11C55.3397 53.11 53.9317 52.78 52.729 52.12C51.541 51.4453 50.6244 50.5067 49.979 49.304C49.3484 48.1013 49.033 46.73 49.033 45.19C49.033 43.65 49.3484 42.2787 49.979 41.076C50.6244 39.8733 51.541 38.942 52.729 38.282C53.917 37.6073 55.3104 37.27 56.909 37.27C58.9477 37.27 60.605 37.7613 61.881 38.744C63.1717 39.7267 63.9344 41.0613 64.169 42.748H59.021ZM76.4 41.318V43.232H81.24V46.906H76.4V49.106H81.9V53H71.516V37.424H81.9V41.318H76.4ZM101.473 37.424V41.296H97.3366V53H92.4526V41.296H88.3606V37.424H101.473ZM123.63 53.154C121.767 53.154 120.227 52.7213 119.01 51.856C117.807 50.976 117.154 49.6927 117.052 48.006H122.244C122.317 48.9007 122.713 49.348 123.432 49.348C123.696 49.348 123.916 49.2893 124.092 49.172C124.282 49.04 124.378 48.842 124.378 48.578C124.378 48.2113 124.18 47.918 123.784 47.698C123.388 47.4633 122.772 47.1993 121.936 46.906C120.938 46.554 120.11 46.2093 119.45 45.872C118.804 45.5347 118.247 45.0433 117.778 44.398C117.308 43.7527 117.081 42.924 117.096 41.912C117.096 40.9 117.352 40.042 117.866 39.338C118.394 38.6193 119.105 38.0767 120 37.71C120.909 37.3433 121.928 37.16 123.058 37.16C124.964 37.16 126.475 37.6 127.59 38.48C128.719 39.36 129.313 40.5993 129.372 42.198H124.114C124.099 41.758 123.989 41.4427 123.784 41.252C123.578 41.0613 123.329 40.966 123.036 40.966C122.83 40.966 122.662 41.0393 122.53 41.186C122.398 41.318 122.332 41.5087 122.332 41.758C122.332 42.11 122.522 42.4033 122.904 42.638C123.3 42.858 123.923 43.1293 124.774 43.452C125.756 43.8187 126.563 44.1707 127.194 44.508C127.839 44.8453 128.396 45.3147 128.866 45.916C129.335 46.5173 129.57 47.2727 129.57 48.182C129.57 49.1353 129.335 49.9933 128.866 50.756C128.396 51.504 127.714 52.0907 126.82 52.516C125.925 52.9413 124.862 53.154 123.63 53.154ZM149.018 37.424V41.296H144.882V53H139.998V41.296H135.906V37.424H149.018ZM165.83 50.646H160.638L159.868 53H154.742L160.44 37.424H166.072L171.748 53H166.6L165.83 50.646ZM164.642 46.972L163.234 42.638L161.826 46.972H164.642ZM186.19 53L183.264 47.412H183.242V53H178.358V37.424H185.618C186.879 37.424 187.957 37.6513 188.852 38.106C189.746 38.546 190.414 39.1547 190.854 39.932C191.308 40.6947 191.536 41.56 191.536 42.528C191.536 43.5693 191.242 44.4933 190.656 45.3C190.084 46.1067 189.255 46.686 188.17 47.038L191.558 53H186.19ZM183.242 44.156H185.178C185.647 44.156 185.999 44.0533 186.234 43.848C186.468 43.628 186.586 43.2907 186.586 42.836C186.586 42.4253 186.461 42.1027 186.212 41.868C185.977 41.6333 185.632 41.516 185.178 41.516H183.242V44.156ZM210.828 37.424V41.296H206.692V53H201.808V41.296H197.716V37.424H210.828ZM222.537 41.318V43.232H227.377V46.906H222.537V49.106H228.037V53H217.653V37.424H228.037V41.318H222.537ZM241.867 37.424C243.495 37.424 244.918 37.754 246.135 38.414C247.367 39.074 248.313 39.9907 248.973 41.164C249.633 42.3373 249.963 43.672 249.963 45.168C249.963 46.6493 249.633 47.984 248.973 49.172C248.313 50.36 247.367 51.2987 246.135 51.988C244.918 52.6627 243.495 53 241.867 53H235.377V37.424H241.867ZM241.427 48.644C242.527 48.644 243.4 48.3433 244.045 47.742C244.691 47.1407 245.013 46.2827 245.013 45.168C245.013 44.0533 244.691 43.1953 244.045 42.594C243.4 41.9927 242.527 41.692 241.427 41.692H240.261V48.644H241.427Z" fill="white"/>
<defs>
<linearGradient id="paint0_linear_20_216" x1="149.219" y1="90.14" x2="149.219" y2="2" gradientUnits="userSpaceOnUse">
<stop stop-color="#ED0EEB"/>
<stop offset="1" stop-color="#14F6FE"/>
</linearGradient>
</defs>
</svg>
