<svg width="85" height="62" viewBox="0 0 85 62" fill="none" xmlns="http://www.w3.org/2000/svg">
<mask id="mask0_226_29" style="mask-type:luminance" maskUnits="userSpaceOnUse" x="0" y="0" width="82" height="60">
<path d="M82 0H0V60H82V0Z" fill="white"/>
<path d="M20.1025 58.2417C15.8359 58.2417 12.2625 57.2284 9.3825 55.2017C6.5025 53.175 4.36916 50.5617 2.9825 47.3617C1.7025 44.1617 1.0625 40.7484 1.0625 37.1217C1.0625 31.7884 2.23583 26.775 4.5825 22.0817C7.03583 17.2817 10.0759 13.1217 13.7025 9.60172C17.3292 6.08172 21.0625 3.46842 24.9025 1.76172L37.5425 10.7217C34.6625 12.0017 31.8892 13.5484 29.2225 15.3617C26.5559 17.175 24.1559 19.1484 22.0225 21.2817C19.9959 23.415 18.4492 25.6017 17.3825 27.8417L18.0225 28.3217C18.8759 27.895 19.7292 27.575 20.5825 27.3617C21.4359 27.1484 22.5559 27.0417 23.9425 27.0417C26.0759 27.0417 28.2092 27.575 30.3425 28.6417C32.5825 29.6017 34.4492 31.1484 35.9425 33.2817C37.4359 35.3084 38.1825 37.975 38.1825 41.2817C38.1825 45.015 37.3292 48.1617 35.6225 50.7217C33.9159 53.2817 31.6759 55.2017 28.9025 56.4817C26.2359 57.655 23.3025 58.2417 20.1025 58.2417ZM62.6625 58.2417C58.2892 58.2417 54.6625 57.2284 51.7825 55.2017C48.9025 53.175 46.7692 50.5617 45.3825 47.3617C44.1025 44.1617 43.4625 40.7484 43.4625 37.1217C43.4625 31.7884 44.6359 26.775 46.9825 22.0817C49.4359 17.2817 52.4759 13.1217 56.1025 9.60172C59.7292 6.08172 63.5159 3.46842 67.4625 1.76172L79.9425 10.7217C77.0625 12.0017 74.2892 13.5484 71.6225 15.3617C68.9559 17.175 66.5559 19.1484 64.4225 21.2817C62.3959 23.415 60.8492 25.6017 59.7825 27.8417L60.5825 28.3217C61.3292 27.895 62.1292 27.575 62.9825 27.3617C63.8359 27.1484 65.0092 27.0417 66.5025 27.0417C68.6359 27.0417 70.7692 27.575 72.9025 28.6417C75.0359 29.6017 76.8492 31.1484 78.3425 33.2817C79.8359 35.3084 80.5825 37.975 80.5825 41.2817C80.5825 45.015 79.7292 48.1617 78.0225 50.7217C76.3159 53.2817 74.0759 55.2017 71.3025 56.4817C68.6359 57.655 65.7559 58.2417 62.6625 58.2417Z" fill="black"/>
</mask>
<g mask="url(#mask0_226_29)">
<path d="M2.9825 47.3583L2.05402 47.7297L2.05929 47.7429L2.06494 47.7559L2.9825 47.3583ZM4.5825 22.0783L3.69203 21.6232L3.68807 21.6311L4.5825 22.0783ZM24.9025 1.75828L25.4808 0.942478L25.0165 0.613281L24.4964 0.844479L24.9025 1.75828ZM37.5425 10.7183L37.9487 11.6321L39.5542 10.9185L38.1208 9.90248L37.5425 10.7183ZM22.0225 21.2783L21.3154 20.5712L21.3064 20.5803L21.2975 20.5895L22.0225 21.2783ZM17.3825 27.8383L16.4797 27.4084L16.1278 28.1473L16.7825 28.6383L17.3825 27.8383ZM18.0225 28.3183L17.4225 29.1183L17.917 29.4891L18.4697 29.2127L18.0225 28.3183ZM30.3425 28.6383L29.8953 29.5327L29.9216 29.5459L29.9486 29.5574L30.3425 28.6383ZM35.9425 33.2783L35.1233 33.8518L35.1303 33.8617L35.1375 33.8715L35.9425 33.2783ZM28.9025 56.4783L29.3053 57.3936L29.3135 57.39L29.3216 57.3863L28.9025 56.4783ZM45.3825 47.3583L44.454 47.7297L44.4593 47.7429L44.465 47.7559L45.3825 47.3583ZM46.9825 22.0783L46.0921 21.6232L46.0881 21.6311L46.9825 22.0783ZM67.4625 1.75828L68.0457 0.94598L67.5856 0.615578L67.0656 0.840378L67.4625 1.75828ZM79.9425 10.7183L80.3487 11.6321L81.943 10.9235L80.5257 9.90598L79.9425 10.7183ZM64.4225 21.2783L63.7154 20.5712L63.7064 20.5803L63.6975 20.5895L64.4225 21.2783ZM59.7825 27.8383L58.8797 27.4084L58.4891 28.2285L59.268 28.6958L59.7825 27.8383ZM60.5825 28.3183L60.068 29.1758L60.5702 29.4771L61.0787 29.1865L60.5825 28.3183ZM72.9025 28.6383L72.4553 29.5327L72.4736 29.5418L72.4922 29.5502L72.9025 28.6383ZM78.3425 33.2783L77.5233 33.8518L77.5303 33.8617L77.5375 33.8715L78.3425 33.2783ZM71.3025 56.4783L71.7053 57.3936L71.7135 57.39L71.7216 57.3863L71.3025 56.4783ZM20.1025 57.2383C15.9975 57.2383 12.6366 56.2654 9.95799 54.3805L8.807 56.0161C11.8885 58.1845 15.6742 59.2383 20.1025 59.2383V57.2383ZM9.95799 54.3805C7.22695 52.4587 5.21279 49.9901 3.90005 46.9607L2.06494 47.7559C3.52555 51.1265 5.77804 53.8846 8.807 56.0161L9.95799 54.3805ZM3.91097 46.9869C2.68067 43.9111 2.06251 40.6245 2.06251 37.1183H0.0625C0.0625 40.8654 0.724333 44.4055 2.05402 47.7297L3.91097 46.9869ZM2.06251 37.1183C2.06251 31.9376 3.20085 27.0776 5.47692 22.5255L3.68807 21.6311C1.2708 26.4656 0.0625 31.6324 0.0625 37.1183H2.06251ZM5.47293 22.5334C7.87975 17.8244 10.856 13.7547 14.399 10.3159L13.0061 8.88068C9.29568 12.4819 6.19188 16.7322 3.69203 21.6232L5.47293 22.5334ZM14.399 10.3159C17.9578 6.86168 21.5956 4.32238 25.3087 2.67208L24.4964 0.844479C20.5295 2.60758 16.7005 5.29488 13.0061 8.88068L14.399 10.3159ZM24.3242 2.57408L36.9642 11.5341L38.1208 9.90248L25.4808 0.942478L24.3242 2.57408ZM37.1364 9.80448C34.2006 11.1093 31.3751 12.6852 28.6602 14.5314L29.7848 16.1852C32.4033 14.4047 35.1245 12.8873 37.9487 11.6321L37.1364 9.80448ZM28.6602 14.5314C25.9452 16.3776 23.4961 18.3905 21.3154 20.5712L22.7296 21.9854C24.8156 19.8994 27.1666 17.9657 29.7848 16.1852L28.6602 14.5314ZM21.2975 20.5895C19.2114 22.7854 17.5991 25.0575 16.4797 27.4084L18.2854 28.2682C19.2992 26.1391 20.7803 24.0378 22.7475 21.967L21.2975 20.5895ZM16.7825 28.6383L17.4225 29.1183L18.6225 27.5183L17.9825 27.0383L16.7825 28.6383ZM18.4697 29.2127C19.2633 28.816 20.0482 28.5227 20.8251 28.3284L20.34 26.3881C19.4102 26.6205 18.4884 26.9673 17.5753 27.4239L18.4697 29.2127ZM20.8251 28.3284C21.5672 28.1429 22.5965 28.0383 23.9425 28.0383V26.0383C22.5152 26.0383 21.3045 26.147 20.34 26.3881L20.8251 28.3284ZM23.9425 28.0383C25.9031 28.0383 27.8843 28.5272 29.8953 29.5327L30.7897 27.7439C28.5341 26.6161 26.2486 26.0383 23.9425 26.0383V28.0383ZM29.9486 29.5574C32.0056 30.439 33.7291 31.8601 35.1233 33.8518L36.7618 32.7048C35.1692 30.4298 33.1595 28.7576 30.7364 27.7192L29.9486 29.5574ZM35.1375 33.8715C36.4696 35.6794 37.1825 38.1184 37.1825 41.2783H39.1825C39.1825 37.8248 38.4021 34.9305 36.7476 32.6851L35.1375 33.8715ZM37.1825 41.2783C37.1825 44.8568 36.3662 47.8001 34.7905 50.1636L36.4546 51.273C38.2922 48.5165 39.1825 45.1664 39.1825 41.2783H37.1825ZM34.7905 50.1636C33.1854 52.5712 31.0879 54.3683 28.4835 55.5703L29.3216 57.3863C32.2638 56.0283 34.6463 53.9854 36.4546 51.273L34.7905 50.1636ZM28.4998 55.563C25.972 56.6752 23.1776 57.2383 20.1025 57.2383V59.2383C23.4274 59.2383 26.4997 58.6281 29.3053 57.3936L28.4998 55.563ZM62.6625 57.2383C58.4449 57.2383 55.0326 56.2626 52.358 54.3805L51.207 56.0161C54.2925 58.1873 58.1335 59.2383 62.6625 59.2383V57.2383ZM52.358 54.3805C49.627 52.4587 47.6128 49.9901 46.3001 46.9607L44.465 47.7559C45.9256 51.1265 48.1781 53.8846 51.207 56.0161L52.358 54.3805ZM46.311 46.9869C45.0807 43.9111 44.4625 40.6245 44.4625 37.1183H42.4625C42.4625 40.8654 43.1244 44.4055 44.454 47.7297L46.311 46.9869ZM44.4625 37.1183C44.4625 31.9376 45.6009 27.0776 47.877 22.5255L46.0881 21.6311C43.6708 26.4656 42.4625 31.6324 42.4625 37.1183H44.4625ZM47.873 22.5334C50.2798 17.8244 53.256 13.7547 56.799 10.3159L55.4061 8.88068C51.6957 12.4819 48.5919 16.7322 46.0921 21.6232L47.873 22.5334ZM56.799 10.3159C60.3537 6.86568 64.0416 4.32708 67.8594 2.67618L67.0656 0.840378C62.9902 2.60278 59.1047 5.29088 55.4061 8.88068L56.799 10.3159ZM66.8793 2.57058L79.3593 11.5306L80.5257 9.90598L68.0457 0.94598L66.8793 2.57058ZM79.5364 9.80448C76.6006 11.1093 73.7751 12.6852 71.0602 14.5314L72.1848 16.1852C74.8033 14.4047 77.5245 12.8873 80.3487 11.6321L79.5364 9.80448ZM71.0602 14.5314C68.3452 16.3776 65.8961 18.3905 63.7154 20.5712L65.1296 21.9854C67.2156 19.8994 69.5666 17.9657 72.1848 16.1852L71.0602 14.5314ZM63.6975 20.5895C61.6114 22.7854 59.9991 25.0575 58.8797 27.4084L60.6854 28.2682C61.6993 26.1391 63.1803 24.0378 65.1475 21.967L63.6975 20.5895ZM59.268 28.6958L60.068 29.1758L61.097 27.4608L60.297 26.9808L59.268 28.6958ZM61.0787 29.1865C61.7441 28.8063 62.4585 28.5201 63.2251 28.3284L62.74 26.3881C61.7999 26.6231 60.9143 26.9769 60.0864 27.4501L61.0787 29.1865ZM63.2251 28.3284C63.963 28.144 65.0427 28.0383 66.5025 28.0383V26.0383C64.9757 26.0383 63.7088 26.146 62.74 26.3881L63.2251 28.3284ZM66.5025 28.0383C68.4631 28.0383 70.4443 28.5272 72.4553 29.5327L73.3497 27.7439C71.0941 26.6161 68.8086 26.0383 66.5025 26.0383V28.0383ZM72.4922 29.5502C74.4431 30.4281 76.1213 31.8489 77.5233 33.8518L79.1618 32.7048C77.5771 30.4411 75.6286 28.7684 73.3129 27.7264L72.4922 29.5502ZM77.5375 33.8715C78.8696 35.6794 79.5825 38.1184 79.5825 41.2783H81.5825C81.5825 37.8248 80.8021 34.9305 79.1476 32.6851L77.5375 33.8715ZM79.5825 41.2783C79.5825 44.8568 78.7662 47.8001 77.1905 50.1636L78.8546 51.273C80.6922 48.5165 81.5825 45.1664 81.5825 41.2783H79.5825ZM77.1905 50.1636C75.5854 52.5712 73.4879 54.3683 70.8835 55.5703L71.7216 57.3863C74.6638 56.0283 77.0463 53.9854 78.8546 51.273L77.1905 50.1636ZM70.8998 55.563C68.3678 56.6771 65.6259 57.2383 62.6625 57.2383V59.2383C65.8858 59.2383 68.9039 58.6262 71.7053 57.3936L70.8998 55.563Z" fill="#14F6FE"/>
</g>
<mask id="mask1_226_29" style="mask-type:luminance" maskUnits="userSpaceOnUse" x="3" y="2" width="82" height="60">
<path d="M85 2H3V62H85V2Z" fill="white"/>
<path d="M23.1025 60.2417C18.8359 60.2417 15.2625 59.2284 12.3825 57.2017C9.5025 55.175 7.36916 52.5617 5.9825 49.3617C4.7025 46.1617 4.0625 42.7484 4.0625 39.1217C4.0625 33.7884 5.23583 28.775 7.5825 24.0817C10.0358 19.2817 13.0759 15.1217 16.7025 11.6017C20.3292 8.08172 24.0625 5.46842 27.9025 3.76172L40.5425 12.7217C37.6625 14.0017 34.8892 15.5484 32.2225 17.3617C29.5559 19.175 27.1559 21.1484 25.0225 23.2817C22.9959 25.415 21.4492 27.6017 20.3825 29.8417L21.0225 30.3217C21.8759 29.895 22.7292 29.575 23.5825 29.3617C24.4359 29.1484 25.5559 29.0417 26.9425 29.0417C29.0759 29.0417 31.2092 29.575 33.3425 30.6417C35.5825 31.6017 37.4492 33.1484 38.9425 35.2817C40.4359 37.3084 41.1825 39.975 41.1825 43.2817C41.1825 47.015 40.3292 50.1617 38.6225 52.7217C36.9159 55.2817 34.6759 57.2017 31.9025 58.4817C29.2359 59.655 26.3025 60.2417 23.1025 60.2417ZM65.6625 60.2417C61.2892 60.2417 57.6625 59.2284 54.7825 57.2017C51.9025 55.175 49.7692 52.5617 48.3825 49.3617C47.1025 46.1617 46.4625 42.7484 46.4625 39.1217C46.4625 33.7884 47.6359 28.775 49.9825 24.0817C52.4359 19.2817 55.4759 15.1217 59.1025 11.6017C62.7292 8.08172 66.5159 5.46842 70.4625 3.76172L82.9425 12.7217C80.0625 14.0017 77.2892 15.5484 74.6225 17.3617C71.9559 19.175 69.5559 21.1484 67.4225 23.2817C65.3959 25.415 63.8492 27.6017 62.7825 29.8417L63.5825 30.3217C64.3292 29.895 65.1292 29.575 65.9825 29.3617C66.8359 29.1484 68.0092 29.0417 69.5025 29.0417C71.6359 29.0417 73.7692 29.575 75.9025 30.6417C78.0359 31.6017 79.8492 33.1484 81.3425 35.2817C82.8359 37.3084 83.5825 39.975 83.5825 43.2817C83.5825 47.015 82.7292 50.1617 81.0225 52.7217C79.3159 55.2817 77.0759 57.2017 74.3025 58.4817C71.6359 59.655 68.7559 60.2417 65.6625 60.2417Z" fill="black"/>
</mask>
<g mask="url(#mask1_226_29)">
<path d="M5.9825 49.3583L5.05402 49.7297L5.05929 49.7429L5.06494 49.7559L5.9825 49.3583ZM7.5825 24.0783L6.69203 23.6232L6.68807 23.6311L7.5825 24.0783ZM27.9025 3.75828L28.4808 2.94248L28.0165 2.61328L27.4964 2.84448L27.9025 3.75828ZM40.5425 12.7183L40.9487 13.6321L42.5542 12.9185L41.1208 11.9025L40.5425 12.7183ZM25.0225 23.2783L24.3154 22.5712L24.3064 22.5803L24.2975 22.5895L25.0225 23.2783ZM20.3825 29.8383L19.4797 29.4084L19.1278 30.1473L19.7825 30.6383L20.3825 29.8383ZM21.0225 30.3183L20.4225 31.1183L20.917 31.4891L21.4697 31.2127L21.0225 30.3183ZM33.3425 30.6383L32.8953 31.5327L32.9216 31.5459L32.9486 31.5574L33.3425 30.6383ZM38.9425 35.2783L38.1233 35.8518L38.1303 35.8617L38.1375 35.8715L38.9425 35.2783ZM31.9025 58.4783L32.3053 59.3936L32.3135 59.39L32.3216 59.3863L31.9025 58.4783ZM48.3825 49.3583L47.454 49.7297L47.4593 49.7429L47.465 49.7559L48.3825 49.3583ZM49.9825 24.0783L49.0921 23.6232L49.0881 23.6311L49.9825 24.0783ZM70.4625 3.75828L71.0457 2.94598L70.5856 2.61558L70.0656 2.84038L70.4625 3.75828ZM82.9425 12.7183L83.3487 13.6321L84.943 12.9235L83.5257 11.906L82.9425 12.7183ZM67.4225 23.2783L66.7154 22.5712L66.7064 22.5803L66.6975 22.5895L67.4225 23.2783ZM62.7825 29.8383L61.8797 29.4084L61.4891 30.2285L62.268 30.6958L62.7825 29.8383ZM63.5825 30.3183L63.068 31.1758L63.5702 31.4771L64.0787 31.1865L63.5825 30.3183ZM75.9025 30.6383L75.4553 31.5327L75.4736 31.5418L75.4922 31.5502L75.9025 30.6383ZM81.3425 35.2783L80.5233 35.8518L80.5303 35.8617L80.5375 35.8715L81.3425 35.2783ZM74.3025 58.4783L74.7053 59.3936L74.7135 59.39L74.7216 59.3863L74.3025 58.4783ZM23.1025 59.2383C18.9975 59.2383 15.6366 58.2654 12.958 56.3805L11.807 58.0161C14.8885 60.1845 18.6742 61.2383 23.1025 61.2383V59.2383ZM12.958 56.3805C10.227 54.4587 8.21279 51.9901 6.90005 48.9607L5.06494 49.7559C6.52554 53.1265 8.77804 55.8846 11.807 58.0161L12.958 56.3805ZM6.91097 48.9869C5.68066 45.9111 5.0625 42.6245 5.0625 39.1183H3.0625C3.0625 42.8654 3.72433 46.4055 5.05402 49.7297L6.91097 48.9869ZM5.0625 39.1183C5.0625 33.9376 6.20085 29.0776 8.47692 24.5255L6.68807 23.6311C4.2708 28.4656 3.0625 33.6324 3.0625 39.1183H5.0625ZM8.47293 24.5334C10.8798 19.8244 13.856 15.7547 17.399 12.3159L16.0061 10.8807C12.2957 14.4819 9.19188 18.7322 6.69203 23.6232L8.47293 24.5334ZM17.399 12.3159C20.9578 8.86168 24.5956 6.32238 28.3087 4.67208L27.4964 2.84448C23.5295 4.60758 19.7005 7.29488 16.0061 10.8807L17.399 12.3159ZM27.3242 4.57408L39.9642 13.5341L41.1208 11.9025L28.4808 2.94248L27.3242 4.57408ZM40.1364 11.8045C37.2006 13.1093 34.3751 14.6852 31.6602 16.5314L32.7848 18.1852C35.4033 16.4047 38.1245 14.8873 40.9487 13.6321L40.1364 11.8045ZM31.6602 16.5314C28.9452 18.3776 26.4961 20.3905 24.3154 22.5712L25.7296 23.9854C27.8156 21.8994 30.1666 19.9657 32.7848 18.1852L31.6602 16.5314ZM24.2975 22.5895C22.2114 24.7854 20.5991 27.0575 19.4797 29.4084L21.2854 30.2682C22.2992 28.1391 23.7803 26.0378 25.7475 23.967L24.2975 22.5895ZM19.7825 30.6383L20.4225 31.1183L21.6225 29.5183L20.9825 29.0383L19.7825 30.6383ZM21.4697 31.2127C22.2633 30.816 23.0482 30.5227 23.8251 30.3284L23.34 28.3881C22.4102 28.6205 21.4884 28.9673 20.5753 29.4239L21.4697 31.2127ZM23.8251 30.3284C24.5672 30.1429 25.5965 30.0383 26.9425 30.0383V28.0383C25.5152 28.0383 24.3045 28.147 23.34 28.3881L23.8251 30.3284ZM26.9425 30.0383C28.9031 30.0383 30.8843 30.5272 32.8953 31.5327L33.7897 29.7439C31.5341 28.6161 29.2486 28.0383 26.9425 28.0383V30.0383ZM32.9486 31.5574C35.0056 32.439 36.7291 33.8601 38.1233 35.8518L39.7618 34.7048C38.1692 32.4298 36.1595 30.7576 33.7364 29.7192L32.9486 31.5574ZM38.1375 35.8715C39.4696 37.6794 40.1825 40.1184 40.1825 43.2783H42.1825C42.1825 39.8248 41.4021 36.9305 39.7476 34.6851L38.1375 35.8715ZM40.1825 43.2783C40.1825 46.8568 39.3662 49.8001 37.7905 52.1636L39.4546 53.273C41.2922 50.5165 42.1825 47.1664 42.1825 43.2783H40.1825ZM37.7905 52.1636C36.1854 54.5712 34.0879 56.3683 31.4835 57.5703L32.3216 59.3863C35.2638 58.0283 37.6463 55.9854 39.4546 53.273L37.7905 52.1636ZM31.4998 57.563C28.972 58.6752 26.1776 59.2383 23.1025 59.2383V61.2383C26.4274 61.2383 29.4997 60.6281 32.3053 59.3936L31.4998 57.563ZM65.6625 59.2383C61.4449 59.2383 58.0326 58.2626 55.358 56.3805L54.207 58.0161C57.2925 60.1873 61.1335 61.2383 65.6625 61.2383V59.2383ZM55.358 56.3805C52.627 54.4587 50.6128 51.9901 49.3001 48.9607L47.465 49.7559C48.9256 53.1265 51.1781 55.8846 54.207 58.0161L55.358 56.3805ZM49.311 48.9869C48.0807 45.9111 47.4625 42.6245 47.4625 39.1183H45.4625C45.4625 42.8654 46.1244 46.4055 47.454 49.7297L49.311 48.9869ZM47.4625 39.1183C47.4625 33.9376 48.6009 29.0776 50.877 24.5255L49.0881 23.6311C46.6708 28.4656 45.4625 33.6324 45.4625 39.1183H47.4625ZM50.873 24.5334C53.2798 19.8244 56.256 15.7547 59.799 12.3159L58.4061 10.8807C54.6957 14.4819 51.5919 18.7322 49.0921 23.6232L50.873 24.5334ZM59.799 12.3159C63.3537 8.86568 67.0416 6.32708 70.8594 4.67618L70.0656 2.84038C65.9902 4.60278 62.1047 7.29088 58.4061 10.8807L59.799 12.3159ZM69.8793 4.57058L82.3593 13.5306L83.5257 11.906L71.0457 2.94598L69.8793 4.57058ZM82.5364 11.8045C79.6006 13.1093 76.7751 14.6852 74.0602 16.5314L75.1848 18.1852C77.8033 16.4047 80.5245 14.8873 83.3487 13.6321L82.5364 11.8045ZM74.0602 16.5314C71.3452 18.3776 68.8961 20.3905 66.7154 22.5712L68.1296 23.9854C70.2156 21.8994 72.5666 19.9657 75.1848 18.1852L74.0602 16.5314ZM66.6975 22.5895C64.6114 24.7854 62.9991 27.0575 61.8797 29.4084L63.6854 30.2682C64.6993 28.1391 66.1803 26.0378 68.1475 23.967L66.6975 22.5895ZM62.268 30.6958L63.068 31.1758L64.097 29.4608L63.297 28.9808L62.268 30.6958ZM64.0787 31.1865C64.7441 30.8063 65.4585 30.5201 66.2251 30.3284L65.74 28.3881C64.7999 28.6231 63.9143 28.9769 63.0864 29.4501L64.0787 31.1865ZM66.2251 30.3284C66.963 30.144 68.0427 30.0383 69.5025 30.0383V28.0383C67.9757 28.0383 66.7088 28.146 65.74 28.3881L66.2251 30.3284ZM69.5025 30.0383C71.4631 30.0383 73.4443 30.5272 75.4553 31.5327L76.3497 29.7439C74.0941 28.6161 71.8086 28.0383 69.5025 28.0383V30.0383ZM75.4922 31.5502C77.4431 32.4281 79.1213 33.8489 80.5233 35.8518L82.1618 34.7048C80.5771 32.4411 78.6286 30.7684 76.3129 29.7264L75.4922 31.5502ZM80.5375 35.8715C81.8696 37.6794 82.5825 40.1184 82.5825 43.2783H84.5825C84.5825 39.8248 83.8021 36.9305 82.1476 34.6851L80.5375 35.8715ZM82.5825 43.2783C82.5825 46.8568 81.7662 49.8001 80.1905 52.1636L81.8546 53.273C83.6922 50.5165 84.5825 47.1664 84.5825 43.2783H82.5825ZM80.1905 52.1636C78.5854 54.5712 76.4879 56.3683 73.8835 57.5703L74.7216 59.3863C77.6638 58.0283 80.0463 55.9854 81.8546 53.273L80.1905 52.1636ZM73.8998 57.563C71.3678 58.6771 68.6259 59.2383 65.6625 59.2383V61.2383C68.8858 61.2383 71.9039 60.6262 74.7053 59.3936L73.8998 57.563Z" fill="#ED0EEB"/>
</g>
</svg>
