<svg width="180" height="312" viewBox="0 0 180 312" fill="none" xmlns="http://www.w3.org/2000/svg">
<mask id="path-1-outside-1_229_472" maskUnits="userSpaceOnUse" x="98" y="33" width="52" height="79" fill="black">
<rect fill="white" x="98" y="33" width="52" height="79"/>
<path d="M124.096 34.3C131.362 34.3 137.196 36.1667 141.596 39.9C145.996 43.6333 148.196 48.9667 148.196 55.9C148.196 61.9667 146.162 66.7667 142.096 70.3C138.096 73.8333 132.796 75.6667 126.196 75.8L125.696 83.1H108.396L107.796 63.2H114.996C119.529 63.2 122.996 62.7 125.396 61.7C127.796 60.6333 128.996 58.7667 128.996 56.1C128.996 54.3 128.496 52.9 127.496 51.9C126.562 50.8333 125.262 50.3 123.596 50.3C121.729 50.3 120.296 50.8667 119.296 52C118.362 53.0667 117.896 54.5333 117.896 56.4H99.3957C99.2624 52.3333 100.096 48.6333 101.896 45.3C103.762 41.9 106.562 39.2333 110.296 37.3C114.029 35.3 118.629 34.3 124.096 34.3ZM117.196 110.8C113.729 110.8 110.929 109.867 108.796 108C106.729 106.067 105.696 103.633 105.696 100.7C105.696 97.7667 106.729 95.3333 108.796 93.4C110.929 91.4667 113.729 90.5 117.196 90.5C120.596 90.5 123.329 91.4667 125.396 93.4C127.529 95.3333 128.596 97.7667 128.596 100.7C128.596 103.567 127.529 105.967 125.396 107.9C123.329 109.833 120.596 110.8 117.196 110.8Z"/>
</mask>
<path d="M124.096 34.3C131.362 34.3 137.196 36.1667 141.596 39.9C145.996 43.6333 148.196 48.9667 148.196 55.9C148.196 61.9667 146.162 66.7667 142.096 70.3C138.096 73.8333 132.796 75.6667 126.196 75.8L125.696 83.1H108.396L107.796 63.2H114.996C119.529 63.2 122.996 62.7 125.396 61.7C127.796 60.6333 128.996 58.7667 128.996 56.1C128.996 54.3 128.496 52.9 127.496 51.9C126.562 50.8333 125.262 50.3 123.596 50.3C121.729 50.3 120.296 50.8667 119.296 52C118.362 53.0667 117.896 54.5333 117.896 56.4H99.3957C99.2624 52.3333 100.096 48.6333 101.896 45.3C103.762 41.9 106.562 39.2333 110.296 37.3C114.029 35.3 118.629 34.3 124.096 34.3ZM117.196 110.8C113.729 110.8 110.929 109.867 108.796 108C106.729 106.067 105.696 103.633 105.696 100.7C105.696 97.7667 106.729 95.3333 108.796 93.4C110.929 91.4667 113.729 90.5 117.196 90.5C120.596 90.5 123.329 91.4667 125.396 93.4C127.529 95.3333 128.596 97.7667 128.596 100.7C128.596 103.567 127.529 105.967 125.396 107.9C123.329 109.833 120.596 110.8 117.196 110.8Z" fill="black"/>
<path d="M142.096 70.3L141.44 69.5451L141.434 69.5505L142.096 70.3ZM126.196 75.8L126.176 74.8002L125.261 74.8187L125.198 75.7317L126.196 75.8ZM125.696 83.1V84.1H126.63L126.693 83.1683L125.696 83.1ZM108.396 83.1L107.396 83.1301L107.425 84.1H108.396V83.1ZM107.796 63.2V62.2H106.765L106.796 63.2301L107.796 63.2ZM125.396 61.7L125.78 62.6231L125.791 62.6186L125.802 62.6138L125.396 61.7ZM127.496 51.9L126.743 52.5585L126.765 52.5836L126.789 52.6071L127.496 51.9ZM119.296 52L118.546 51.3384L118.543 51.3415L119.296 52ZM117.896 56.4V57.4H118.896V56.4H117.896ZM99.3957 56.4L98.3962 56.4328L98.428 57.4H99.3957V56.4ZM101.896 45.3L101.019 44.8187L101.016 44.8248L101.896 45.3ZM110.296 37.3L110.756 38.1881L110.768 38.1815L110.296 37.3ZM108.796 108L108.113 108.73L108.125 108.742L108.137 108.753L108.796 108ZM108.796 93.4L108.124 92.659L108.118 92.6643L108.113 92.6697L108.796 93.4ZM125.396 93.4L124.713 94.1303L124.718 94.1357L124.724 94.141L125.396 93.4ZM125.396 107.9L124.724 107.159L124.718 107.164L124.713 107.17L125.396 107.9ZM124.096 35.3C131.189 35.3 136.772 37.119 140.949 40.6625L142.243 39.1375C137.619 35.2144 131.536 33.3 124.096 33.3V35.3ZM140.949 40.6625C145.08 44.1674 147.196 49.1953 147.196 55.9H149.196C149.196 48.738 146.912 43.0992 142.243 39.1375L140.949 40.6625ZM147.196 55.9C147.196 61.7179 145.259 66.2269 141.44 69.5451L142.752 71.0549C147.066 67.3064 149.196 62.2155 149.196 55.9H147.196ZM141.434 69.5505C137.65 72.8925 132.597 74.6705 126.176 74.8002L126.216 76.7998C132.995 76.6628 138.541 74.7742 142.758 71.0495L141.434 69.5505ZM125.198 75.7317L124.698 83.0317L126.693 83.1683L127.193 75.8683L125.198 75.7317ZM125.696 82.1H108.396V84.1H125.696V82.1ZM109.395 83.0699L108.795 63.1699L106.796 63.2301L107.396 83.1301L109.395 83.0699ZM107.796 64.2H114.996V62.2H107.796V64.2ZM114.996 64.2C119.577 64.2 123.2 63.6983 125.78 62.6231L125.011 60.7769C122.792 61.7017 119.481 62.2 114.996 62.2V64.2ZM125.802 62.6138C127.147 62.016 128.213 61.1664 128.937 60.0408C129.66 58.9161 129.996 57.586 129.996 56.1H127.996C127.996 57.2807 127.732 58.2172 127.255 58.9592C126.778 59.7003 126.045 60.3173 124.99 60.7862L125.802 62.6138ZM129.996 56.1C129.996 54.1107 129.438 52.4281 128.203 51.1929L126.789 52.6071C127.553 53.3719 127.996 54.4893 127.996 56.1H129.996ZM128.248 51.2415C127.091 49.9191 125.495 49.3 123.596 49.3V51.3C125.03 51.3 126.034 51.7476 126.743 52.5585L128.248 51.2415ZM123.596 49.3C121.515 49.3 119.779 49.9406 118.546 51.3384L120.046 52.6616C120.812 51.7927 121.943 51.3 123.596 51.3V49.3ZM118.543 51.3415C117.405 52.6417 116.896 54.3692 116.896 56.4H118.896C118.896 54.6974 119.319 53.4916 120.048 52.6585L118.543 51.3415ZM117.896 55.4H99.3957V57.4H117.896V55.4ZM100.395 56.3672C100.267 52.4639 101.066 48.9412 102.776 45.7751L101.016 44.8248C99.1255 48.3254 98.2576 52.2028 98.3962 56.4328L100.395 56.3672ZM102.772 45.7813C104.535 42.5698 107.183 40.0381 110.756 38.188L109.836 36.412C105.942 38.4286 102.989 41.2302 101.019 44.8187L102.772 45.7813ZM110.768 38.1815C114.32 36.2786 118.747 35.3 124.096 35.3V33.3C118.511 33.3 113.738 34.3214 109.823 36.4185L110.768 38.1815ZM117.196 109.8C113.915 109.8 111.367 108.921 109.454 107.247L108.137 108.753C110.491 110.812 113.543 111.8 117.196 111.8V109.8ZM109.479 107.27C107.623 105.533 106.696 103.368 106.696 100.7H104.696C104.696 103.899 105.836 106.6 108.113 108.73L109.479 107.27ZM106.696 100.7C106.696 98.032 107.623 95.8669 109.479 94.1303L108.113 92.6697C105.836 94.7998 104.696 97.5013 104.696 100.7H106.696ZM109.467 94.141C111.381 92.407 113.924 91.5 117.196 91.5V89.5C113.534 89.5 110.478 90.5263 108.124 92.659L109.467 94.141ZM117.196 91.5C120.396 91.5 122.867 92.404 124.713 94.1303L126.079 92.6697C123.791 90.5293 120.795 89.5 117.196 89.5V91.5ZM124.724 94.141C126.644 95.8807 127.596 98.0429 127.596 100.7H129.596C129.596 97.4904 128.414 94.7859 126.067 92.659L124.724 94.141ZM127.596 100.7C127.596 103.283 126.649 105.414 124.724 107.159L126.067 108.641C128.409 106.519 129.596 103.85 129.596 100.7H127.596ZM124.713 107.17C122.867 108.896 120.396 109.8 117.196 109.8V111.8C120.795 111.8 123.791 110.771 126.079 108.63L124.713 107.17Z" fill="#242424" mask="url(#path-1-outside-1_229_472)"/>
<mask id="path-3-outside-2_229_472" maskUnits="userSpaceOnUse" x="94" y="132" width="86" height="133" fill="black">
<rect fill="white" x="94" y="132" width="86" height="133"/>
<path d="M137.163 133.31C149.516 133.31 159.433 136.483 166.913 142.83C174.393 149.177 178.133 158.243 178.133 170.03C178.133 180.343 174.676 188.503 167.763 194.51C160.963 200.517 151.953 203.633 140.733 203.86L139.883 216.27H110.473L109.453 182.44H121.693C129.399 182.44 135.293 181.59 139.373 179.89C143.453 178.077 145.493 174.903 145.493 170.37C145.493 167.31 144.643 164.93 142.943 163.23C141.356 161.417 139.146 160.51 136.313 160.51C133.139 160.51 130.703 161.473 129.003 163.4C127.416 165.213 126.623 167.707 126.623 170.88H95.1727C94.946 163.967 96.3627 157.677 99.4227 152.01C102.596 146.23 107.356 141.697 113.703 138.41C120.049 135.01 127.869 133.31 137.163 133.31ZM125.433 263.36C119.539 263.36 114.779 261.773 111.153 258.6C107.639 255.313 105.883 251.177 105.883 246.19C105.883 241.203 107.639 237.067 111.153 233.78C114.779 230.493 119.539 228.85 125.433 228.85C131.213 228.85 135.859 230.493 139.373 233.78C142.999 237.067 144.813 241.203 144.813 246.19C144.813 251.063 142.999 255.143 139.373 258.43C135.859 261.717 131.213 263.36 125.433 263.36Z"/>
</mask>
<path d="M137.163 133.31C149.516 133.31 159.433 136.483 166.913 142.83C174.393 149.177 178.133 158.243 178.133 170.03C178.133 180.343 174.676 188.503 167.763 194.51C160.963 200.517 151.953 203.633 140.733 203.86L139.883 216.27H110.473L109.453 182.44H121.693C129.399 182.44 135.293 181.59 139.373 179.89C143.453 178.077 145.493 174.903 145.493 170.37C145.493 167.31 144.643 164.93 142.943 163.23C141.356 161.417 139.146 160.51 136.313 160.51C133.139 160.51 130.703 161.473 129.003 163.4C127.416 165.213 126.623 167.707 126.623 170.88H95.1727C94.946 163.967 96.3627 157.677 99.4227 152.01C102.596 146.23 107.356 141.697 113.703 138.41C120.049 135.01 127.869 133.31 137.163 133.31ZM125.433 263.36C119.539 263.36 114.779 261.773 111.153 258.6C107.639 255.313 105.883 251.177 105.883 246.19C105.883 241.203 107.639 237.067 111.153 233.78C114.779 230.493 119.539 228.85 125.433 228.85C131.213 228.85 135.859 230.493 139.373 233.78C142.999 237.067 144.813 241.203 144.813 246.19C144.813 251.063 142.999 255.143 139.373 258.43C135.859 261.717 131.213 263.36 125.433 263.36Z" fill="black"/>
<path d="M167.763 194.51L167.107 193.755L167.101 193.761L167.763 194.51ZM140.733 203.86L140.712 202.86L139.798 202.879L139.735 203.792L140.733 203.86ZM139.883 216.27V217.27H140.817L140.88 216.338L139.883 216.27ZM110.473 216.27L109.473 216.3L109.502 217.27H110.473V216.27ZM109.453 182.44V181.44H108.422L108.453 182.47L109.453 182.44ZM139.373 179.89L139.757 180.813L139.768 180.809L139.779 180.804L139.373 179.89ZM142.943 163.23L142.19 163.889L142.212 163.914L142.236 163.937L142.943 163.23ZM129.003 163.4L128.253 162.738L128.25 162.741L129.003 163.4ZM126.623 170.88V171.88H127.623V170.88H126.623ZM95.1727 170.88L94.1732 170.913L94.2049 171.88H95.1727V170.88ZM99.4227 152.01L98.5461 151.529L98.5428 151.535L99.4227 152.01ZM113.703 138.41L114.163 139.298L114.175 139.291L113.703 138.41ZM111.153 258.6L110.47 259.33L110.482 259.342L110.494 259.353L111.153 258.6ZM111.153 233.78L110.481 233.039L110.475 233.044L110.47 233.05L111.153 233.78ZM139.373 233.78L138.69 234.51L138.695 234.516L138.701 234.521L139.373 233.78ZM139.373 258.43L138.701 257.689L138.695 257.694L138.69 257.7L139.373 258.43ZM137.163 134.31C149.342 134.31 159.009 137.436 166.266 143.593L167.56 142.067C159.856 135.531 149.69 132.31 137.163 132.31V134.31ZM166.266 143.593C173.477 149.711 177.133 158.472 177.133 170.03H179.133C179.133 158.015 175.309 148.643 167.56 142.067L166.266 143.593ZM177.133 170.03C177.133 180.095 173.773 187.964 167.107 193.755L168.419 195.265C175.58 189.043 179.133 180.592 179.133 170.03H177.133ZM167.101 193.761C160.517 199.576 151.754 202.637 140.712 202.86L140.753 204.86C152.152 204.63 161.408 201.458 168.425 195.259L167.101 193.761ZM139.735 203.792L138.885 216.202L140.88 216.338L141.73 203.928L139.735 203.792ZM139.883 215.27H110.473V217.27H139.883V215.27ZM111.472 216.24L110.452 182.41L108.453 182.47L109.473 216.3L111.472 216.24ZM109.453 183.44H121.693V181.44H109.453V183.44ZM121.693 183.44C129.448 183.44 135.497 182.588 139.757 180.813L138.988 178.967C135.089 180.592 129.351 181.44 121.693 181.44V183.44ZM139.779 180.804C141.964 179.833 143.66 178.47 144.804 176.691C145.947 174.913 146.493 172.789 146.493 170.37H144.493C144.493 172.484 144.019 174.214 143.122 175.609C142.225 177.004 140.862 178.134 138.967 178.976L139.779 180.804ZM146.493 170.37C146.493 167.121 145.585 164.458 143.65 162.523L142.236 163.937C143.7 165.402 144.493 167.499 144.493 170.37H146.493ZM143.695 162.571C141.885 160.502 139.379 159.51 136.313 159.51V161.51C138.914 161.51 140.827 162.331 142.19 163.889L143.695 162.571ZM136.313 159.51C132.925 159.51 130.186 160.547 128.253 162.738L129.753 164.062C131.219 162.399 133.353 161.51 136.313 161.51V159.51ZM128.25 162.741C126.459 164.788 125.623 167.543 125.623 170.88H127.623C127.623 167.871 128.373 165.638 129.755 164.058L128.25 162.741ZM126.623 169.88H95.1727V171.88H126.623V169.88ZM96.1722 170.847C95.9508 164.097 97.3329 157.985 100.303 152.485L98.5428 151.535C95.3925 157.369 93.9412 163.836 94.1732 170.913L96.1722 170.847ZM100.299 152.491C103.369 146.9 107.977 142.501 114.163 139.298L113.243 137.522C106.735 140.892 101.823 145.56 98.5461 151.529L100.299 152.491ZM114.175 139.291C120.34 135.989 127.988 134.31 137.163 134.31V132.31C127.751 132.31 119.759 134.031 113.23 137.529L114.175 139.291ZM125.433 262.36C119.725 262.36 115.217 260.828 111.811 257.847L110.494 259.353C114.341 262.719 119.353 264.36 125.433 264.36V262.36ZM111.836 257.87C108.533 254.78 106.883 250.911 106.883 246.19H104.883C104.883 251.442 106.746 255.847 110.47 259.33L111.836 257.87ZM106.883 246.19C106.883 241.469 108.533 237.6 111.836 234.51L110.47 233.05C106.746 236.533 104.883 240.938 104.883 246.19H106.883ZM111.824 234.521C115.231 231.434 119.734 229.85 125.433 229.85V227.85C119.345 227.85 114.328 229.553 110.481 233.039L111.824 234.521ZM125.433 229.85C131.013 229.85 135.398 231.431 138.69 234.51L140.056 233.05C136.321 229.556 131.412 227.85 125.433 227.85V229.85ZM138.701 234.521C142.114 237.614 143.813 241.48 143.813 246.19H145.813C145.813 240.927 143.885 236.519 140.044 233.039L138.701 234.521ZM143.813 246.19C143.813 250.78 142.12 254.591 138.701 257.689L140.044 259.171C143.879 255.696 145.813 251.347 145.813 246.19H143.813ZM138.69 257.7C135.398 260.779 131.013 262.36 125.433 262.36V264.36C131.412 264.36 136.321 262.654 140.056 259.16L138.69 257.7Z" fill="#242424" mask="url(#path-3-outside-2_229_472)"/>
<mask id="path-5-outside-3_229_472" maskUnits="userSpaceOnUse" x="0" y="72" width="86" height="133" fill="black">
<rect fill="white" y="72" width="86" height="133"/>
<path d="M43.1627 73.31C55.516 73.31 65.4327 76.4833 72.9127 82.83C80.3927 89.1767 84.1327 98.2433 84.1327 110.03C84.1327 120.343 80.676 128.503 73.7627 134.51C66.9627 140.517 57.9527 143.633 46.7327 143.86L45.8827 156.27H16.4727L15.4527 122.44H27.6927C35.3994 122.44 41.2927 121.59 45.3727 119.89C49.4527 118.077 51.4927 114.903 51.4927 110.37C51.4927 107.31 50.6427 104.93 48.9427 103.23C47.356 101.417 45.146 100.51 42.3127 100.51C39.1394 100.51 36.7027 101.473 35.0027 103.4C33.416 105.213 32.6227 107.707 32.6227 110.88H1.1727C0.946029 103.967 2.3627 97.6767 5.4227 92.01C8.59603 86.23 13.356 81.6967 19.7027 78.41C26.0494 75.01 33.8694 73.31 43.1627 73.31ZM31.4327 203.36C25.5394 203.36 20.7794 201.773 17.1527 198.6C13.6394 195.313 11.8827 191.177 11.8827 186.19C11.8827 181.203 13.6394 177.067 17.1527 173.78C20.7794 170.493 25.5394 168.85 31.4327 168.85C37.2127 168.85 41.8594 170.493 45.3727 173.78C48.9994 177.067 50.8127 181.203 50.8127 186.19C50.8127 191.063 48.9994 195.143 45.3727 198.43C41.8594 201.717 37.2127 203.36 31.4327 203.36Z"/>
</mask>
<path d="M43.1627 73.31C55.516 73.31 65.4327 76.4833 72.9127 82.83C80.3927 89.1767 84.1327 98.2433 84.1327 110.03C84.1327 120.343 80.676 128.503 73.7627 134.51C66.9627 140.517 57.9527 143.633 46.7327 143.86L45.8827 156.27H16.4727L15.4527 122.44H27.6927C35.3994 122.44 41.2927 121.59 45.3727 119.89C49.4527 118.077 51.4927 114.903 51.4927 110.37C51.4927 107.31 50.6427 104.93 48.9427 103.23C47.356 101.417 45.146 100.51 42.3127 100.51C39.1394 100.51 36.7027 101.473 35.0027 103.4C33.416 105.213 32.6227 107.707 32.6227 110.88H1.1727C0.946029 103.967 2.3627 97.6767 5.4227 92.01C8.59603 86.23 13.356 81.6967 19.7027 78.41C26.0494 75.01 33.8694 73.31 43.1627 73.31ZM31.4327 203.36C25.5394 203.36 20.7794 201.773 17.1527 198.6C13.6394 195.313 11.8827 191.177 11.8827 186.19C11.8827 181.203 13.6394 177.067 17.1527 173.78C20.7794 170.493 25.5394 168.85 31.4327 168.85C37.2127 168.85 41.8594 170.493 45.3727 173.78C48.9994 177.067 50.8127 181.203 50.8127 186.19C50.8127 191.063 48.9994 195.143 45.3727 198.43C41.8594 201.717 37.2127 203.36 31.4327 203.36Z" fill="black"/>
<path d="M73.7627 134.51L73.1068 133.755L73.1007 133.761L73.7627 134.51ZM46.7327 143.86L46.7125 142.86L45.7976 142.879L45.735 143.792L46.7327 143.86ZM45.8827 156.27V157.27H46.8165L46.8804 156.338L45.8827 156.27ZM16.4727 156.27L15.4732 156.3L15.5024 157.27H16.4727V156.27ZM15.4527 122.44V121.44H14.4221L14.4532 122.47L15.4527 122.44ZM45.3727 119.89L45.7573 120.813L45.7681 120.809L45.7788 120.804L45.3727 119.89ZM48.9427 103.23L48.1901 103.889L48.212 103.914L48.2356 103.937L48.9427 103.23ZM35.0027 103.4L34.2529 102.738L34.2501 102.741L35.0027 103.4ZM32.6227 110.88V111.88H33.6227V110.88H32.6227ZM1.1727 110.88L0.173233 110.913L0.204945 111.88H1.1727V110.88ZM5.4227 92.01L4.5461 91.5287L4.54279 91.5348L5.4227 92.01ZM19.7027 78.41L20.1626 79.2981L20.1749 79.2915L19.7027 78.41ZM17.1527 198.6L16.4695 199.33L16.4817 199.342L16.4942 199.353L17.1527 198.6ZM17.1527 173.78L16.4812 173.039L16.4753 173.044L16.4695 173.05L17.1527 173.78ZM45.3727 173.78L44.6895 174.51L44.6953 174.516L44.7012 174.521L45.3727 173.78ZM45.3727 198.43L44.7012 197.689L44.6953 197.694L44.6895 197.7L45.3727 198.43ZM43.1627 74.31C55.3423 74.31 65.0094 77.4356 72.2657 83.5925L73.5597 82.0675C65.856 75.531 55.6898 72.31 43.1627 72.31V74.31ZM72.2657 83.5925C79.4765 89.7108 83.1327 98.4719 83.1327 110.03H85.1327C85.1327 98.0147 81.3089 88.6426 73.5597 82.0675L72.2657 83.5925ZM83.1327 110.03C83.1327 120.095 79.7725 127.964 73.1068 133.755L74.4186 135.265C81.5795 129.043 85.1327 120.592 85.1327 110.03H83.1327ZM73.1007 133.761C66.5173 139.576 57.7537 142.637 46.7125 142.86L46.7529 144.86C58.1517 144.63 67.408 141.458 74.4247 135.259L73.1007 133.761ZM45.735 143.792L44.885 156.202L46.8804 156.338L47.7304 143.928L45.735 143.792ZM45.8827 155.27H16.4727V157.27H45.8827V155.27ZM17.4722 156.24L16.4522 122.41L14.4532 122.47L15.4732 156.3L17.4722 156.24ZM15.4527 123.44H27.6927V121.44H15.4527V123.44ZM27.6927 123.44C35.4478 123.44 41.4967 122.588 45.7573 120.813L44.9881 118.967C41.0887 120.592 35.3509 121.44 27.6927 121.44V123.44ZM45.7788 120.804C47.9638 119.833 49.6602 118.47 50.8039 116.691C51.9469 114.913 52.4927 112.789 52.4927 110.37H50.4927C50.4927 112.484 50.0185 114.214 49.1215 115.609C48.2251 117.004 46.8616 118.134 44.9666 118.976L45.7788 120.804ZM52.4927 110.37C52.4927 107.121 51.585 104.458 49.6498 102.523L48.2356 103.937C49.7004 105.402 50.4927 107.499 50.4927 110.37H52.4927ZM49.6953 102.571C47.8848 100.502 45.3786 99.51 42.3127 99.51V101.51C44.9135 101.51 46.8273 102.331 48.1901 103.889L49.6953 102.571ZM42.3127 99.51C38.9254 99.51 36.1862 100.547 34.2529 102.738L35.7525 104.062C37.2192 102.399 39.3533 101.51 42.3127 101.51V99.51ZM34.2501 102.741C32.4591 104.788 31.6227 107.543 31.6227 110.88H33.6227C33.6227 107.871 34.373 105.638 35.7553 104.058L34.2501 102.741ZM32.6227 109.88H1.1727V111.88H32.6227V109.88ZM2.17216 110.847C1.95085 104.097 3.33292 97.9846 6.3026 92.4851L4.54279 91.5348C1.39247 97.3688 -0.0587896 103.836 0.173233 110.913L2.17216 110.847ZM6.29927 92.4913C9.36907 86.8998 13.9766 82.5014 20.1626 79.298L19.2428 77.522C12.7355 80.8919 7.82299 85.5602 4.54612 91.5287L6.29927 92.4913ZM20.1749 79.2915C26.3402 75.9886 33.9876 74.31 43.1627 74.31V72.31C33.7511 72.31 25.7585 74.0313 19.2305 77.5285L20.1749 79.2915ZM31.4327 202.36C25.7253 202.36 21.2172 200.828 17.8112 197.847L16.4942 199.353C20.3415 202.719 25.3535 204.36 31.4327 204.36V202.36ZM17.8359 197.87C14.5328 194.78 12.8827 190.911 12.8827 186.19H10.8827C10.8827 191.442 12.7459 195.847 16.4695 199.33L17.8359 197.87ZM12.8827 186.19C12.8827 181.469 14.5328 177.6 17.8359 174.51L16.4695 173.05C12.7459 176.533 10.8827 180.938 10.8827 186.19H12.8827ZM17.8242 174.521C21.2309 171.434 25.7342 169.85 31.4327 169.85V167.85C25.3445 167.85 20.3278 169.553 16.4812 173.039L17.8242 174.521ZM31.4327 169.85C37.0131 169.85 41.3975 171.431 44.6895 174.51L46.0559 173.05C42.3212 169.556 37.4123 167.85 31.4327 167.85V169.85ZM44.7012 174.521C48.1142 177.614 49.8127 181.48 49.8127 186.19H51.8127C51.8127 180.927 49.8845 176.519 46.0442 173.039L44.7012 174.521ZM49.8127 186.19C49.8127 190.78 48.1197 194.591 44.7012 197.689L46.0442 199.171C49.879 195.696 51.8127 191.347 51.8127 186.19H49.8127ZM44.6895 197.7C41.3975 200.779 37.0131 202.36 31.4327 202.36V204.36C37.4123 204.36 42.3212 202.654 46.0559 199.16L44.6895 197.7Z" fill="#ED0EEB" mask="url(#path-5-outside-3_229_472)"/>
<mask id="path-7-outside-4_229_472" maskUnits="userSpaceOnUse" x="1" y="73" width="86" height="133" fill="black">
<rect fill="white" x="1" y="73" width="86" height="133"/>
<path d="M44.1627 74.31C56.516 74.31 66.4327 77.4833 73.9127 83.83C81.3927 90.1767 85.1327 99.2433 85.1327 111.03C85.1327 121.343 81.676 129.503 74.7627 135.51C67.9627 141.517 58.9527 144.633 47.7327 144.86L46.8827 157.27H17.4727L16.4527 123.44H28.6927C36.3994 123.44 42.2927 122.59 46.3727 120.89C50.4527 119.077 52.4927 115.903 52.4927 111.37C52.4927 108.31 51.6427 105.93 49.9427 104.23C48.356 102.417 46.146 101.51 43.3127 101.51C40.1394 101.51 37.7027 102.473 36.0027 104.4C34.416 106.213 33.6227 108.707 33.6227 111.88H2.1727C1.94603 104.967 3.3627 98.6767 6.4227 93.01C9.59603 87.23 14.356 82.6967 20.7027 79.41C27.0494 76.01 34.8694 74.31 44.1627 74.31ZM32.4327 204.36C26.5394 204.36 21.7794 202.773 18.1527 199.6C14.6394 196.313 12.8827 192.177 12.8827 187.19C12.8827 182.203 14.6394 178.067 18.1527 174.78C21.7794 171.493 26.5394 169.85 32.4327 169.85C38.2127 169.85 42.8594 171.493 46.3727 174.78C49.9994 178.067 51.8127 182.203 51.8127 187.19C51.8127 192.063 49.9994 196.143 46.3727 199.43C42.8594 202.717 38.2127 204.36 32.4327 204.36Z"/>
</mask>
<path d="M74.7627 135.51L74.1068 134.755L74.1007 134.761L74.7627 135.51ZM47.7327 144.86L47.7125 143.86L46.7976 143.879L46.735 144.792L47.7327 144.86ZM46.8827 157.27V158.27H47.8165L47.8804 157.338L46.8827 157.27ZM17.4727 157.27L16.4732 157.3L16.5024 158.27H17.4727V157.27ZM16.4527 123.44V122.44H15.4221L15.4532 123.47L16.4527 123.44ZM46.3727 120.89L46.7573 121.813L46.7681 121.809L46.7788 121.804L46.3727 120.89ZM49.9427 104.23L49.1901 104.889L49.212 104.914L49.2356 104.937L49.9427 104.23ZM36.0027 104.4L35.2529 103.738L35.2501 103.741L36.0027 104.4ZM33.6227 111.88V112.88H34.6227V111.88H33.6227ZM2.1727 111.88L1.17323 111.913L1.20495 112.88H2.1727V111.88ZM6.4227 93.01L5.5461 92.5287L5.54279 92.5348L6.4227 93.01ZM20.7027 79.41L21.1626 80.2981L21.1749 80.2915L20.7027 79.41ZM18.1527 199.6L17.4695 200.33L17.4817 200.342L17.4942 200.353L18.1527 199.6ZM18.1527 174.78L17.4812 174.039L17.4753 174.044L17.4695 174.05L18.1527 174.78ZM46.3727 174.78L45.6895 175.51L45.6953 175.516L45.7012 175.521L46.3727 174.78ZM46.3727 199.43L45.7012 198.689L45.6953 198.694L45.6895 198.7L46.3727 199.43ZM44.1627 75.31C56.3423 75.31 66.0094 78.4356 73.2657 84.5925L74.5597 83.0675C66.856 76.531 56.6898 73.31 44.1627 73.31V75.31ZM73.2657 84.5925C80.4765 90.7108 84.1327 99.4719 84.1327 111.03H86.1327C86.1327 99.0147 82.3089 89.6426 74.5597 83.0675L73.2657 84.5925ZM84.1327 111.03C84.1327 121.095 80.7725 128.964 74.1068 134.755L75.4186 136.265C82.5795 130.043 86.1327 121.592 86.1327 111.03H84.1327ZM74.1007 134.761C67.5173 140.576 58.7537 143.637 47.7125 143.86L47.7529 145.86C59.1517 145.63 68.408 142.458 75.4247 136.259L74.1007 134.761ZM46.735 144.792L45.885 157.202L47.8804 157.338L48.7304 144.928L46.735 144.792ZM46.8827 156.27H17.4727V158.27H46.8827V156.27ZM18.4722 157.24L17.4522 123.41L15.4532 123.47L16.4732 157.3L18.4722 157.24ZM16.4527 124.44H28.6927V122.44H16.4527V124.44ZM28.6927 124.44C36.4478 124.44 42.4967 123.588 46.7573 121.813L45.9881 119.967C42.0887 121.592 36.3509 122.44 28.6927 122.44V124.44ZM46.7788 121.804C48.9638 120.833 50.6602 119.47 51.8039 117.691C52.9469 115.913 53.4927 113.789 53.4927 111.37H51.4927C51.4927 113.484 51.0185 115.214 50.1215 116.609C49.2251 118.004 47.8616 119.134 45.9666 119.976L46.7788 121.804ZM53.4927 111.37C53.4927 108.121 52.585 105.458 50.6498 103.523L49.2356 104.937C50.7004 106.402 51.4927 108.499 51.4927 111.37H53.4927ZM50.6953 103.571C48.8848 101.502 46.3786 100.51 43.3127 100.51V102.51C45.9135 102.51 47.8273 103.331 49.1901 104.889L50.6953 103.571ZM43.3127 100.51C39.9254 100.51 37.1862 101.547 35.2529 103.738L36.7525 105.062C38.2192 103.399 40.3533 102.51 43.3127 102.51V100.51ZM35.2501 103.741C33.4591 105.788 32.6227 108.543 32.6227 111.88H34.6227C34.6227 108.871 35.373 106.638 36.7553 105.058L35.2501 103.741ZM33.6227 110.88H2.1727V112.88H33.6227V110.88ZM3.17216 111.847C2.95085 105.097 4.33292 98.9846 7.3026 93.4851L5.54279 92.5348C2.39247 98.3688 0.94121 104.836 1.17323 111.913L3.17216 111.847ZM7.29927 93.4913C10.3691 87.8998 14.9766 83.5014 21.1626 80.298L20.2428 78.522C13.7355 81.8919 8.82299 86.5602 5.54612 92.5287L7.29927 93.4913ZM21.1749 80.2915C27.3402 76.9886 34.9876 75.31 44.1627 75.31V73.31C34.7511 73.31 26.7585 75.0313 20.2305 78.5285L21.1749 80.2915ZM32.4327 203.36C26.7253 203.36 22.2172 201.828 18.8112 198.847L17.4942 200.353C21.3415 203.719 26.3535 205.36 32.4327 205.36V203.36ZM18.8359 198.87C15.5328 195.78 13.8827 191.911 13.8827 187.19H11.8827C11.8827 192.442 13.7459 196.847 17.4695 200.33L18.8359 198.87ZM13.8827 187.19C13.8827 182.469 15.5328 178.6 18.8359 175.51L17.4695 174.05C13.7459 177.533 11.8827 181.938 11.8827 187.19H13.8827ZM18.8242 175.521C22.2309 172.434 26.7342 170.85 32.4327 170.85V168.85C26.3445 168.85 21.3278 170.553 17.4812 174.039L18.8242 175.521ZM32.4327 170.85C38.0131 170.85 42.3975 172.431 45.6895 175.51L47.0559 174.05C43.3212 170.556 38.4123 168.85 32.4327 168.85V170.85ZM45.7012 175.521C49.1142 178.614 50.8127 182.48 50.8127 187.19H52.8127C52.8127 181.927 50.8845 177.519 47.0442 174.039L45.7012 175.521ZM50.8127 187.19C50.8127 191.78 49.1197 195.591 45.7012 198.689L47.0442 200.171C50.879 196.696 52.8127 192.347 52.8127 187.19H50.8127ZM45.6895 198.7C42.3975 201.779 38.0131 203.36 32.4327 203.36V205.36C38.4123 205.36 43.3212 203.654 47.0559 200.16L45.6895 198.7Z" fill="#14F6FE" mask="url(#path-7-outside-4_229_472)"/>
</svg>
