<svg width="183" height="312" viewBox="0 0 183 312" fill="none" xmlns="http://www.w3.org/2000/svg">
<mask id="path-1-outside-1_229_465" maskUnits="userSpaceOnUse" x="14" y="33" width="52" height="79" fill="black">
<rect fill="white" x="14" y="33" width="52" height="79"/>
<path d="M40.0957 34.3C47.3624 34.3 53.1957 36.1667 57.5957 39.9C61.9957 43.6333 64.1957 48.9667 64.1957 55.9C64.1957 61.9667 62.1624 66.7667 58.0957 70.3C54.0957 73.8333 48.7957 75.6667 42.1957 75.8L41.6957 83.1H24.3957L23.7957 63.2H30.9957C35.529 63.2 38.9957 62.7 41.3957 61.7C43.7957 60.6333 44.9957 58.7667 44.9957 56.1C44.9957 54.3 44.4957 52.9 43.4957 51.9C42.5624 50.8333 41.2624 50.3 39.5957 50.3C37.729 50.3 36.2957 50.8667 35.2957 52C34.3624 53.0667 33.8957 54.5333 33.8957 56.4H15.3957C15.2624 52.3333 16.0957 48.6333 17.8957 45.3C19.7624 41.9 22.5624 39.2333 26.2957 37.3C30.029 35.3 34.629 34.3 40.0957 34.3ZM33.1957 110.8C29.729 110.8 26.929 109.867 24.7957 108C22.729 106.067 21.6957 103.633 21.6957 100.7C21.6957 97.7667 22.729 95.3333 24.7957 93.4C26.929 91.4667 29.729 90.5 33.1957 90.5C36.5957 90.5 39.329 91.4667 41.3957 93.4C43.529 95.3333 44.5957 97.7667 44.5957 100.7C44.5957 103.567 43.529 105.967 41.3957 107.9C39.329 109.833 36.5957 110.8 33.1957 110.8Z"/>
</mask>
<path d="M40.0957 34.3C47.3624 34.3 53.1957 36.1667 57.5957 39.9C61.9957 43.6333 64.1957 48.9667 64.1957 55.9C64.1957 61.9667 62.1624 66.7667 58.0957 70.3C54.0957 73.8333 48.7957 75.6667 42.1957 75.8L41.6957 83.1H24.3957L23.7957 63.2H30.9957C35.529 63.2 38.9957 62.7 41.3957 61.7C43.7957 60.6333 44.9957 58.7667 44.9957 56.1C44.9957 54.3 44.4957 52.9 43.4957 51.9C42.5624 50.8333 41.2624 50.3 39.5957 50.3C37.729 50.3 36.2957 50.8667 35.2957 52C34.3624 53.0667 33.8957 54.5333 33.8957 56.4H15.3957C15.2624 52.3333 16.0957 48.6333 17.8957 45.3C19.7624 41.9 22.5624 39.2333 26.2957 37.3C30.029 35.3 34.629 34.3 40.0957 34.3ZM33.1957 110.8C29.729 110.8 26.929 109.867 24.7957 108C22.729 106.067 21.6957 103.633 21.6957 100.7C21.6957 97.7667 22.729 95.3333 24.7957 93.4C26.929 91.4667 29.729 90.5 33.1957 90.5C36.5957 90.5 39.329 91.4667 41.3957 93.4C43.529 95.3333 44.5957 97.7667 44.5957 100.7C44.5957 103.567 43.529 105.967 41.3957 107.9C39.329 109.833 36.5957 110.8 33.1957 110.8Z" fill="black"/>
<path d="M58.0957 70.3L57.4398 69.5451L57.4337 69.5505L58.0957 70.3ZM42.1957 75.8L42.1755 74.8002L41.2606 74.8187L41.198 75.7317L42.1957 75.8ZM41.6957 83.1V84.1H42.6296L42.6934 83.1683L41.6957 83.1ZM24.3957 83.1L23.3962 83.1301L23.4254 84.1H24.3957V83.1ZM23.7957 63.2V62.2H22.7651L22.7962 63.2301L23.7957 63.2ZM41.3957 61.7L41.7803 62.6231L41.7911 62.6186L41.8018 62.6138L41.3957 61.7ZM43.4957 51.9L42.7431 52.5585L42.7651 52.5836L42.7886 52.6071L43.4957 51.9ZM35.2957 52L34.5459 51.3384L34.5431 51.3415L35.2957 52ZM33.8957 56.4V57.4H34.8957V56.4H33.8957ZM15.3957 56.4L14.3962 56.4328L14.428 57.4H15.3957V56.4ZM17.8957 45.3L17.0191 44.8187L17.0158 44.8248L17.8957 45.3ZM26.2957 37.3L26.7556 38.1881L26.7679 38.1815L26.2957 37.3ZM24.7957 108L24.1125 108.73L24.1247 108.742L24.1372 108.753L24.7957 108ZM24.7957 93.4L24.1242 92.659L24.1183 92.6643L24.1125 92.6697L24.7957 93.4ZM41.3957 93.4L40.7125 94.1303L40.7183 94.1357L40.7242 94.141L41.3957 93.4ZM41.3957 107.9L40.7242 107.159L40.7183 107.164L40.7125 107.17L41.3957 107.9ZM40.0957 35.3C47.1886 35.3 52.7724 37.119 56.9487 40.6625L58.2427 39.1375C53.619 35.2144 47.5361 33.3 40.0957 33.3V35.3ZM56.9487 40.6625C61.0795 44.1674 63.1957 49.1953 63.1957 55.9H65.1957C65.1957 48.738 62.9119 43.0992 58.2427 39.1375L56.9487 40.6625ZM63.1957 55.9C63.1957 61.7179 61.2589 66.2269 57.4398 69.5451L58.7516 71.0549C63.0659 67.3064 65.1957 62.2155 65.1957 55.9H63.1957ZM57.4337 69.5505C53.6504 72.8925 48.5967 74.6705 42.1755 74.8002L42.2159 76.7998C48.9947 76.6628 54.5411 74.7742 58.7577 71.0495L57.4337 69.5505ZM41.198 75.7317L40.698 83.0317L42.6934 83.1683L43.1934 75.8683L41.198 75.7317ZM41.6957 82.1H24.3957V84.1H41.6957V82.1ZM25.3952 83.0699L24.7952 63.1699L22.7962 63.2301L23.3962 83.1301L25.3952 83.0699ZM23.7957 64.2H30.9957V62.2H23.7957V64.2ZM30.9957 64.2C35.5775 64.2 39.1997 63.6983 41.7803 62.6231L41.0111 60.7769C38.7917 61.7017 35.4806 62.2 30.9957 62.2V64.2ZM41.8018 62.6138C43.1468 62.016 44.2133 61.1664 44.9369 60.0408C45.6599 58.9161 45.9957 57.586 45.9957 56.1H43.9957C43.9957 57.2807 43.7315 58.2172 43.2545 58.9592C42.7782 59.7003 42.0446 60.3173 40.9896 60.7862L41.8018 62.6138ZM45.9957 56.1C45.9957 54.1107 45.438 52.4281 44.2028 51.1929L42.7886 52.6071C43.5534 53.3719 43.9957 54.4893 43.9957 56.1H45.9957ZM44.2483 51.2415C43.0911 49.9191 41.4949 49.3 39.5957 49.3V51.3C41.0299 51.3 42.0336 51.7476 42.7431 52.5585L44.2483 51.2415ZM39.5957 49.3C37.5151 49.3 35.7792 49.9406 34.5459 51.3384L36.0455 52.6616C36.8122 51.7927 37.943 51.3 39.5957 51.3V49.3ZM34.5431 51.3415C33.4054 52.6417 32.8957 54.3692 32.8957 56.4H34.8957C34.8957 54.6974 35.3193 53.4916 36.0483 52.6585L34.5431 51.3415ZM33.8957 55.4H15.3957V57.4H33.8957V55.4ZM16.3952 56.3672C16.2672 52.4639 17.0659 48.9412 18.7756 45.7751L17.0158 44.8248C15.1255 48.3254 14.2576 52.2028 14.3962 56.4328L16.3952 56.3672ZM18.7723 45.7813C20.5354 42.5698 23.1829 40.0381 26.7556 38.188L25.8358 36.412C21.9418 38.4286 18.9893 41.2302 17.0191 44.8187L18.7723 45.7813ZM26.7679 38.1815C30.3199 36.2786 34.7473 35.3 40.0957 35.3V33.3C34.5108 33.3 29.7382 34.3214 25.8235 36.4185L26.7679 38.1815ZM33.1957 109.8C29.9149 109.8 27.3669 108.921 25.4542 107.247L24.1372 108.753C26.4912 110.812 29.5431 111.8 33.1957 111.8V109.8ZM25.4789 107.27C23.6225 105.533 22.6957 103.368 22.6957 100.7H20.6957C20.6957 103.899 21.8356 106.6 24.1125 108.73L25.4789 107.27ZM22.6957 100.7C22.6957 98.032 23.6225 95.8669 25.4789 94.1303L24.1125 92.6697C21.8356 94.7998 20.6957 97.5013 20.6957 100.7H22.6957ZM25.4672 94.141C27.3806 92.407 29.9239 91.5 33.1957 91.5V89.5C29.5342 89.5 26.4775 90.5263 24.1242 92.659L25.4672 94.141ZM33.1957 91.5C36.3961 91.5 38.8672 92.404 40.7125 94.1303L42.0789 92.6697C39.7909 90.5293 36.7953 89.5 33.1957 89.5V91.5ZM40.7242 94.141C42.6439 95.8807 43.5957 98.0429 43.5957 100.7H45.5957C45.5957 97.4904 44.4142 94.7859 42.0672 92.659L40.7242 94.141ZM43.5957 100.7C43.5957 103.283 42.6494 105.414 40.7242 107.159L42.0672 108.641C44.4087 106.519 45.5957 103.85 45.5957 100.7H43.5957ZM40.7125 107.17C38.8672 108.896 36.3961 109.8 33.1957 109.8V111.8C36.7953 111.8 39.7909 110.771 42.0789 108.63L40.7125 107.17Z" fill="#242424" mask="url(#path-1-outside-1_229_465)"/>
<mask id="path-3-outside-2_229_465" maskUnits="userSpaceOnUse" x="10" y="132" width="86" height="133" fill="black">
<rect fill="white" x="10" y="132" width="86" height="133"/>
<path d="M53.1627 133.31C65.516 133.31 75.4327 136.483 82.9127 142.83C90.3927 149.177 94.1327 158.243 94.1327 170.03C94.1327 180.343 90.676 188.503 83.7627 194.51C76.9627 200.517 67.9527 203.633 56.7327 203.86L55.8827 216.27H26.4727L25.4527 182.44H37.6927C45.3994 182.44 51.2927 181.59 55.3727 179.89C59.4527 178.077 61.4927 174.903 61.4927 170.37C61.4927 167.31 60.6427 164.93 58.9427 163.23C57.356 161.417 55.146 160.51 52.3127 160.51C49.1394 160.51 46.7027 161.473 45.0027 163.4C43.416 165.213 42.6227 167.707 42.6227 170.88H11.1727C10.946 163.967 12.3627 157.677 15.4227 152.01C18.596 146.23 23.356 141.697 29.7027 138.41C36.0494 135.01 43.8694 133.31 53.1627 133.31ZM41.4327 263.36C35.5394 263.36 30.7794 261.773 27.1527 258.6C23.6394 255.313 21.8827 251.177 21.8827 246.19C21.8827 241.203 23.6394 237.067 27.1527 233.78C30.7794 230.493 35.5394 228.85 41.4327 228.85C47.2127 228.85 51.8594 230.493 55.3727 233.78C58.9994 237.067 60.8127 241.203 60.8127 246.19C60.8127 251.063 58.9994 255.143 55.3727 258.43C51.8594 261.717 47.2127 263.36 41.4327 263.36Z"/>
</mask>
<path d="M53.1627 133.31C65.516 133.31 75.4327 136.483 82.9127 142.83C90.3927 149.177 94.1327 158.243 94.1327 170.03C94.1327 180.343 90.676 188.503 83.7627 194.51C76.9627 200.517 67.9527 203.633 56.7327 203.86L55.8827 216.27H26.4727L25.4527 182.44H37.6927C45.3994 182.44 51.2927 181.59 55.3727 179.89C59.4527 178.077 61.4927 174.903 61.4927 170.37C61.4927 167.31 60.6427 164.93 58.9427 163.23C57.356 161.417 55.146 160.51 52.3127 160.51C49.1394 160.51 46.7027 161.473 45.0027 163.4C43.416 165.213 42.6227 167.707 42.6227 170.88H11.1727C10.946 163.967 12.3627 157.677 15.4227 152.01C18.596 146.23 23.356 141.697 29.7027 138.41C36.0494 135.01 43.8694 133.31 53.1627 133.31ZM41.4327 263.36C35.5394 263.36 30.7794 261.773 27.1527 258.6C23.6394 255.313 21.8827 251.177 21.8827 246.19C21.8827 241.203 23.6394 237.067 27.1527 233.78C30.7794 230.493 35.5394 228.85 41.4327 228.85C47.2127 228.85 51.8594 230.493 55.3727 233.78C58.9994 237.067 60.8127 241.203 60.8127 246.19C60.8127 251.063 58.9994 255.143 55.3727 258.43C51.8594 261.717 47.2127 263.36 41.4327 263.36Z" fill="black"/>
<path d="M83.7627 194.51L83.1068 193.755L83.1007 193.761L83.7627 194.51ZM56.7327 203.86L56.7125 202.86L55.7976 202.879L55.735 203.792L56.7327 203.86ZM55.8827 216.27V217.27H56.8165L56.8804 216.338L55.8827 216.27ZM26.4727 216.27L25.4732 216.3L25.5024 217.27H26.4727V216.27ZM25.4527 182.44V181.44H24.4221L24.4532 182.47L25.4527 182.44ZM55.3727 179.89L55.7573 180.813L55.7681 180.809L55.7788 180.804L55.3727 179.89ZM58.9427 163.23L58.1901 163.889L58.212 163.914L58.2356 163.937L58.9427 163.23ZM45.0027 163.4L44.2529 162.738L44.2501 162.741L45.0027 163.4ZM42.6227 170.88V171.88H43.6227V170.88H42.6227ZM11.1727 170.88L10.1732 170.913L10.2049 171.88H11.1727V170.88ZM15.4227 152.01L14.5461 151.529L14.5428 151.535L15.4227 152.01ZM29.7027 138.41L30.1626 139.298L30.1749 139.291L29.7027 138.41ZM27.1527 258.6L26.4695 259.33L26.4817 259.342L26.4942 259.353L27.1527 258.6ZM27.1527 233.78L26.4812 233.039L26.4753 233.044L26.4695 233.05L27.1527 233.78ZM55.3727 233.78L54.6895 234.51L54.6953 234.516L54.7012 234.521L55.3727 233.78ZM55.3727 258.43L54.7012 257.689L54.6953 257.694L54.6895 257.7L55.3727 258.43ZM53.1627 134.31C65.3423 134.31 75.0094 137.436 82.2657 143.593L83.5597 142.067C75.856 135.531 65.6898 132.31 53.1627 132.31V134.31ZM82.2657 143.593C89.4765 149.711 93.1327 158.472 93.1327 170.03H95.1327C95.1327 158.015 91.3089 148.643 83.5597 142.067L82.2657 143.593ZM93.1327 170.03C93.1327 180.095 89.7725 187.964 83.1068 193.755L84.4186 195.265C91.5795 189.043 95.1327 180.592 95.1327 170.03H93.1327ZM83.1007 193.761C76.5173 199.576 67.7537 202.637 56.7125 202.86L56.7529 204.86C68.1517 204.63 77.408 201.458 84.4247 195.259L83.1007 193.761ZM55.735 203.792L54.885 216.202L56.8804 216.338L57.7304 203.928L55.735 203.792ZM55.8827 215.27H26.4727V217.27H55.8827V215.27ZM27.4722 216.24L26.4522 182.41L24.4532 182.47L25.4732 216.3L27.4722 216.24ZM25.4527 183.44H37.6927V181.44H25.4527V183.44ZM37.6927 183.44C45.4478 183.44 51.4967 182.588 55.7573 180.813L54.9881 178.967C51.0887 180.592 45.3509 181.44 37.6927 181.44V183.44ZM55.7788 180.804C57.9638 179.833 59.6602 178.47 60.8039 176.691C61.9469 174.913 62.4927 172.789 62.4927 170.37H60.4927C60.4927 172.484 60.0185 174.214 59.1215 175.609C58.2251 177.004 56.8616 178.134 54.9666 178.976L55.7788 180.804ZM62.4927 170.37C62.4927 167.121 61.585 164.458 59.6498 162.523L58.2356 163.937C59.7004 165.402 60.4927 167.499 60.4927 170.37H62.4927ZM59.6953 162.571C57.8848 160.502 55.3786 159.51 52.3127 159.51V161.51C54.9135 161.51 56.8273 162.331 58.1901 163.889L59.6953 162.571ZM52.3127 159.51C48.9254 159.51 46.1862 160.547 44.2529 162.738L45.7525 164.062C47.2192 162.399 49.3533 161.51 52.3127 161.51V159.51ZM44.2501 162.741C42.4591 164.788 41.6227 167.543 41.6227 170.88H43.6227C43.6227 167.871 44.373 165.638 45.7553 164.058L44.2501 162.741ZM42.6227 169.88H11.1727V171.88H42.6227V169.88ZM12.1722 170.847C11.9508 164.097 13.3329 157.985 16.3026 152.485L14.5428 151.535C11.3925 157.369 9.94121 163.836 10.1732 170.913L12.1722 170.847ZM16.2993 152.491C19.3691 146.9 23.9766 142.501 30.1626 139.298L29.2428 137.522C22.7355 140.892 17.823 145.56 14.5461 151.529L16.2993 152.491ZM30.1749 139.291C36.3402 135.989 43.9876 134.31 53.1627 134.31V132.31C43.7511 132.31 35.7585 134.031 29.2305 137.529L30.1749 139.291ZM41.4327 262.36C35.7253 262.36 31.2172 260.828 27.8112 257.847L26.4942 259.353C30.3415 262.719 35.3535 264.36 41.4327 264.36V262.36ZM27.8359 257.87C24.5328 254.78 22.8827 250.911 22.8827 246.19H20.8827C20.8827 251.442 22.7459 255.847 26.4695 259.33L27.8359 257.87ZM22.8827 246.19C22.8827 241.469 24.5328 237.6 27.8359 234.51L26.4695 233.05C22.7459 236.533 20.8827 240.938 20.8827 246.19H22.8827ZM27.8242 234.521C31.2309 231.434 35.7342 229.85 41.4327 229.85V227.85C35.3445 227.85 30.3278 229.553 26.4812 233.039L27.8242 234.521ZM41.4327 229.85C47.0131 229.85 51.3975 231.431 54.6895 234.51L56.0559 233.05C52.3212 229.556 47.4123 227.85 41.4327 227.85V229.85ZM54.7012 234.521C58.1142 237.614 59.8127 241.48 59.8127 246.19H61.8127C61.8127 240.927 59.8845 236.519 56.0442 233.039L54.7012 234.521ZM59.8127 246.19C59.8127 250.78 58.1197 254.591 54.7012 257.689L56.0442 259.171C59.879 255.696 61.8127 251.347 61.8127 246.19H59.8127ZM54.6895 257.7C51.3975 260.779 47.0131 262.36 41.4327 262.36V264.36C47.4123 264.36 52.3212 262.654 56.0559 259.16L54.6895 257.7Z" fill="#242424" mask="url(#path-3-outside-2_229_465)"/>
<mask id="path-5-outside-3_229_465" maskUnits="userSpaceOnUse" x="96" y="62" width="86" height="133" fill="black">
<rect fill="white" x="96" y="62" width="86" height="133"/>
<path d="M139.163 63.31C151.516 63.31 161.433 66.4833 168.913 72.83C176.393 79.1767 180.133 88.2433 180.133 100.03C180.133 110.343 176.676 118.503 169.763 124.51C162.963 130.517 153.953 133.633 142.733 133.86L141.883 146.27H112.473L111.453 112.44H123.693C131.399 112.44 137.293 111.59 141.373 109.89C145.453 108.077 147.493 104.903 147.493 100.37C147.493 97.31 146.643 94.93 144.943 93.23C143.356 91.4167 141.146 90.51 138.313 90.51C135.139 90.51 132.703 91.4733 131.003 93.4C129.416 95.2133 128.623 97.7067 128.623 100.88H97.1727C96.946 93.9667 98.3627 87.6767 101.423 82.01C104.596 76.23 109.356 71.6967 115.703 68.41C122.049 65.01 129.869 63.31 139.163 63.31ZM127.433 193.36C121.539 193.36 116.779 191.773 113.153 188.6C109.639 185.313 107.883 181.177 107.883 176.19C107.883 171.203 109.639 167.067 113.153 163.78C116.779 160.493 121.539 158.85 127.433 158.85C133.213 158.85 137.859 160.493 141.373 163.78C144.999 167.067 146.813 171.203 146.813 176.19C146.813 181.063 144.999 185.143 141.373 188.43C137.859 191.717 133.213 193.36 127.433 193.36Z"/>
</mask>
<path d="M139.163 63.31C151.516 63.31 161.433 66.4833 168.913 72.83C176.393 79.1767 180.133 88.2433 180.133 100.03C180.133 110.343 176.676 118.503 169.763 124.51C162.963 130.517 153.953 133.633 142.733 133.86L141.883 146.27H112.473L111.453 112.44H123.693C131.399 112.44 137.293 111.59 141.373 109.89C145.453 108.077 147.493 104.903 147.493 100.37C147.493 97.31 146.643 94.93 144.943 93.23C143.356 91.4167 141.146 90.51 138.313 90.51C135.139 90.51 132.703 91.4733 131.003 93.4C129.416 95.2133 128.623 97.7067 128.623 100.88H97.1727C96.946 93.9667 98.3627 87.6767 101.423 82.01C104.596 76.23 109.356 71.6967 115.703 68.41C122.049 65.01 129.869 63.31 139.163 63.31ZM127.433 193.36C121.539 193.36 116.779 191.773 113.153 188.6C109.639 185.313 107.883 181.177 107.883 176.19C107.883 171.203 109.639 167.067 113.153 163.78C116.779 160.493 121.539 158.85 127.433 158.85C133.213 158.85 137.859 160.493 141.373 163.78C144.999 167.067 146.813 171.203 146.813 176.19C146.813 181.063 144.999 185.143 141.373 188.43C137.859 191.717 133.213 193.36 127.433 193.36Z" fill="black"/>
<path d="M169.763 124.51L169.107 123.755L169.101 123.761L169.763 124.51ZM142.733 133.86L142.712 132.86L141.798 132.879L141.735 133.792L142.733 133.86ZM141.883 146.27V147.27H142.817L142.88 146.338L141.883 146.27ZM112.473 146.27L111.473 146.3L111.502 147.27H112.473V146.27ZM111.453 112.44V111.44H110.422L110.453 112.47L111.453 112.44ZM141.373 109.89L141.757 110.813L141.768 110.809L141.779 110.804L141.373 109.89ZM144.943 93.23L144.19 93.8885L144.212 93.9136L144.236 93.9371L144.943 93.23ZM131.003 93.4L130.253 92.7384L130.25 92.7415L131.003 93.4ZM128.623 100.88V101.88H129.623V100.88H128.623ZM97.1727 100.88L96.1732 100.913L96.2049 101.88H97.1727V100.88ZM101.423 82.01L100.546 81.5287L100.543 81.5348L101.423 82.01ZM115.703 68.41L116.163 69.2981L116.175 69.2915L115.703 68.41ZM113.153 188.6L112.47 189.33L112.482 189.342L112.494 189.353L113.153 188.6ZM113.153 163.78L112.481 163.039L112.475 163.044L112.47 163.05L113.153 163.78ZM141.373 163.78L140.69 164.51L140.695 164.516L140.701 164.521L141.373 163.78ZM141.373 188.43L140.701 187.689L140.695 187.694L140.69 187.7L141.373 188.43ZM139.163 64.31C151.342 64.31 161.009 67.4356 168.266 73.5925L169.56 72.0675C161.856 65.531 151.69 62.31 139.163 62.31V64.31ZM168.266 73.5925C175.477 79.7108 179.133 88.4719 179.133 100.03H181.133C181.133 88.0147 177.309 78.6426 169.56 72.0675L168.266 73.5925ZM179.133 100.03C179.133 110.095 175.773 117.964 169.107 123.755L170.419 125.265C177.58 119.043 181.133 110.592 181.133 100.03H179.133ZM169.101 123.761C162.517 129.576 153.754 132.637 142.712 132.86L142.753 134.86C154.152 134.63 163.408 131.458 170.425 125.259L169.101 123.761ZM141.735 133.792L140.885 146.202L142.88 146.338L143.73 133.928L141.735 133.792ZM141.883 145.27H112.473V147.27H141.883V145.27ZM113.472 146.24L112.452 112.41L110.453 112.47L111.473 146.3L113.472 146.24ZM111.453 113.44H123.693V111.44H111.453V113.44ZM123.693 113.44C131.448 113.44 137.497 112.588 141.757 110.813L140.988 108.967C137.089 110.592 131.351 111.44 123.693 111.44V113.44ZM141.779 110.804C143.964 109.833 145.66 108.47 146.804 106.691C147.947 104.913 148.493 102.789 148.493 100.37H146.493C146.493 102.484 146.019 104.214 145.122 105.609C144.225 107.004 142.862 108.134 140.967 108.976L141.779 110.804ZM148.493 100.37C148.493 97.1207 147.585 94.4581 145.65 92.5229L144.236 93.9371C145.7 95.4019 146.493 97.4992 146.493 100.37H148.493ZM145.695 92.5715C143.885 90.5024 141.379 89.51 138.313 89.51V91.51C140.914 91.51 142.827 92.3309 144.19 93.8885L145.695 92.5715ZM138.313 89.51C134.925 89.51 132.186 90.5473 130.253 92.7384L131.753 94.0616C133.219 92.3994 135.353 91.51 138.313 91.51V89.51ZM130.25 92.7415C128.459 94.7884 127.623 97.5426 127.623 100.88H129.623C129.623 97.8708 130.373 95.6383 131.755 94.0585L130.25 92.7415ZM128.623 99.88H97.1727V101.88H128.623V99.88ZM98.1722 100.847C97.9508 94.0972 99.3329 87.9846 102.303 82.4851L100.543 81.5348C97.3925 87.3688 95.9412 93.8361 96.1732 100.913L98.1722 100.847ZM102.299 82.4913C105.369 76.8998 109.977 72.5014 116.163 69.298L115.243 67.522C108.735 70.8919 103.823 75.5602 100.546 81.5287L102.299 82.4913ZM116.175 69.2915C122.34 65.9886 129.988 64.31 139.163 64.31V62.31C129.751 62.31 121.759 64.0313 115.23 67.5285L116.175 69.2915ZM127.433 192.36C121.725 192.36 117.217 190.828 113.811 187.847L112.494 189.353C116.341 192.719 121.353 194.36 127.433 194.36V192.36ZM113.836 187.87C110.533 184.78 108.883 180.911 108.883 176.19H106.883C106.883 181.442 108.746 185.847 112.47 189.33L113.836 187.87ZM108.883 176.19C108.883 171.469 110.533 167.6 113.836 164.51L112.47 163.05C108.746 166.533 106.883 170.938 106.883 176.19H108.883ZM113.824 164.521C117.231 161.434 121.734 159.85 127.433 159.85V157.85C121.345 157.85 116.328 159.553 112.481 163.039L113.824 164.521ZM127.433 159.85C133.013 159.85 137.398 161.431 140.69 164.51L142.056 163.05C138.321 159.556 133.412 157.85 127.433 157.85V159.85ZM140.701 164.521C144.114 167.614 145.813 171.48 145.813 176.19H147.813C147.813 170.927 145.885 166.519 142.044 163.039L140.701 164.521ZM145.813 176.19C145.813 180.78 144.12 184.591 140.701 187.689L142.044 189.171C145.879 185.696 147.813 181.347 147.813 176.19H145.813ZM140.69 187.7C137.398 190.779 133.013 192.36 127.433 192.36V194.36C133.412 194.36 138.321 192.654 142.056 189.16L140.69 187.7Z" fill="#ED0EEB" mask="url(#path-5-outside-3_229_465)"/>
<mask id="path-7-outside-4_229_465" maskUnits="userSpaceOnUse" x="97" y="63" width="86" height="133" fill="black">
<rect fill="white" x="97" y="63" width="86" height="133"/>
<path d="M140.163 64.31C152.516 64.31 162.433 67.4833 169.913 73.83C177.393 80.1767 181.133 89.2433 181.133 101.03C181.133 111.343 177.676 119.503 170.763 125.51C163.963 131.517 154.953 134.633 143.733 134.86L142.883 147.27H113.473L112.453 113.44H124.693C132.399 113.44 138.293 112.59 142.373 110.89C146.453 109.077 148.493 105.903 148.493 101.37C148.493 98.31 147.643 95.93 145.943 94.23C144.356 92.4167 142.146 91.51 139.313 91.51C136.139 91.51 133.703 92.4733 132.003 94.4C130.416 96.2133 129.623 98.7067 129.623 101.88H98.1727C97.946 94.9667 99.3627 88.6767 102.423 83.01C105.596 77.23 110.356 72.6967 116.703 69.41C123.049 66.01 130.869 64.31 140.163 64.31ZM128.433 194.36C122.539 194.36 117.779 192.773 114.153 189.6C110.639 186.313 108.883 182.177 108.883 177.19C108.883 172.203 110.639 168.067 114.153 164.78C117.779 161.493 122.539 159.85 128.433 159.85C134.213 159.85 138.859 161.493 142.373 164.78C145.999 168.067 147.813 172.203 147.813 177.19C147.813 182.063 145.999 186.143 142.373 189.43C138.859 192.717 134.213 194.36 128.433 194.36Z"/>
</mask>
<path d="M170.763 125.51L170.107 124.755L170.101 124.761L170.763 125.51ZM143.733 134.86L143.712 133.86L142.798 133.879L142.735 134.792L143.733 134.86ZM142.883 147.27V148.27H143.817L143.88 147.338L142.883 147.27ZM113.473 147.27L112.473 147.3L112.502 148.27H113.473V147.27ZM112.453 113.44V112.44H111.422L111.453 113.47L112.453 113.44ZM142.373 110.89L142.757 111.813L142.768 111.809L142.779 111.804L142.373 110.89ZM145.943 94.23L145.19 94.8885L145.212 94.9136L145.236 94.9371L145.943 94.23ZM132.003 94.4L131.253 93.7384L131.25 93.7415L132.003 94.4ZM129.623 101.88V102.88H130.623V101.88H129.623ZM98.1727 101.88L97.1732 101.913L97.2049 102.88H98.1727V101.88ZM102.423 83.01L101.546 82.5287L101.543 82.5348L102.423 83.01ZM116.703 69.41L117.163 70.2981L117.175 70.2915L116.703 69.41ZM114.153 189.6L113.47 190.33L113.482 190.342L113.494 190.353L114.153 189.6ZM114.153 164.78L113.481 164.039L113.475 164.044L113.47 164.05L114.153 164.78ZM142.373 164.78L141.69 165.51L141.695 165.516L141.701 165.521L142.373 164.78ZM142.373 189.43L141.701 188.689L141.695 188.694L141.69 188.7L142.373 189.43ZM140.163 65.31C152.342 65.31 162.009 68.4356 169.266 74.5925L170.56 73.0675C162.856 66.531 152.69 63.31 140.163 63.31V65.31ZM169.266 74.5925C176.477 80.7108 180.133 89.4719 180.133 101.03H182.133C182.133 89.0147 178.309 79.6426 170.56 73.0675L169.266 74.5925ZM180.133 101.03C180.133 111.095 176.773 118.964 170.107 124.755L171.419 126.265C178.58 120.043 182.133 111.592 182.133 101.03H180.133ZM170.101 124.761C163.517 130.576 154.754 133.637 143.712 133.86L143.753 135.86C155.152 135.63 164.408 132.458 171.425 126.259L170.101 124.761ZM142.735 134.792L141.885 147.202L143.88 147.338L144.73 134.928L142.735 134.792ZM142.883 146.27H113.473V148.27H142.883V146.27ZM114.472 147.24L113.452 113.41L111.453 113.47L112.473 147.3L114.472 147.24ZM112.453 114.44H124.693V112.44H112.453V114.44ZM124.693 114.44C132.448 114.44 138.497 113.588 142.757 111.813L141.988 109.967C138.089 111.592 132.351 112.44 124.693 112.44V114.44ZM142.779 111.804C144.964 110.833 146.66 109.47 147.804 107.691C148.947 105.913 149.493 103.789 149.493 101.37H147.493C147.493 103.484 147.019 105.214 146.122 106.609C145.225 108.004 143.862 109.134 141.967 109.976L142.779 111.804ZM149.493 101.37C149.493 98.1207 148.585 95.4581 146.65 93.5229L145.236 94.9371C146.7 96.4019 147.493 98.4992 147.493 101.37H149.493ZM146.695 93.5715C144.885 91.5024 142.379 90.51 139.313 90.51V92.51C141.914 92.51 143.827 93.3309 145.19 94.8885L146.695 93.5715ZM139.313 90.51C135.925 90.51 133.186 91.5473 131.253 93.7384L132.753 95.0616C134.219 93.3994 136.353 92.51 139.313 92.51V90.51ZM131.25 93.7415C129.459 95.7884 128.623 98.5426 128.623 101.88H130.623C130.623 98.8708 131.373 96.6383 132.755 95.0585L131.25 93.7415ZM129.623 100.88H98.1727V102.88H129.623V100.88ZM99.1722 101.847C98.9508 95.0972 100.333 88.9846 103.303 83.4851L101.543 82.5348C98.3925 88.3688 96.9412 94.8361 97.1732 101.913L99.1722 101.847ZM103.299 83.4913C106.369 77.8998 110.977 73.5014 117.163 70.298L116.243 68.522C109.735 71.8919 104.823 76.5602 101.546 82.5287L103.299 83.4913ZM117.175 70.2915C123.34 66.9886 130.988 65.31 140.163 65.31V63.31C130.751 63.31 122.759 65.0313 116.23 68.5285L117.175 70.2915ZM128.433 193.36C122.725 193.36 118.217 191.828 114.811 188.847L113.494 190.353C117.341 193.719 122.353 195.36 128.433 195.36V193.36ZM114.836 188.87C111.533 185.78 109.883 181.911 109.883 177.19H107.883C107.883 182.442 109.746 186.847 113.47 190.33L114.836 188.87ZM109.883 177.19C109.883 172.469 111.533 168.6 114.836 165.51L113.47 164.05C109.746 167.533 107.883 171.938 107.883 177.19H109.883ZM114.824 165.521C118.231 162.434 122.734 160.85 128.433 160.85V158.85C122.345 158.85 117.328 160.553 113.481 164.039L114.824 165.521ZM128.433 160.85C134.013 160.85 138.398 162.431 141.69 165.51L143.056 164.05C139.321 160.556 134.412 158.85 128.433 158.85V160.85ZM141.701 165.521C145.114 168.614 146.813 172.48 146.813 177.19H148.813C148.813 171.927 146.885 167.519 143.044 164.039L141.701 165.521ZM146.813 177.19C146.813 181.78 145.12 185.591 141.701 188.689L143.044 190.171C146.879 186.696 148.813 182.347 148.813 177.19H146.813ZM141.69 188.7C138.398 191.779 134.013 193.36 128.433 193.36V195.36C134.412 195.36 139.321 193.654 143.056 190.16L141.69 188.7Z" fill="#14F6FE" mask="url(#path-7-outside-4_229_465)"/>
</svg>
