<svg width="54" height="50" viewBox="0 0 54 50" fill="none" xmlns="http://www.w3.org/2000/svg">
<mask id="mask0_231_422" style="mask-type:luminance" maskUnits="userSpaceOnUse" x="0" y="0" width="54" height="50">
<path d="M53.6912 0.84375H0.75V49.657H53.6912V0.84375Z" fill="white"/>
</mask>
<g mask="url(#mask0_231_422)">
<path d="M43.0661 36.5336C43.0661 36.5336 43.088 36.5092 43.1001 36.4994C43.1608 36.4358 43.5204 36.0444 44.0038 35.4157C44.0475 35.3594 44.0888 35.3031 44.1326 35.2469C44.1933 35.1662 44.254 35.083 44.3172 34.9974C45.833 32.9278 46.8995 30.6112 47.4971 28.1869C47.4971 28.182 47.4995 28.1747 47.502 28.1698C47.5675 27.9056 47.6258 27.6414 47.6793 27.3747C47.6793 27.3747 47.6793 27.3747 47.6793 27.3723C47.9368 26.0953 48.0655 24.7939 48.0631 23.4876C48.068 22.8711 48.0315 22.1543 47.9659 21.5648C47.9246 21.1636 47.8712 20.7649 47.8056 20.3661C47.8032 20.3465 47.8008 20.3245 47.7983 20.305L47.7886 20.2536C47.7765 20.1851 47.7667 20.1166 47.7546 20.0505C47.7109 19.7961 47.6574 19.5246 47.5918 19.2384C47.5894 19.2261 47.587 19.2164 47.5845 19.2041C47.553 19.0671 47.519 18.9228 47.4801 18.776C47.4631 18.71 47.4461 18.6439 47.4266 18.5779C47.4121 18.5216 47.3975 18.4678 47.3829 18.4091C47.3708 18.365 47.3586 18.321 47.3441 18.277C47.1108 17.4403 46.8193 16.6159 46.4695 15.8038C46.3796 15.5934 46.3092 15.4344 46.2655 15.3414L46.1999 15.1995L46.1343 15.0601C46.1343 15.0601 46.127 15.0479 46.1246 15.0405L46.11 15.0087C46.076 14.9402 46.0322 14.8497 45.9982 14.7837L45.9812 14.7519C45.9812 14.7519 45.9715 14.7299 45.9642 14.7201L45.8865 14.5684C45.8549 14.5072 45.8136 14.429 45.782 14.3678L45.6897 14.1966C45.6727 14.1648 45.6557 14.133 45.6363 14.1012C45.6314 14.0914 45.6266 14.0816 45.6217 14.0718C45.6144 14.0596 45.6096 14.0498 45.6023 14.0376C45.5925 14.018 45.5804 13.9984 45.5731 13.9837L45.4662 13.7954C45.4395 13.7489 45.4055 13.6902 45.3763 13.6388C45.3472 13.5899 45.318 13.541 45.2889 13.492L45.284 13.4847C45.2646 13.4529 45.2476 13.4235 45.2282 13.3917C45.1941 13.3355 45.1528 13.2694 45.1188 13.2156L45.0411 13.0933C45.0047 13.037 44.9707 12.9832 44.9342 12.9269C44.9269 12.9172 44.9221 12.9074 44.9148 12.8976C44.8881 12.856 44.8613 12.8144 44.8346 12.7728L44.786 12.6994L44.7253 12.6089C44.7253 12.6089 44.718 12.5991 44.7156 12.5943L44.6961 12.5625C44.6864 12.5478 44.6743 12.5282 44.6621 12.5135C44.633 12.4695 44.6014 12.4255 44.5723 12.3814C44.5528 12.3521 44.531 12.3227 44.5139 12.2983C44.4799 12.2493 44.4459 12.2004 44.4119 12.1539L44.3245 12.0316C44.3075 12.0096 44.288 11.9827 44.271 11.9582C44.2443 11.9215 44.2176 11.8848 44.1909 11.8481C44.1641 11.8114 44.1374 11.7772 44.1131 11.7429C44.0694 11.6842 44.0257 11.628 43.9795 11.5717L43.8556 11.4151C43.841 11.398 43.8289 11.3809 43.8143 11.3638L43.8046 11.3515C43.7682 11.3075 43.7293 11.2586 43.688 11.2097C43.6297 11.1387 43.5714 11.0702 43.5155 11.0017C43.4742 10.9503 43.4329 10.9039 43.3965 10.8598C43.3503 10.806 43.3042 10.7546 43.2604 10.7033C43.2119 10.6495 43.1657 10.5932 43.1171 10.5394C43.0855 10.5051 43.0564 10.4733 43.0272 10.4415L42.9471 10.351C42.9252 10.329 42.9033 10.307 42.8839 10.285C42.8596 10.2605 42.8377 10.2336 42.8135 10.2091C42.5487 9.92535 42.2742 9.65137 41.9924 9.38472C41.9292 9.32601 41.8685 9.2673 41.8126 9.21593C41.7494 9.15722 41.6863 9.09851 41.6207 9.0398C41.5818 9.0031 41.5405 8.96641 41.5065 8.93705C41.4118 8.85388 41.317 8.77315 41.2247 8.69242C41.1907 8.66551 41.1591 8.63616 41.1251 8.60925C40.9891 8.49427 40.853 8.38664 40.7243 8.28389C40.6611 8.23497 40.598 8.18604 40.5348 8.13711C40.5397 8.13956 40.5445 8.14445 40.5494 8.1469C40.5445 8.14201 40.5372 8.13956 40.5324 8.13467C40.5202 8.12488 40.5056 8.1151 40.4935 8.10531C40.3915 8.02703 40.2919 7.9512 40.1996 7.8827C40.1242 7.82644 40.0489 7.77262 39.9736 7.7188C39.8012 7.59404 39.6627 7.49863 39.5679 7.43503C39.0967 7.11457 38.6108 6.81857 38.1128 6.54214C37.8189 6.37334 37.5516 6.2339 37.2067 6.07C35.788 5.3777 34.2818 4.86153 32.715 4.53618C32.715 4.53618 32.715 4.53618 32.7125 4.53618C32.5571 4.50438 32.4016 4.47258 32.2437 4.44567C32.2242 4.44077 32.2024 4.43833 32.183 4.43588C31.9109 4.38696 31.6364 4.34537 31.3619 4.30623C31.34 4.30378 31.3181 4.29889 31.2963 4.29644L31.272 4.29155C31.272 4.29155 31.2574 4.29155 31.2501 4.2891C31.238 4.2891 31.2282 4.28666 31.2185 4.28421C31.2088 4.28421 31.2015 4.28421 31.1942 4.28177C31.1189 4.27198 31.0412 4.2622 30.9659 4.25486C30.8104 4.23773 30.6598 4.22305 30.5116 4.20838C30.429 4.20104 30.344 4.1937 30.2614 4.18881C30.0913 4.17657 29.9286 4.16434 29.7731 4.157C29.7658 4.157 29.7585 4.157 29.7512 4.157H29.7318C29.6954 4.157 29.6589 4.15211 29.6225 4.15211C28.8087 4.11542 28.2645 4.14233 28.2305 4.14233C27.9584 4.14966 27.6815 4.16679 27.4021 4.18881C27.2054 4.20348 27.0013 4.22061 26.7875 4.24262C26.773 4.24262 26.7584 4.24263 26.7438 4.24507L26.7098 4.24996C26.2822 4.29644 25.8134 4.36249 25.2692 4.46524H25.2571C25.2571 4.46524 25.2498 4.46768 25.2449 4.47013C25.2377 4.47013 25.2304 4.47257 25.2231 4.47502C24.9753 4.52395 24.7056 4.58511 24.4287 4.65605C24.1882 4.71476 23.9526 4.77347 23.7461 4.8224L22.9881 5.06458C22.7404 5.14041 22.5023 5.21869 22.2837 5.28964C21.8658 5.42663 21.3532 5.6419 20.8188 5.89387C20.8188 5.89387 20.8164 5.89387 20.8139 5.89387H20.8091C20.35 6.11404 19.8738 6.35866 19.4244 6.60818L19.4074 6.61552C19.4074 6.61552 19.3953 6.62286 19.388 6.62531C18.8074 6.94822 18.2778 7.27847 17.8964 7.56224C16.451 8.63616 16.3319 8.72422 15.4817 9.54373C14.4104 10.5785 13.7642 11.4347 13.4532 11.8457C12.5593 13.0346 12.0103 14.0743 11.8305 14.4167C11.1892 15.635 10.9049 16.4349 10.628 17.2104C10.458 17.6899 10.3486 18.0372 10.2442 18.4507C10.1106 18.9546 9.99882 19.4732 9.90408 20.0016C9.89193 20.0628 9.87736 20.1264 9.86521 20.1924C9.75346 20.7306 9.66115 21.462 9.63686 22.0125C9.61985 22.421 9.58098 22.9641 9.57856 23.3726C9.57613 23.7787 9.58341 24.3169 9.61499 24.7254C9.64414 25.1804 9.65629 25.3688 9.70973 25.7675C9.76318 26.2641 9.83606 26.7509 9.92837 27.2255V27.2304C9.95752 27.3845 9.9891 27.5386 10.0231 27.6878C10.062 27.8664 10.1033 28.0426 10.1446 28.1942C10.1664 28.275 10.1956 28.3899 10.232 28.5196C10.2369 28.5392 10.2417 28.5587 10.249 28.5783C10.2855 28.7128 10.3316 28.867 10.3826 29.0382C10.3948 29.0749 10.4045 29.114 10.4167 29.1507C10.5697 29.6571 10.7786 30.2809 11.0507 30.9292C11.109 31.0711 11.1916 31.2643 11.2912 31.4918C11.3203 31.5554 11.3471 31.6215 11.3738 31.6826L11.5293 32.0104C11.5633 32.0789 11.607 32.1694 11.641 32.2355L11.6823 32.3162C11.6823 32.3162 11.6872 32.326 11.6896 32.3309L11.7503 32.4508C11.7819 32.5119 11.8232 32.5902 11.8548 32.6514L11.9592 32.8471C11.9592 32.8471 11.9665 32.8593 11.969 32.8642C12.3819 33.6225 12.8192 34.3075 13.2735 34.9289L13.3172 34.9876C13.3561 35.0389 13.3998 35.1001 13.446 35.1613C13.4508 35.1662 13.4532 35.1735 13.4581 35.1784C13.497 35.2322 13.5383 35.2836 13.5699 35.3301L13.8322 35.6676C13.9537 35.8169 14.1189 36.015 14.2403 36.1618C14.3545 36.2988 14.4978 36.4602 14.6363 36.6095H14.6387C14.6387 36.6095 14.6387 36.6144 14.6412 36.6168C14.7116 36.6926 14.7796 36.7685 14.8404 36.8321C15.0226 37.0253 15.2752 37.2749 15.4623 37.4632C15.6542 37.6565 15.9287 37.8962 16.1303 38.0797C16.5724 38.4564 17.1773 38.9432 17.6462 39.2857C18.013 39.5548 18.5159 39.8924 18.9094 40.1174C19.009 40.1737 19.1135 40.2324 19.2228 40.2911C19.5361 40.4673 19.8617 40.6458 20.1338 40.7951L20.4714 40.9516C20.7362 41.0813 21.0034 41.206 21.2731 41.3235L21.4067 41.3846C21.7201 41.529 22.1233 41.6733 22.4926 41.8005C22.648 41.8543 22.806 41.9081 22.9639 41.9595C23.3865 42.0989 23.9258 42.2628 24.3461 42.3485C24.3607 42.3509 24.3753 42.3533 24.3898 42.3582C24.7688 42.4463 25.1526 42.5246 25.5389 42.5906C25.6215 42.6053 25.7065 42.6224 25.7818 42.6371L26.2215 42.6909C26.3381 42.7056 26.4547 42.7203 26.5738 42.735L27.2418 42.8157C27.4969 42.8475 27.973 42.8842 28.731 42.8817C28.7431 42.8817 28.7577 42.8817 28.7698 42.8817H28.8451C29.2411 42.8744 29.7027 42.8622 30.2541 42.8279C30.2663 42.8279 30.2784 42.8279 30.2905 42.8255C30.8298 42.7937 31.7797 42.6983 32.9749 42.4267C32.9846 42.4267 32.9968 42.4218 33.0065 42.4194C33.281 42.3558 33.5676 42.2849 33.864 42.2017H33.8689C33.8689 42.2017 33.8664 42.2017 33.864 42.2017C33.9903 42.1674 34.1191 42.1307 34.2503 42.0916C34.43 42.0402 34.6074 41.9864 34.7604 41.9326C34.809 41.9155 34.8624 41.8959 34.9135 41.8788C35.1831 41.7883 35.4576 41.688 35.7394 41.5779C36.1232 41.4311 36.5095 41.2745 36.8253 41.118C36.8253 41.118 36.8253 41.118 36.8277 41.118C37.3719 40.866 37.9306 40.5773 38.4942 40.2495C38.8416 40.0514 39.1793 39.8435 39.4781 39.6331C39.8084 39.4129 40.1388 39.1756 40.4692 38.9237C40.5469 38.8674 40.6174 38.8111 40.6878 38.7549C41.1275 38.4075 41.5624 38.0308 41.9924 37.6222C42.0069 37.61 42.0239 37.5929 42.0385 37.5806L42.0677 37.5513C42.4053 37.2284 42.7381 36.8883 43.0661 36.5238V36.5336Z" fill="url(#paint0_radial_231_422)"/>
<mask id="mask1_231_422" style="mask-type:luminance" maskUnits="userSpaceOnUse" x="9" y="4" width="40" height="39">
<path d="M15.9622 9.07468C15.9622 9.07468 15.9865 9.05266 15.9962 9.04043C16.0594 8.98172 16.4505 8.61967 17.0797 8.13775C17.1355 8.09371 17.1914 8.05213 17.2473 8.01054C17.3275 7.94938 17.4101 7.88823 17.4951 7.82707C19.5575 6.31282 21.8653 5.25357 24.2776 4.66647C24.2825 4.66647 24.2898 4.66402 24.2946 4.66157C24.557 4.59797 24.8218 4.53926 25.0866 4.48789C25.0866 4.48789 25.0866 4.48789 25.089 4.48789C26.3595 4.23592 27.6519 4.1136 28.9491 4.12583C29.5613 4.12583 30.2731 4.16498 30.8585 4.23592C31.2569 4.27995 31.6529 4.33622 32.0489 4.40471C32.0683 4.40716 32.0902 4.40961 32.1096 4.41205L32.1606 4.42184C32.2286 4.43407 32.2966 4.4463 32.3622 4.45853C32.6149 4.50501 32.8821 4.56127 33.1688 4.62732C33.1688 4.62732 33.1882 4.63222 33.2003 4.63466C33.3364 4.66646 33.4797 4.70316 33.6255 4.7423C33.6911 4.75942 33.7566 4.77899 33.8222 4.79612C33.8781 4.8108 33.9316 4.82547 33.9899 4.8426C34.0336 4.85483 34.0773 4.86951 34.121 4.88174C34.9494 5.12147 35.7681 5.41992 36.5722 5.77708C36.7811 5.86759 36.939 5.94098 37.0289 5.98501L37.1698 6.05351L37.3082 6.11956C37.3082 6.11956 37.3204 6.1269 37.3277 6.12935L37.3593 6.14402C37.4273 6.17827 37.5147 6.22231 37.5827 6.25655L37.6143 6.27368C37.6143 6.27368 37.6362 6.28591 37.6459 6.2908L37.7965 6.36908C37.8573 6.40088 37.935 6.44492 37.9957 6.47672L38.1658 6.57212C38.1974 6.58925 38.2289 6.60882 38.2605 6.62594C38.2702 6.63083 38.28 6.63573 38.2897 6.64307C38.3018 6.6504 38.3115 6.6553 38.3237 6.66264C38.3431 6.67242 38.3625 6.68465 38.3771 6.69444L38.5617 6.80207C38.6079 6.82898 38.6662 6.86323 38.7172 6.89503C38.7658 6.92439 38.8144 6.95374 38.863 6.9831L38.8703 6.98799C38.9018 7.00756 38.931 7.02469 38.9626 7.04426C39.0185 7.0785 39.084 7.12254 39.1375 7.15434L39.2589 7.23262C39.3148 7.26932 39.3683 7.30356 39.4241 7.34026C39.4339 7.3476 39.4436 7.35249 39.4533 7.35983C39.4946 7.38674 39.5359 7.41365 39.5772 7.443L39.6501 7.49193L39.7375 7.55308C39.7375 7.55308 39.7472 7.56042 39.7521 7.56287L39.7812 7.58489C39.7958 7.59467 39.8128 7.6069 39.8298 7.61914C39.8736 7.64849 39.9173 7.68029 39.9586 7.71209C39.9877 7.73166 40.0169 7.75368 40.0412 7.7708C40.0898 7.80505 40.1359 7.84175 40.1821 7.87599L40.3035 7.96651C40.3254 7.98363 40.3521 8.0032 40.3764 8.02033C40.4129 8.04724 40.4493 8.07414 40.4833 8.1035C40.5197 8.13041 40.5538 8.15732 40.5878 8.18423C40.6461 8.22826 40.7019 8.27474 40.7578 8.31877L40.9133 8.44353C40.9303 8.45821 40.9473 8.47044 40.9643 8.48512L40.9764 8.49491C41.0202 8.5316 41.0688 8.57074 41.1173 8.61233C41.1878 8.67104 41.2558 8.72975 41.3238 8.78846C41.3724 8.83005 41.421 8.87163 41.4647 8.90833C41.5182 8.95481 41.5668 9.00129 41.6178 9.04777C41.6712 9.09669 41.7271 9.14562 41.7805 9.19454C41.8145 9.22635 41.8461 9.2557 41.8777 9.28506L41.9676 9.36578C41.9895 9.3878 42.0113 9.40982 42.0332 9.42939C42.0575 9.45385 42.0818 9.47587 42.1061 9.50033C42.3854 9.76942 42.6575 10.0483 42.9199 10.3321C42.9782 10.3957 43.034 10.4568 43.0875 10.5155C43.1458 10.5791 43.2041 10.6452 43.26 10.7088C43.294 10.7479 43.3304 10.7895 43.362 10.8238C43.4446 10.9192 43.5248 11.0146 43.6025 11.11C43.6292 11.1442 43.6584 11.176 43.6851 11.2103C43.7968 11.3497 43.9037 11.4843 44.0057 11.6164C44.0543 11.68 44.1029 11.7436 44.1515 11.8072C44.1491 11.8023 44.1442 11.7974 44.1418 11.7925C44.1466 11.7974 44.1491 11.8047 44.1539 11.8096C44.1637 11.8219 44.1734 11.8365 44.1831 11.8488C44.2608 11.954 44.3337 12.0518 44.4017 12.1472C44.4552 12.223 44.511 12.2989 44.5645 12.3772C44.6859 12.5509 44.7807 12.6927 44.8438 12.7881C45.1572 13.2652 45.4487 13.7544 45.7208 14.2584C45.886 14.5544 46.0245 14.8259 46.1848 15.1733C46.8626 16.6068 47.3679 18.1259 47.6812 19.7038C47.6812 19.7038 47.6812 19.7038 47.6812 19.7062C47.7128 19.8653 47.742 20.0218 47.7687 20.1808C47.7711 20.2004 47.776 20.2224 47.7784 20.2444C47.8246 20.5184 47.8659 20.7948 47.8999 21.0713C47.9023 21.0933 47.9072 21.1153 47.9096 21.1373L47.9144 21.1618C47.9144 21.1618 47.9144 21.1765 47.9144 21.1838C47.9144 21.196 47.9169 21.2058 47.9193 21.2181C47.9193 21.2278 47.9193 21.2352 47.9217 21.2425C47.9315 21.3183 47.9387 21.3966 47.946 21.4725C47.963 21.629 47.9776 21.7807 47.9873 21.9299C47.9946 22.0131 47.9995 22.0987 48.0068 22.1819C48.0189 22.3531 48.0286 22.517 48.0359 22.6736C48.0359 22.6809 48.0359 22.6883 48.0359 22.6956V22.7176C48.0359 22.7543 48.0383 22.791 48.0408 22.8277C48.0724 23.6497 48.0432 24.1952 48.0408 24.2294C48.0311 24.5034 48.0116 24.7823 47.9873 25.0636C47.9728 25.2618 47.9533 25.4673 47.9315 25.6825C47.9315 25.6972 47.929 25.7119 47.929 25.7266L47.9242 25.7608C47.8756 26.1914 47.8076 26.6635 47.7007 27.2115V27.2237C47.7007 27.2237 47.6958 27.231 47.6958 27.2359C47.6958 27.2433 47.6934 27.2506 47.691 27.2579C47.6424 27.5075 47.5792 27.779 47.5063 28.0579C47.448 28.2976 47.3873 28.5373 47.3387 28.7428L47.0934 29.5036C47.0156 29.7531 46.9379 29.9904 46.865 30.2106C46.7265 30.6289 46.5079 31.1451 46.2553 31.6808C46.2553 31.6808 46.2553 31.6833 46.2553 31.6857V31.6906C46.0342 32.153 45.7888 32.63 45.5386 33.0801L45.5313 33.0972C45.5313 33.0972 45.524 33.1095 45.5192 33.1168C45.1937 33.699 44.8633 34.2299 44.5815 34.6115C43.5053 36.0621 43.4179 36.1795 42.5992 37.0309C41.5668 38.1023 40.7117 38.7482 40.3011 39.0588C39.1156 39.9517 38.0783 40.4972 37.7382 40.6783C36.526 41.3168 35.7292 41.5981 34.9567 41.8721C34.4781 42.0409 34.1332 42.1485 33.7226 42.2512C33.2222 42.3833 32.7072 42.4934 32.18 42.5839C32.1169 42.5962 32.0562 42.6084 31.9906 42.6231C31.4537 42.7307 30.7273 42.8212 30.1807 42.8408C29.7751 42.8555 29.2358 42.8897 28.8301 42.8922C28.4268 42.8922 27.8924 42.8824 27.4867 42.8481C27.0373 42.8163 26.8502 42.8041 26.4518 42.7478C25.9587 42.6916 25.4752 42.6133 25.004 42.5179H24.9991C24.8461 42.4861 24.6954 42.4543 24.5448 42.42C24.3675 42.3784 24.1926 42.3369 24.042 42.2953C23.9618 42.2733 23.8476 42.2414 23.7189 42.2048C23.6994 42.1999 23.68 42.1925 23.6606 42.1876C23.527 42.1485 23.3739 42.1045 23.2039 42.0506C23.1674 42.0384 23.1286 42.0286 23.0921 42.0164C22.5917 41.8574 21.9722 41.6446 21.3285 41.3681C21.1876 41.307 20.9981 41.2262 20.7722 41.1211C20.709 41.0917 20.6434 41.0623 20.5827 41.0354L20.2572 40.8789C20.1891 40.8446 20.1017 40.8006 20.0337 40.7663L19.9559 40.7248C19.9559 40.7248 19.9462 40.7199 19.9414 40.7174L19.8223 40.6538C19.7616 40.622 19.6839 40.578 19.6231 40.5462L19.4288 40.4385C19.4288 40.4385 19.4166 40.4312 19.4118 40.4288C18.6611 40.0104 17.9834 39.5628 17.3712 39.1029L17.3129 39.0588C17.2619 39.0197 17.2011 38.9732 17.1404 38.9267C17.1355 38.9218 17.1283 38.9169 17.1234 38.9145C17.0724 38.8754 17.0189 38.8338 16.9752 38.7995L16.6424 38.5329C16.4942 38.4106 16.2999 38.2418 16.1541 38.117C16.0181 38.002 15.8602 37.8553 15.712 37.7158H15.7096C15.7096 37.7158 15.7096 37.7109 15.7071 37.7109C15.6318 37.64 15.5589 37.5715 15.4934 37.5079C15.3014 37.322 15.0561 37.0651 14.869 36.8767C14.6771 36.6835 14.4439 36.4046 14.2593 36.2016C13.8876 35.7539 13.409 35.1423 13.0714 34.6677C12.8066 34.2984 12.4738 33.7895 12.2527 33.3908C12.1968 33.2905 12.1385 33.1828 12.0802 33.0752C11.9077 32.7596 11.7328 32.4294 11.5847 32.1554L11.4316 31.8154C11.3029 31.5463 11.1814 31.2772 11.0672 31.0056L11.0065 30.8711C10.8656 30.5555 10.7223 30.147 10.5984 29.7752C10.5449 29.6186 10.4939 29.4596 10.4429 29.3006C10.3069 28.8725 10.149 28.3319 10.0664 27.9062C10.0639 27.8915 10.0615 27.8768 10.0591 27.8622C9.97405 27.4805 9.89874 27.094 9.83558 26.7026C9.821 26.6195 9.804 26.5338 9.78942 26.458L9.73841 26.0152C9.72383 25.8978 9.70926 25.7779 9.69711 25.6605L9.61937 24.9878C9.59022 24.7309 9.55621 24.2514 9.5635 23.4858C9.5635 23.4735 9.5635 23.4589 9.5635 23.4466V23.3708C9.57322 22.972 9.59022 22.5072 9.62423 21.9519C9.62423 21.9397 9.62423 21.9275 9.62666 21.9152C9.6631 21.3722 9.7627 20.4157 10.0396 19.2145C10.0396 19.2048 10.0445 19.1925 10.0469 19.1827C10.1101 18.9063 10.183 18.6201 10.268 18.3192V18.3143C10.268 18.3143 10.268 18.3168 10.268 18.3192C10.3044 18.192 10.3409 18.0623 10.3797 17.9327C10.4332 17.7517 10.4866 17.5731 10.5401 17.419C10.5571 17.37 10.5765 17.3162 10.5935 17.2648C10.6858 16.9933 10.7854 16.7169 10.8972 16.4356C11.0454 16.049 11.2033 15.6625 11.3612 15.3445C11.3612 15.3445 11.3612 15.3445 11.3612 15.3421C11.6138 14.7941 11.9029 14.2339 12.2333 13.6688C12.43 13.3214 12.6414 12.9814 12.8503 12.683C13.0714 12.3527 13.3094 12.02 13.5621 11.6898C13.618 11.6139 13.6738 11.5405 13.7321 11.4696C14.0795 11.0293 14.4561 10.5938 14.8642 10.1633C14.8763 10.1486 14.8933 10.1315 14.9055 10.1168L14.9346 10.0874C15.2577 9.74985 15.5978 9.41716 15.9598 9.08935L15.9622 9.07468Z" fill="white"/>
</mask>
<g mask="url(#mask1_231_422)">
<path d="M46.6328 30.9675C46.6911 30.8501 46.7446 30.7278 46.7931 30.6055C46.7421 30.7204 46.6887 30.8428 46.6328 30.9675Z" fill="url(#paint1_linear_231_422)"/>
<path d="M13.1172 12.0123C13.1803 11.9169 13.2459 11.8239 13.3067 11.7383C13.2411 11.8288 13.1779 11.9193 13.1172 12.0123Z" fill="url(#paint2_linear_231_422)"/>
<path d="M41.8605 20.6608C38.6539 23.5914 36.0513 25.5672 34.0528 26.5881C30.6106 28.347 27.5643 29.1421 26.0557 29.4601C25.8686 29.4992 25.6597 29.5433 25.5139 29.7096C24.3309 31.0795 28.5141 34.6438 29.323 35.1746C29.2988 35.1575 29.2672 35.1355 29.2429 35.1183C32.8309 30.4043 39.628 26.6591 43.5027 27.2584C43.8477 23.863 42.8808 19.9783 41.8605 20.6608Z" fill="#412121"/>
<path d="M36.2871 29.1917C33.2019 30.9408 31.0301 32.7681 29.2422 35.1141C36.2069 39.8991 42.6251 34.8206 43.502 27.2591C41.6218 26.9386 39.1949 27.5893 36.2871 29.1892" fill="#FF3B62"/>
<path d="M20.5119 18.6374C19.7467 18.9921 19.8681 20.2104 20.5289 20.5015C20.5532 20.5113 20.5872 20.5235 20.6115 20.5309C21.9937 20.9223 22.9071 21.1816 25.0643 21.5999C23.1792 24.2272 22.2334 25.5514 22.2269 25.5727C21.9646 26.4117 22.6812 27.1725 23.3638 27.0551C23.6845 26.9988 23.8473 26.7909 23.908 26.7126C27.1924 22.1845 27.6612 21.436 27.7098 21.3259C27.9479 20.7779 27.6369 20.0049 26.8936 19.8679C24.4011 19.4667 23.0262 19.205 20.9589 18.6179C20.7645 18.5616 20.609 18.6007 20.5119 18.6423" fill="#412121"/>
<path d="M35.1121 10.5925C35.0174 10.6732 34.9882 10.7441 34.9834 10.886C34.9494 12.2902 34.9275 13.303 34.1331 15.8789C34.0967 15.9988 34.0918 16.1015 34.0943 16.1676C34.1137 16.6935 34.5485 17.2806 35.2166 17.3124C36.9973 17.332 38.6783 17.3516 40.6193 17.5032C40.6995 17.5106 40.7553 17.4983 40.7942 17.4886C41.3092 17.3516 41.2509 16.4244 40.6946 15.8618C40.4225 15.5853 40.1893 15.556 40.0922 15.5438C39.0743 15.485 38.1147 15.4312 36.3025 15.4092C36.8782 12.6351 36.7981 11.7447 36.7373 11.4903C36.5916 10.8885 35.5786 10.3062 35.1413 10.5753C35.1316 10.5802 35.1194 10.59 35.1121 10.5949" fill="#412121"/>
</g>
</g>
<defs>
<radialGradient id="paint0_radial_231_422" cx="0" cy="0" r="1" gradientUnits="userSpaceOnUse" gradientTransform="translate(27.3979 26.4686) rotate(45.3799) scale(22.1966 22.1951)">
<stop stop-color="#F79F40"/>
<stop offset="0.16" stop-color="#F7A442"/>
<stop offset="0.37" stop-color="#F8B449"/>
<stop offset="0.6" stop-color="#F9CE55"/>
<stop offset="0.77" stop-color="#FBE660"/>
<stop offset="0.91" stop-color="#FBF36F"/>
<stop offset="0.93" stop-color="#FBF672"/>
<stop offset="0.95" stop-color="#FBF676"/>
<stop offset="0.96" stop-color="#FBF782"/>
<stop offset="0.98" stop-color="#FBF897"/>
<stop offset="0.99" stop-color="#FCFAB4"/>
<stop offset="1" stop-color="#FDFBC2"/>
</radialGradient>
<linearGradient id="paint1_linear_231_422" x1="46.6512" y1="30.7583" x2="46.7541" y2="30.8623" gradientUnits="userSpaceOnUse">
<stop stop-color="#19B79C"/>
<stop offset="0.4" stop-color="#1DBB9D"/>
<stop offset="0.82" stop-color="#29C7A2"/>
<stop offset="1" stop-color="#31CFA6"/>
</linearGradient>
<linearGradient id="paint2_linear_231_422" x1="13.1793" y1="11.8801" x2="13.2221" y2="11.9235" gradientUnits="userSpaceOnUse">
<stop stop-color="#19B79C"/>
<stop offset="0.4" stop-color="#1DBB9D"/>
<stop offset="0.82" stop-color="#29C7A2"/>
<stop offset="1" stop-color="#31CFA6"/>
</linearGradient>
</defs>
</svg>
