<svg width="74" height="116" viewBox="0 0 74 116" fill="none" xmlns="http://www.w3.org/2000/svg">
<mask id="path-1-outside-1_224_13" maskUnits="userSpaceOnUse" x="9" y="26" width="57" height="70" fill="black">
<rect fill="white" x="9" y="26" width="57" height="70"/>
<path d="M38.666 95C31.1993 95 25.066 93.6333 20.266 90.9C15.5327 88.1 12.2327 83.9333 10.366 78.4L28.966 70.7C29.0327 73.0333 29.4327 74.8667 30.166 76.2C30.8993 77.5333 31.8993 78.4667 33.166 79C34.4993 79.4667 35.8994 79.7 37.366 79.7C38.8327 79.7 40.0994 79.4667 41.166 79C42.2993 78.4667 43.166 77.7 43.766 76.7C44.366 75.7 44.666 74.5333 44.666 73.2C44.666 71.6667 44.3327 70.4667 43.666 69.6C43.066 68.7333 42.2327 68.1333 41.166 67.8C40.0994 67.4 38.866 67.2 37.466 67.2C36.5327 67.2 35.6994 67.2333 34.966 67.3C34.2994 67.3667 33.4994 67.4667 32.566 67.6V55.2C33.0993 55.2667 33.6327 55.3333 34.166 55.4C34.6994 55.4 35.366 55.4 36.166 55.4C38.6327 55.4 40.4327 54.8667 41.566 53.8C42.6994 52.7333 43.266 51 43.266 48.6C43.266 46.6 42.6994 45.0667 41.566 44C40.4994 42.8667 38.9994 42.3 37.066 42.3C34.9994 42.3 33.2327 42.9333 31.766 44.2C30.366 45.4 29.566 47.6333 29.366 50.9L11.666 45.2C12.1993 41.2 13.6993 37.8667 16.166 35.2C18.6993 32.5333 21.866 30.5 25.666 29.1C29.5327 27.7 33.7993 27 38.466 27C43.7327 27 48.166 27.7333 51.766 29.2C55.4327 30.6667 58.1994 32.7667 60.066 35.5C61.9994 38.2333 62.966 41.5667 62.966 45.5C62.966 48.5 62.466 50.9667 61.466 52.9C60.5327 54.8333 59.3327 56.3667 57.866 57.5C56.3994 58.6333 54.9994 59.4667 53.666 60C52.3327 60.4667 51.2994 60.7 50.566 60.7V61.1C51.366 61.1 52.4994 61.2667 53.966 61.6C55.4994 61.9333 57.0327 62.5667 58.566 63.5C60.166 64.4333 61.4993 65.8333 62.566 67.7C63.6994 69.5 64.266 71.9 64.266 74.9C64.266 79.0333 63.1327 82.6333 60.866 85.7C58.5994 88.7 55.5327 91 51.666 92.6C47.7994 94.2 43.466 95 38.666 95Z"/>
</mask>
<path d="M20.266 90.9L19.7569 91.7607L19.764 91.7649L19.7712 91.769L20.266 90.9ZM10.366 78.4L9.98352 77.476L9.1196 77.8337L9.41848 78.7197L10.366 78.4ZM28.966 70.7L29.9656 70.6714L29.9242 69.221L28.5835 69.776L28.966 70.7ZM30.166 76.2L31.0422 75.7181L31.0422 75.7181L30.166 76.2ZM33.166 79L32.778 79.9216L32.8065 79.9336L32.8357 79.9439L33.166 79ZM41.166 79L41.5668 79.9162L41.5794 79.9107L41.5918 79.9048L41.166 79ZM43.666 69.6L42.8438 70.1692L42.8581 70.1898L42.8734 70.2097L43.666 69.6ZM41.166 67.8L40.8149 68.7363L40.8411 68.7461L40.8677 68.7545L41.166 67.8ZM34.966 67.3L34.8755 66.3041L34.8665 66.305L34.966 67.3ZM32.566 67.6H31.566V68.753L32.7074 68.5899L32.566 67.6ZM32.566 55.2L32.6901 54.2077L31.566 54.0672V55.2H32.566ZM34.166 55.4L34.042 56.3923L34.1038 56.4H34.166V55.4ZM41.566 53.8L42.2514 54.5282L42.2514 54.5282L41.566 53.8ZM41.566 44L40.8378 44.6854L40.8586 44.7074L40.8807 44.7282L41.566 44ZM31.766 44.2L32.4168 44.9593L32.4196 44.9568L31.766 44.2ZM29.366 50.9L29.0595 51.8519L30.2854 52.2467L30.3641 50.9611L29.366 50.9ZM11.666 45.2L10.6748 45.0678L10.5644 45.8958L11.3595 46.1519L11.666 45.2ZM16.166 35.2L15.441 34.5112L15.4319 34.521L16.166 35.2ZM25.666 29.1L25.3256 28.1597L25.3203 28.1617L25.666 29.1ZM51.766 29.2L51.3887 30.1261L51.3946 30.1285L51.766 29.2ZM60.066 35.5L59.2402 36.064L59.2449 36.0707L59.2496 36.0775L60.066 35.5ZM61.466 52.9L60.5778 52.4406L60.5715 52.4528L60.5655 52.4652L61.466 52.9ZM57.866 57.5L57.2546 56.7087L57.2546 56.7087L57.866 57.5ZM53.666 60L53.9964 60.9439L54.0171 60.9366L54.0374 60.9285L53.666 60ZM50.566 60.7V59.7H49.566V60.7H50.566ZM50.566 61.1H49.566V62.1H50.566V61.1ZM53.966 61.6L53.7444 62.5752L53.7536 62.5772L53.966 61.6ZM58.566 63.5L58.0461 64.3542L58.0541 64.3591L58.0621 64.3638L58.566 63.5ZM62.566 67.7L61.6978 68.1961L61.7084 68.2147L61.7198 68.2328L62.566 67.7ZM60.866 85.7L61.6639 86.3029L61.6702 86.2944L60.866 85.7ZM51.666 92.6L52.0484 93.524L52.0484 93.524L51.666 92.6ZM38.666 94C31.3142 94 25.3662 92.6535 20.7609 90.031L19.7712 91.769C24.7658 94.6132 31.0845 96 38.666 96V94ZM20.7752 90.0393C16.2615 87.3693 13.1088 83.4019 11.3136 78.0803L9.41848 78.7197C11.3566 84.4648 14.8039 88.8307 19.7569 91.7607L20.7752 90.0393ZM10.7485 79.324L29.3485 71.624L28.5835 69.776L9.98352 77.476L10.7485 79.324ZM27.9664 70.7286C28.0354 73.1436 28.4498 75.1547 29.2898 76.6819L31.0422 75.7181C30.4155 74.5786 30.0299 72.9231 29.9656 70.6714L27.9664 70.7286ZM29.2898 76.6819C30.1193 78.1902 31.2813 79.2914 32.778 79.9216L33.5541 78.0784C32.5174 77.6419 31.6794 76.8765 31.0422 75.7181L29.2898 76.6819ZM32.8357 79.9439C34.2792 80.4491 35.7912 80.7 37.366 80.7V78.7C36.0075 78.7 34.7195 78.4842 33.4964 78.0561L32.8357 79.9439ZM37.366 80.7C38.936 80.7 40.3455 80.4505 41.5668 79.9162L40.7652 78.0838C39.8532 78.4828 38.7293 78.7 37.366 78.7V80.7ZM41.5918 79.9048C42.8906 79.2936 43.9138 78.3973 44.6235 77.2145L42.9085 76.1855C42.4182 77.0027 41.7081 77.6397 40.7402 78.0952L41.5918 79.9048ZM44.6235 77.2145C45.3295 76.0378 45.666 74.6881 45.666 73.2H43.666C43.666 74.3786 43.4025 75.3622 42.9085 76.1855L44.6235 77.2145ZM45.666 73.2C45.666 71.5329 45.3045 70.0899 44.4586 68.9903L42.8734 70.2097C43.3608 70.8434 43.666 71.8004 43.666 73.2H45.666ZM44.4882 69.0308C43.7534 67.9694 42.7299 67.241 41.4643 66.8455L40.8677 68.7545C41.7354 69.0256 42.3786 69.4972 42.8438 70.1692L44.4882 69.0308ZM41.5171 66.8637C40.3158 66.4132 38.9594 66.2 37.466 66.2V68.2C38.7726 68.2 39.8829 68.3868 40.8149 68.7363L41.5171 66.8637ZM37.466 66.2C36.51 66.2 35.6456 66.2341 34.8755 66.3041L35.0566 68.2959C35.7531 68.2326 36.5553 68.2 37.466 68.2V66.2ZM34.8665 66.305C34.1815 66.3735 33.3667 66.4755 32.4246 66.6101L32.7074 68.5899C33.632 68.4579 34.4172 68.3599 35.0655 68.295L34.8665 66.305ZM33.566 67.6V55.2H31.566V67.6H33.566ZM32.442 56.1923C32.9753 56.2589 33.5086 56.3256 34.042 56.3923L34.2901 54.4077C33.7567 54.3411 33.2234 54.2744 32.6901 54.2077L32.442 56.1923ZM34.166 56.4C34.1671 56.4 34.1681 56.4 34.1691 56.4C34.1702 56.4 34.1712 56.4 34.1723 56.4C34.1733 56.4 34.1744 56.4 34.1754 56.4C34.1765 56.4 34.1775 56.4 34.1785 56.4C34.1796 56.4 34.1806 56.4 34.1817 56.4C34.1827 56.4 34.1838 56.4 34.1848 56.4C34.1859 56.4 34.1869 56.4 34.188 56.4C34.189 56.4 34.1901 56.4 34.1911 56.4C34.1922 56.4 34.1932 56.4 34.1943 56.4C34.1953 56.4 34.1964 56.4 34.1974 56.4C34.1985 56.4 34.1995 56.4 34.2006 56.4C34.2016 56.4 34.2027 56.4 34.2037 56.4C34.2048 56.4 34.2058 56.4 34.2069 56.4C34.208 56.4 34.209 56.4 34.2101 56.4C34.2111 56.4 34.2122 56.4 34.2132 56.4C34.2143 56.4 34.2154 56.4 34.2164 56.4C34.2175 56.4 34.2185 56.4 34.2196 56.4C34.2206 56.4 34.2217 56.4 34.2228 56.4C34.2238 56.4 34.2249 56.4 34.2259 56.4C34.227 56.4 34.2281 56.4 34.2291 56.4C34.2302 56.4 34.2313 56.4 34.2323 56.4C34.2334 56.4 34.2344 56.4 34.2355 56.4C34.2366 56.4 34.2376 56.4 34.2387 56.4C34.2398 56.4 34.2408 56.4 34.2419 56.4C34.243 56.4 34.244 56.4 34.2451 56.4C34.2462 56.4 34.2472 56.4 34.2483 56.4C34.2494 56.4 34.2504 56.4 34.2515 56.4C34.2526 56.4 34.2536 56.4 34.2547 56.4C34.2558 56.4 34.2569 56.4 34.2579 56.4C34.259 56.4 34.2601 56.4 34.2611 56.4C34.2622 56.4 34.2633 56.4 34.2644 56.4C34.2654 56.4 34.2665 56.4 34.2676 56.4C34.2687 56.4 34.2697 56.4 34.2708 56.4C34.2719 56.4 34.273 56.4 34.274 56.4C34.2751 56.4 34.2762 56.4 34.2773 56.4C34.2783 56.4 34.2794 56.4 34.2805 56.4C34.2816 56.4 34.2827 56.4 34.2837 56.4C34.2848 56.4 34.2859 56.4 34.287 56.4C34.2881 56.4 34.2891 56.4 34.2902 56.4C34.2913 56.4 34.2924 56.4 34.2935 56.4C34.2945 56.4 34.2956 56.4 34.2967 56.4C34.2978 56.4 34.2989 56.4 34.3 56.4C34.301 56.4 34.3021 56.4 34.3032 56.4C34.3043 56.4 34.3054 56.4 34.3065 56.4C34.3076 56.4 34.3086 56.4 34.3097 56.4C34.3108 56.4 34.3119 56.4 34.313 56.4C34.3141 56.4 34.3152 56.4 34.3163 56.4C34.3174 56.4 34.3184 56.4 34.3195 56.4C34.3206 56.4 34.3217 56.4 34.3228 56.4C34.3239 56.4 34.325 56.4 34.3261 56.4C34.3272 56.4 34.3283 56.4 34.3294 56.4C34.3305 56.4 34.3315 56.4 34.3326 56.4C34.3337 56.4 34.3348 56.4 34.3359 56.4C34.337 56.4 34.3381 56.4 34.3392 56.4C34.3403 56.4 34.3414 56.4 34.3425 56.4C34.3436 56.4 34.3447 56.4 34.3458 56.4C34.3469 56.4 34.348 56.4 34.3491 56.4C34.3502 56.4 34.3513 56.4 34.3524 56.4C34.3535 56.4 34.3546 56.4 34.3557 56.4C34.3568 56.4 34.3579 56.4 34.359 56.4C34.3601 56.4 34.3612 56.4 34.3623 56.4C34.3634 56.4 34.3645 56.4 34.3656 56.4C34.3667 56.4 34.3678 56.4 34.3689 56.4C34.3701 56.4 34.3712 56.4 34.3723 56.4C34.3734 56.4 34.3745 56.4 34.3756 56.4C34.3767 56.4 34.3778 56.4 34.3789 56.4C34.38 56.4 34.3811 56.4 34.3822 56.4C34.3834 56.4 34.3845 56.4 34.3856 56.4C34.3867 56.4 34.3878 56.4 34.3889 56.4C34.39 56.4 34.3911 56.4 34.3922 56.4C34.3934 56.4 34.3945 56.4 34.3956 56.4C34.3967 56.4 34.3978 56.4 34.3989 56.4C34.4 56.4 34.4012 56.4 34.4023 56.4C34.4034 56.4 34.4045 56.4 34.4056 56.4C34.4067 56.4 34.4079 56.4 34.409 56.4C34.4101 56.4 34.4112 56.4 34.4123 56.4C34.4134 56.4 34.4146 56.4 34.4157 56.4C34.4168 56.4 34.4179 56.4 34.4191 56.4C34.4202 56.4 34.4213 56.4 34.4224 56.4C34.4235 56.4 34.4247 56.4 34.4258 56.4C34.4269 56.4 34.428 56.4 34.4292 56.4C34.4303 56.4 34.4314 56.4 34.4325 56.4C34.4337 56.4 34.4348 56.4 34.4359 56.4C34.437 56.4 34.4382 56.4 34.4393 56.4C34.4404 56.4 34.4415 56.4 34.4427 56.4C34.4438 56.4 34.4449 56.4 34.4461 56.4C34.4472 56.4 34.4483 56.4 34.4494 56.4C34.4506 56.4 34.4517 56.4 34.4528 56.4C34.454 56.4 34.4551 56.4 34.4562 56.4C34.4574 56.4 34.4585 56.4 34.4596 56.4C34.4608 56.4 34.4619 56.4 34.463 56.4C34.4642 56.4 34.4653 56.4 34.4664 56.4C34.4676 56.4 34.4687 56.4 34.4698 56.4C34.471 56.4 34.4721 56.4 34.4732 56.4C34.4744 56.4 34.4755 56.4 34.4767 56.4C34.4778 56.4 34.4789 56.4 34.4801 56.4C34.4812 56.4 34.4824 56.4 34.4835 56.4C34.4846 56.4 34.4858 56.4 34.4869 56.4C34.4881 56.4 34.4892 56.4 34.4903 56.4C34.4915 56.4 34.4926 56.4 34.4938 56.4C34.4949 56.4 34.4961 56.4 34.4972 56.4C34.4984 56.4 34.4995 56.4 34.5006 56.4C34.5018 56.4 34.5029 56.4 34.5041 56.4C34.5052 56.4 34.5064 56.4 34.5075 56.4C34.5087 56.4 34.5098 56.4 34.511 56.4C34.5121 56.4 34.5133 56.4 34.5144 56.4C34.5156 56.4 34.5167 56.4 34.5179 56.4C34.519 56.4 34.5202 56.4 34.5213 56.4C34.5225 56.4 34.5236 56.4 34.5248 56.4C34.5259 56.4 34.5271 56.4 34.5282 56.4C34.5294 56.4 34.5305 56.4 34.5317 56.4C34.5328 56.4 34.534 56.4 34.5352 56.4C34.5363 56.4 34.5375 56.4 34.5386 56.4C34.5398 56.4 34.5409 56.4 34.5421 56.4C34.5433 56.4 34.5444 56.4 34.5456 56.4C34.5467 56.4 34.5479 56.4 34.549 56.4C34.5502 56.4 34.5514 56.4 34.5525 56.4C34.5537 56.4 34.5549 56.4 34.556 56.4C34.5572 56.4 34.5583 56.4 34.5595 56.4C34.5607 56.4 34.5618 56.4 34.563 56.4C34.5642 56.4 34.5653 56.4 34.5665 56.4C34.5676 56.4 34.5688 56.4 34.57 56.4C34.5711 56.4 34.5723 56.4 34.5735 56.4C34.5746 56.4 34.5758 56.4 34.577 56.4C34.5781 56.4 34.5793 56.4 34.5805 56.4C34.5817 56.4 34.5828 56.4 34.584 56.4C34.5852 56.4 34.5863 56.4 34.5875 56.4C34.5887 56.4 34.5898 56.4 34.591 56.4C34.5922 56.4 34.5934 56.4 34.5945 56.4C34.5957 56.4 34.5969 56.4 34.5981 56.4C34.5992 56.4 34.6004 56.4 34.6016 56.4C34.6028 56.4 34.6039 56.4 34.6051 56.4C34.6063 56.4 34.6075 56.4 34.6086 56.4C34.6098 56.4 34.611 56.4 34.6122 56.4C34.6133 56.4 34.6145 56.4 34.6157 56.4C34.6169 56.4 34.6181 56.4 34.6192 56.4C34.6204 56.4 34.6216 56.4 34.6228 56.4C34.624 56.4 34.6251 56.4 34.6263 56.4C34.6275 56.4 34.6287 56.4 34.6299 56.4C34.6311 56.4 34.6322 56.4 34.6334 56.4C34.6346 56.4 34.6358 56.4 34.637 56.4C34.6382 56.4 34.6393 56.4 34.6405 56.4C34.6417 56.4 34.6429 56.4 34.6441 56.4C34.6453 56.4 34.6465 56.4 34.6477 56.4C34.6488 56.4 34.65 56.4 34.6512 56.4C34.6524 56.4 34.6536 56.4 34.6548 56.4C34.656 56.4 34.6572 56.4 34.6584 56.4C34.6596 56.4 34.6607 56.4 34.6619 56.4C34.6631 56.4 34.6643 56.4 34.6655 56.4C34.6667 56.4 34.6679 56.4 34.6691 56.4C34.6703 56.4 34.6715 56.4 34.6727 56.4C34.6739 56.4 34.6751 56.4 34.6763 56.4C34.6775 56.4 34.6787 56.4 34.6799 56.4C34.6811 56.4 34.6823 56.4 34.6835 56.4C34.6847 56.4 34.6859 56.4 34.6871 56.4C34.6883 56.4 34.6895 56.4 34.6907 56.4C34.6919 56.4 34.6931 56.4 34.6943 56.4C34.6955 56.4 34.6967 56.4 34.6979 56.4C34.6991 56.4 34.7003 56.4 34.7015 56.4C34.7027 56.4 34.7039 56.4 34.7051 56.4C34.7063 56.4 34.7075 56.4 34.7087 56.4C34.7099 56.4 34.7111 56.4 34.7123 56.4C34.7135 56.4 34.7147 56.4 34.7159 56.4C34.7171 56.4 34.7183 56.4 34.7196 56.4C34.7208 56.4 34.722 56.4 34.7232 56.4C34.7244 56.4 34.7256 56.4 34.7268 56.4C34.728 56.4 34.7292 56.4 34.7304 56.4C34.7317 56.4 34.7329 56.4 34.7341 56.4C34.7353 56.4 34.7365 56.4 34.7377 56.4C34.7389 56.4 34.7402 56.4 34.7414 56.4C34.7426 56.4 34.7438 56.4 34.745 56.4C34.7462 56.4 34.7474 56.4 34.7487 56.4C34.7499 56.4 34.7511 56.4 34.7523 56.4C34.7535 56.4 34.7547 56.4 34.756 56.4C34.7572 56.4 34.7584 56.4 34.7596 56.4C34.7608 56.4 34.7621 56.4 34.7633 56.4C34.7645 56.4 34.7657 56.4 34.7669 56.4C34.7682 56.4 34.7694 56.4 34.7706 56.4C34.7718 56.4 34.7731 56.4 34.7743 56.4C34.7755 56.4 34.7767 56.4 34.778 56.4C34.7792 56.4 34.7804 56.4 34.7816 56.4C34.7829 56.4 34.7841 56.4 34.7853 56.4C34.7865 56.4 34.7878 56.4 34.789 56.4C34.7902 56.4 34.7914 56.4 34.7927 56.4C34.7939 56.4 34.7951 56.4 34.7964 56.4C34.7976 56.4 34.7988 56.4 34.8001 56.4C34.8013 56.4 34.8025 56.4 34.8038 56.4C34.805 56.4 34.8062 56.4 34.8074 56.4C34.8087 56.4 34.8099 56.4 34.8111 56.4C34.8124 56.4 34.8136 56.4 34.8149 56.4C34.8161 56.4 34.8173 56.4 34.8186 56.4C34.8198 56.4 34.821 56.4 34.8223 56.4C34.8235 56.4 34.8247 56.4 34.826 56.4C34.8272 56.4 34.8285 56.4 34.8297 56.4C34.8309 56.4 34.8322 56.4 34.8334 56.4C34.8347 56.4 34.8359 56.4 34.8371 56.4C34.8384 56.4 34.8396 56.4 34.8409 56.4C34.8421 56.4 34.8433 56.4 34.8446 56.4C34.8458 56.4 34.8471 56.4 34.8483 56.4C34.8496 56.4 34.8508 56.4 34.8521 56.4C34.8533 56.4 34.8545 56.4 34.8558 56.4C34.857 56.4 34.8583 56.4 34.8595 56.4C34.8608 56.4 34.862 56.4 34.8633 56.4C34.8645 56.4 34.8658 56.4 34.867 56.4C34.8683 56.4 34.8695 56.4 34.8708 56.4C34.872 56.4 34.8733 56.4 34.8745 56.4C34.8758 56.4 34.877 56.4 34.8783 56.4C34.8795 56.4 34.8808 56.4 34.882 56.4C34.8833 56.4 34.8845 56.4 34.8858 56.4C34.887 56.4 34.8883 56.4 34.8896 56.4C34.8908 56.4 34.8921 56.4 34.8933 56.4C34.8946 56.4 34.8958 56.4 34.8971 56.4C34.8984 56.4 34.8996 56.4 34.9009 56.4C34.9021 56.4 34.9034 56.4 34.9046 56.4C34.9059 56.4 34.9072 56.4 34.9084 56.4C34.9097 56.4 34.9109 56.4 34.9122 56.4C34.9135 56.4 34.9147 56.4 34.916 56.4C34.9173 56.4 34.9185 56.4 34.9198 56.4C34.921 56.4 34.9223 56.4 34.9236 56.4C34.9248 56.4 34.9261 56.4 34.9274 56.4C34.9286 56.4 34.9299 56.4 34.9312 56.4C34.9324 56.4 34.9337 56.4 34.935 56.4C34.9362 56.4 34.9375 56.4 34.9388 56.4C34.94 56.4 34.9413 56.4 34.9426 56.4C34.9438 56.4 34.9451 56.4 34.9464 56.4C34.9477 56.4 34.9489 56.4 34.9502 56.4C34.9515 56.4 34.9527 56.4 34.954 56.4C34.9553 56.4 34.9566 56.4 34.9578 56.4C34.9591 56.4 34.9604 56.4 34.9617 56.4C34.9629 56.4 34.9642 56.4 34.9655 56.4C34.9668 56.4 34.968 56.4 34.9693 56.4C34.9706 56.4 34.9719 56.4 34.9731 56.4C34.9744 56.4 34.9757 56.4 34.977 56.4C34.9783 56.4 34.9795 56.4 34.9808 56.4C34.9821 56.4 34.9834 56.4 34.9847 56.4C34.9859 56.4 34.9872 56.4 34.9885 56.4C34.9898 56.4 34.9911 56.4 34.9923 56.4C34.9936 56.4 34.9949 56.4 34.9962 56.4C34.9975 56.4 34.9988 56.4 35.0001 56.4C35.0013 56.4 35.0026 56.4 35.0039 56.4C35.0052 56.4 35.0065 56.4 35.0078 56.4C35.0091 56.4 35.0103 56.4 35.0116 56.4C35.0129 56.4 35.0142 56.4 35.0155 56.4C35.0168 56.4 35.0181 56.4 35.0194 56.4C35.0207 56.4 35.0219 56.4 35.0232 56.4C35.0245 56.4 35.0258 56.4 35.0271 56.4C35.0284 56.4 35.0297 56.4 35.031 56.4C35.0323 56.4 35.0336 56.4 35.0349 56.4C35.0362 56.4 35.0375 56.4 35.0387 56.4C35.04 56.4 35.0413 56.4 35.0426 56.4C35.0439 56.4 35.0452 56.4 35.0465 56.4C35.0478 56.4 35.0491 56.4 35.0504 56.4C35.0517 56.4 35.053 56.4 35.0543 56.4C35.0556 56.4 35.0569 56.4 35.0582 56.4C35.0595 56.4 35.0608 56.4 35.0621 56.4C35.0634 56.4 35.0647 56.4 35.066 56.4C35.0673 56.4 35.0686 56.4 35.0699 56.4C35.0712 56.4 35.0725 56.4 35.0738 56.4C35.0751 56.4 35.0764 56.4 35.0777 56.4C35.0791 56.4 35.0804 56.4 35.0817 56.4C35.083 56.4 35.0843 56.4 35.0856 56.4C35.0869 56.4 35.0882 56.4 35.0895 56.4C35.0908 56.4 35.0921 56.4 35.0934 56.4C35.0947 56.4 35.0961 56.4 35.0974 56.4C35.0987 56.4 35.1 56.4 35.1013 56.4C35.1026 56.4 35.1039 56.4 35.1052 56.4C35.1065 56.4 35.1079 56.4 35.1092 56.4C35.1105 56.4 35.1118 56.4 35.1131 56.4C35.1144 56.4 35.1157 56.4 35.1171 56.4C35.1184 56.4 35.1197 56.4 35.121 56.4C35.1223 56.4 35.1236 56.4 35.125 56.4C35.1263 56.4 35.1276 56.4 35.1289 56.4C35.1302 56.4 35.1315 56.4 35.1329 56.4C35.1342 56.4 35.1355 56.4 35.1368 56.4C35.1381 56.4 35.1395 56.4 35.1408 56.4C35.1421 56.4 35.1434 56.4 35.1448 56.4C35.1461 56.4 35.1474 56.4 35.1487 56.4C35.15 56.4 35.1514 56.4 35.1527 56.4C35.154 56.4 35.1553 56.4 35.1567 56.4C35.158 56.4 35.1593 56.4 35.1606 56.4C35.162 56.4 35.1633 56.4 35.1646 56.4C35.166 56.4 35.1673 56.4 35.1686 56.4C35.1699 56.4 35.1713 56.4 35.1726 56.4C35.1739 56.4 35.1753 56.4 35.1766 56.4C35.1779 56.4 35.1792 56.4 35.1806 56.4C35.1819 56.4 35.1832 56.4 35.1846 56.4C35.1859 56.4 35.1872 56.4 35.1886 56.4C35.1899 56.4 35.1912 56.4 35.1926 56.4C35.1939 56.4 35.1952 56.4 35.1966 56.4C35.1979 56.4 35.1993 56.4 35.2006 56.4C35.2019 56.4 35.2033 56.4 35.2046 56.4C35.2059 56.4 35.2073 56.4 35.2086 56.4C35.21 56.4 35.2113 56.4 35.2126 56.4C35.214 56.4 35.2153 56.4 35.2167 56.4C35.218 56.4 35.2193 56.4 35.2207 56.4C35.222 56.4 35.2234 56.4 35.2247 56.4C35.2261 56.4 35.2274 56.4 35.2287 56.4C35.2301 56.4 35.2314 56.4 35.2328 56.4C35.2341 56.4 35.2355 56.4 35.2368 56.4C35.2382 56.4 35.2395 56.4 35.2408 56.4C35.2422 56.4 35.2435 56.4 35.2449 56.4C35.2462 56.4 35.2476 56.4 35.2489 56.4C35.2503 56.4 35.2516 56.4 35.253 56.4C35.2543 56.4 35.2557 56.4 35.257 56.4C35.2584 56.4 35.2597 56.4 35.2611 56.4C35.2624 56.4 35.2638 56.4 35.2651 56.4C35.2665 56.4 35.2678 56.4 35.2692 56.4C35.2706 56.4 35.2719 56.4 35.2733 56.4C35.2746 56.4 35.276 56.4 35.2773 56.4C35.2787 56.4 35.28 56.4 35.2814 56.4C35.2828 56.4 35.2841 56.4 35.2855 56.4C35.2868 56.4 35.2882 56.4 35.2896 56.4C35.2909 56.4 35.2923 56.4 35.2936 56.4C35.295 56.4 35.2964 56.4 35.2977 56.4C35.2991 56.4 35.3004 56.4 35.3018 56.4C35.3032 56.4 35.3045 56.4 35.3059 56.4C35.3072 56.4 35.3086 56.4 35.31 56.4C35.3113 56.4 35.3127 56.4 35.3141 56.4C35.3154 56.4 35.3168 56.4 35.3182 56.4C35.3195 56.4 35.3209 56.4 35.3223 56.4C35.3236 56.4 35.325 56.4 35.3264 56.4C35.3277 56.4 35.3291 56.4 35.3305 56.4C35.3318 56.4 35.3332 56.4 35.3346 56.4C35.336 56.4 35.3373 56.4 35.3387 56.4C35.3401 56.4 35.3414 56.4 35.3428 56.4C35.3442 56.4 35.3456 56.4 35.3469 56.4C35.3483 56.4 35.3497 56.4 35.3511 56.4C35.3524 56.4 35.3538 56.4 35.3552 56.4C35.3566 56.4 35.3579 56.4 35.3593 56.4C35.3607 56.4 35.3621 56.4 35.3634 56.4C35.3648 56.4 35.3662 56.4 35.3676 56.4C35.3689 56.4 35.3703 56.4 35.3717 56.4C35.3731 56.4 35.3745 56.4 35.3758 56.4C35.3772 56.4 35.3786 56.4 35.38 56.4C35.3814 56.4 35.3828 56.4 35.3841 56.4C35.3855 56.4 35.3869 56.4 35.3883 56.4C35.3897 56.4 35.391 56.4 35.3924 56.4C35.3938 56.4 35.3952 56.4 35.3966 56.4C35.398 56.4 35.3994 56.4 35.4007 56.4C35.4021 56.4 35.4035 56.4 35.4049 56.4C35.4063 56.4 35.4077 56.4 35.4091 56.4C35.4105 56.4 35.4118 56.4 35.4132 56.4C35.4146 56.4 35.416 56.4 35.4174 56.4C35.4188 56.4 35.4202 56.4 35.4216 56.4C35.423 56.4 35.4244 56.4 35.4258 56.4C35.4272 56.4 35.4285 56.4 35.4299 56.4C35.4313 56.4 35.4327 56.4 35.4341 56.4C35.4355 56.4 35.4369 56.4 35.4383 56.4C35.4397 56.4 35.4411 56.4 35.4425 56.4C35.4439 56.4 35.4453 56.4 35.4467 56.4C35.4481 56.4 35.4495 56.4 35.4509 56.4C35.4523 56.4 35.4537 56.4 35.4551 56.4C35.4565 56.4 35.4579 56.4 35.4593 56.4C35.4607 56.4 35.4621 56.4 35.4635 56.4C35.4649 56.4 35.4663 56.4 35.4677 56.4C35.4691 56.4 35.4705 56.4 35.4719 56.4C35.4733 56.4 35.4747 56.4 35.4761 56.4C35.4775 56.4 35.4789 56.4 35.4803 56.4C35.4817 56.4 35.4831 56.4 35.4845 56.4C35.486 56.4 35.4874 56.4 35.4888 56.4C35.4902 56.4 35.4916 56.4 35.493 56.4C35.4944 56.4 35.4958 56.4 35.4972 56.4C35.4986 56.4 35.5 56.4 35.5015 56.4C35.5029 56.4 35.5043 56.4 35.5057 56.4C35.5071 56.4 35.5085 56.4 35.5099 56.4C35.5113 56.4 35.5128 56.4 35.5142 56.4C35.5156 56.4 35.517 56.4 35.5184 56.4C35.5198 56.4 35.5212 56.4 35.5227 56.4C35.5241 56.4 35.5255 56.4 35.5269 56.4C35.5283 56.4 35.5297 56.4 35.5312 56.4C35.5326 56.4 35.534 56.4 35.5354 56.4C35.5368 56.4 35.5383 56.4 35.5397 56.4C35.5411 56.4 35.5425 56.4 35.5439 56.4C35.5454 56.4 35.5468 56.4 35.5482 56.4C35.5496 56.4 35.551 56.4 35.5525 56.4C35.5539 56.4 35.5553 56.4 35.5567 56.4C35.5582 56.4 35.5596 56.4 35.561 56.4C35.5624 56.4 35.5639 56.4 35.5653 56.4C35.5667 56.4 35.5681 56.4 35.5696 56.4C35.571 56.4 35.5724 56.4 35.5739 56.4C35.5753 56.4 35.5767 56.4 35.5781 56.4C35.5796 56.4 35.581 56.4 35.5824 56.4C35.5839 56.4 35.5853 56.4 35.5867 56.4C35.5882 56.4 35.5896 56.4 35.591 56.4C35.5924 56.4 35.5939 56.4 35.5953 56.4C35.5967 56.4 35.5982 56.4 35.5996 56.4C35.6011 56.4 35.6025 56.4 35.6039 56.4C35.6054 56.4 35.6068 56.4 35.6082 56.4C35.6097 56.4 35.6111 56.4 35.6125 56.4C35.614 56.4 35.6154 56.4 35.6169 56.4C35.6183 56.4 35.6197 56.4 35.6212 56.4C35.6226 56.4 35.624 56.4 35.6255 56.4C35.6269 56.4 35.6284 56.4 35.6298 56.4C35.6313 56.4 35.6327 56.4 35.6341 56.4C35.6356 56.4 35.637 56.4 35.6385 56.4C35.6399 56.4 35.6414 56.4 35.6428 56.4C35.6442 56.4 35.6457 56.4 35.6471 56.4C35.6486 56.4 35.65 56.4 35.6515 56.4C35.6529 56.4 35.6544 56.4 35.6558 56.4C35.6573 56.4 35.6587 56.4 35.6602 56.4C35.6616 56.4 35.6631 56.4 35.6645 56.4C35.666 56.4 35.6674 56.4 35.6689 56.4C35.6703 56.4 35.6718 56.4 35.6732 56.4C35.6747 56.4 35.6761 56.4 35.6776 56.4C35.679 56.4 35.6805 56.4 35.6819 56.4C35.6834 56.4 35.6848 56.4 35.6863 56.4C35.6877 56.4 35.6892 56.4 35.6907 56.4C35.6921 56.4 35.6936 56.4 35.695 56.4C35.6965 56.4 35.6979 56.4 35.6994 56.4C35.7008 56.4 35.7023 56.4 35.7038 56.4C35.7052 56.4 35.7067 56.4 35.7081 56.4C35.7096 56.4 35.7111 56.4 35.7125 56.4C35.714 56.4 35.7154 56.4 35.7169 56.4C35.7184 56.4 35.7198 56.4 35.7213 56.4C35.7228 56.4 35.7242 56.4 35.7257 56.4C35.7271 56.4 35.7286 56.4 35.7301 56.4C35.7315 56.4 35.733 56.4 35.7345 56.4C35.7359 56.4 35.7374 56.4 35.7389 56.4C35.7403 56.4 35.7418 56.4 35.7433 56.4C35.7447 56.4 35.7462 56.4 35.7477 56.4C35.7491 56.4 35.7506 56.4 35.7521 56.4C35.7536 56.4 35.755 56.4 35.7565 56.4C35.758 56.4 35.7594 56.4 35.7609 56.4C35.7624 56.4 35.7639 56.4 35.7653 56.4C35.7668 56.4 35.7683 56.4 35.7698 56.4C35.7712 56.4 35.7727 56.4 35.7742 56.4C35.7757 56.4 35.7771 56.4 35.7786 56.4C35.7801 56.4 35.7816 56.4 35.783 56.4C35.7845 56.4 35.786 56.4 35.7875 56.4C35.7889 56.4 35.7904 56.4 35.7919 56.4C35.7934 56.4 35.7949 56.4 35.7963 56.4C35.7978 56.4 35.7993 56.4 35.8008 56.4C35.8023 56.4 35.8037 56.4 35.8052 56.4C35.8067 56.4 35.8082 56.4 35.8097 56.4C35.8112 56.4 35.8126 56.4 35.8141 56.4C35.8156 56.4 35.8171 56.4 35.8186 56.4C35.8201 56.4 35.8216 56.4 35.823 56.4C35.8245 56.4 35.826 56.4 35.8275 56.4C35.829 56.4 35.8305 56.4 35.832 56.4C35.8334 56.4 35.8349 56.4 35.8364 56.4C35.8379 56.4 35.8394 56.4 35.8409 56.4C35.8424 56.4 35.8439 56.4 35.8454 56.4C35.8469 56.4 35.8484 56.4 35.8498 56.4C35.8513 56.4 35.8528 56.4 35.8543 56.4C35.8558 56.4 35.8573 56.4 35.8588 56.4C35.8603 56.4 35.8618 56.4 35.8633 56.4C35.8648 56.4 35.8663 56.4 35.8678 56.4C35.8693 56.4 35.8708 56.4 35.8723 56.4C35.8738 56.4 35.8753 56.4 35.8768 56.4C35.8783 56.4 35.8798 56.4 35.8813 56.4C35.8828 56.4 35.8843 56.4 35.8858 56.4C35.8873 56.4 35.8888 56.4 35.8903 56.4C35.8918 56.4 35.8933 56.4 35.8948 56.4C35.8963 56.4 35.8978 56.4 35.8993 56.4C35.9008 56.4 35.9023 56.4 35.9038 56.4C35.9053 56.4 35.9068 56.4 35.9083 56.4C35.9098 56.4 35.9113 56.4 35.9128 56.4C35.9143 56.4 35.9158 56.4 35.9173 56.4C35.9188 56.4 35.9204 56.4 35.9219 56.4C35.9234 56.4 35.9249 56.4 35.9264 56.4C35.9279 56.4 35.9294 56.4 35.9309 56.4C35.9324 56.4 35.9339 56.4 35.9355 56.4C35.937 56.4 35.9385 56.4 35.94 56.4C35.9415 56.4 35.943 56.4 35.9445 56.4C35.946 56.4 35.9476 56.4 35.9491 56.4C35.9506 56.4 35.9521 56.4 35.9536 56.4C35.9551 56.4 35.9567 56.4 35.9582 56.4C35.9597 56.4 35.9612 56.4 35.9627 56.4C35.9642 56.4 35.9658 56.4 35.9673 56.4C35.9688 56.4 35.9703 56.4 35.9718 56.4C35.9734 56.4 35.9749 56.4 35.9764 56.4C35.9779 56.4 35.9794 56.4 35.981 56.4C35.9825 56.4 35.984 56.4 35.9855 56.4C35.987 56.4 35.9886 56.4 35.9901 56.4C35.9916 56.4 35.9931 56.4 35.9947 56.4C35.9962 56.4 35.9977 56.4 35.9992 56.4C36.0008 56.4 36.0023 56.4 36.0038 56.4C36.0053 56.4 36.0069 56.4 36.0084 56.4C36.0099 56.4 36.0115 56.4 36.013 56.4C36.0145 56.4 36.016 56.4 36.0176 56.4C36.0191 56.4 36.0206 56.4 36.0222 56.4C36.0237 56.4 36.0252 56.4 36.0268 56.4C36.0283 56.4 36.0298 56.4 36.0314 56.4C36.0329 56.4 36.0344 56.4 36.036 56.4C36.0375 56.4 36.039 56.4 36.0406 56.4C36.0421 56.4 36.0436 56.4 36.0452 56.4C36.0467 56.4 36.0482 56.4 36.0498 56.4C36.0513 56.4 36.0529 56.4 36.0544 56.4C36.0559 56.4 36.0575 56.4 36.059 56.4C36.0605 56.4 36.0621 56.4 36.0636 56.4C36.0652 56.4 36.0667 56.4 36.0683 56.4C36.0698 56.4 36.0713 56.4 36.0729 56.4C36.0744 56.4 36.076 56.4 36.0775 56.4C36.079 56.4 36.0806 56.4 36.0821 56.4C36.0837 56.4 36.0852 56.4 36.0868 56.4C36.0883 56.4 36.0899 56.4 36.0914 56.4C36.093 56.4 36.0945 56.4 36.096 56.4C36.0976 56.4 36.0991 56.4 36.1007 56.4C36.1022 56.4 36.1038 56.4 36.1053 56.4C36.1069 56.4 36.1084 56.4 36.11 56.4C36.1115 56.4 36.1131 56.4 36.1146 56.4C36.1162 56.4 36.1177 56.4 36.1193 56.4C36.1208 56.4 36.1224 56.4 36.124 56.4C36.1255 56.4 36.1271 56.4 36.1286 56.4C36.1302 56.4 36.1317 56.4 36.1333 56.4C36.1348 56.4 36.1364 56.4 36.1379 56.4C36.1395 56.4 36.1411 56.4 36.1426 56.4C36.1442 56.4 36.1457 56.4 36.1473 56.4C36.1488 56.4 36.1504 56.4 36.152 56.4C36.1535 56.4 36.1551 56.4 36.1566 56.4C36.1582 56.4 36.1598 56.4 36.1613 56.4C36.1629 56.4 36.1645 56.4 36.166 56.4V54.4C36.1645 54.4 36.1629 54.4 36.1613 54.4C36.1598 54.4 36.1582 54.4 36.1566 54.4C36.1551 54.4 36.1535 54.4 36.152 54.4C36.1504 54.4 36.1488 54.4 36.1473 54.4C36.1457 54.4 36.1442 54.4 36.1426 54.4C36.1411 54.4 36.1395 54.4 36.1379 54.4C36.1364 54.4 36.1348 54.4 36.1333 54.4C36.1317 54.4 36.1302 54.4 36.1286 54.4C36.1271 54.4 36.1255 54.4 36.124 54.4C36.1224 54.4 36.1208 54.4 36.1193 54.4C36.1177 54.4 36.1162 54.4 36.1146 54.4C36.1131 54.4 36.1115 54.4 36.11 54.4C36.1084 54.4 36.1069 54.4 36.1053 54.4C36.1038 54.4 36.1022 54.4 36.1007 54.4C36.0991 54.4 36.0976 54.4 36.096 54.4C36.0945 54.4 36.093 54.4 36.0914 54.4C36.0899 54.4 36.0883 54.4 36.0868 54.4C36.0852 54.4 36.0837 54.4 36.0821 54.4C36.0806 54.4 36.079 54.4 36.0775 54.4C36.076 54.4 36.0744 54.4 36.0729 54.4C36.0713 54.4 36.0698 54.4 36.0683 54.4C36.0667 54.4 36.0652 54.4 36.0636 54.4C36.0621 54.4 36.0605 54.4 36.059 54.4C36.0575 54.4 36.0559 54.4 36.0544 54.4C36.0529 54.4 36.0513 54.4 36.0498 54.4C36.0482 54.4 36.0467 54.4 36.0452 54.4C36.0436 54.4 36.0421 54.4 36.0406 54.4C36.039 54.4 36.0375 54.4 36.036 54.4C36.0344 54.4 36.0329 54.4 36.0314 54.4C36.0298 54.4 36.0283 54.4 36.0268 54.4C36.0252 54.4 36.0237 54.4 36.0222 54.4C36.0206 54.4 36.0191 54.4 36.0176 54.4C36.016 54.4 36.0145 54.4 36.013 54.4C36.0115 54.4 36.0099 54.4 36.0084 54.4C36.0069 54.4 36.0053 54.4 36.0038 54.4C36.0023 54.4 36.0008 54.4 35.9992 54.4C35.9977 54.4 35.9962 54.4 35.9947 54.4C35.9931 54.4 35.9916 54.4 35.9901 54.4C35.9886 54.4 35.987 54.4 35.9855 54.4C35.984 54.4 35.9825 54.4 35.981 54.4C35.9794 54.4 35.9779 54.4 35.9764 54.4C35.9749 54.4 35.9734 54.4 35.9718 54.4C35.9703 54.4 35.9688 54.4 35.9673 54.4C35.9658 54.4 35.9642 54.4 35.9627 54.4C35.9612 54.4 35.9597 54.4 35.9582 54.4C35.9567 54.4 35.9551 54.4 35.9536 54.4C35.9521 54.4 35.9506 54.4 35.9491 54.4C35.9476 54.4 35.946 54.4 35.9445 54.4C35.943 54.4 35.9415 54.4 35.94 54.4C35.9385 54.4 35.937 54.4 35.9355 54.4C35.9339 54.4 35.9324 54.4 35.9309 54.4C35.9294 54.4 35.9279 54.4 35.9264 54.4C35.9249 54.4 35.9234 54.4 35.9219 54.4C35.9204 54.4 35.9188 54.4 35.9173 54.4C35.9158 54.4 35.9143 54.4 35.9128 54.4C35.9113 54.4 35.9098 54.4 35.9083 54.4C35.9068 54.4 35.9053 54.4 35.9038 54.4C35.9023 54.4 35.9008 54.4 35.8993 54.4C35.8978 54.4 35.8963 54.4 35.8948 54.4C35.8933 54.4 35.8918 54.4 35.8903 54.4C35.8888 54.4 35.8873 54.4 35.8858 54.4C35.8843 54.4 35.8828 54.4 35.8813 54.4C35.8798 54.4 35.8783 54.4 35.8768 54.4C35.8753 54.4 35.8738 54.4 35.8723 54.4C35.8708 54.4 35.8693 54.4 35.8678 54.4C35.8663 54.4 35.8648 54.4 35.8633 54.4C35.8618 54.4 35.8603 54.4 35.8588 54.4C35.8573 54.4 35.8558 54.4 35.8543 54.4C35.8528 54.4 35.8513 54.4 35.8498 54.4C35.8484 54.4 35.8469 54.4 35.8454 54.4C35.8439 54.4 35.8424 54.4 35.8409 54.4C35.8394 54.4 35.8379 54.4 35.8364 54.4C35.8349 54.4 35.8334 54.4 35.832 54.4C35.8305 54.4 35.829 54.4 35.8275 54.4C35.826 54.4 35.8245 54.4 35.823 54.4C35.8216 54.4 35.8201 54.4 35.8186 54.4C35.8171 54.4 35.8156 54.4 35.8141 54.4C35.8126 54.4 35.8112 54.4 35.8097 54.4C35.8082 54.4 35.8067 54.4 35.8052 54.4C35.8037 54.4 35.8023 54.4 35.8008 54.4C35.7993 54.4 35.7978 54.4 35.7963 54.4C35.7949 54.4 35.7934 54.4 35.7919 54.4C35.7904 54.4 35.7889 54.4 35.7875 54.4C35.786 54.4 35.7845 54.4 35.783 54.4C35.7816 54.4 35.7801 54.4 35.7786 54.4C35.7771 54.4 35.7757 54.4 35.7742 54.4C35.7727 54.4 35.7712 54.4 35.7698 54.4C35.7683 54.4 35.7668 54.4 35.7653 54.4C35.7639 54.4 35.7624 54.4 35.7609 54.4C35.7594 54.4 35.758 54.4 35.7565 54.4C35.755 54.4 35.7536 54.4 35.7521 54.4C35.7506 54.4 35.7491 54.4 35.7477 54.4C35.7462 54.4 35.7447 54.4 35.7433 54.4C35.7418 54.4 35.7403 54.4 35.7389 54.4C35.7374 54.4 35.7359 54.4 35.7345 54.4C35.733 54.4 35.7315 54.4 35.7301 54.4C35.7286 54.4 35.7271 54.4 35.7257 54.4C35.7242 54.4 35.7228 54.4 35.7213 54.4C35.7198 54.4 35.7184 54.4 35.7169 54.4C35.7154 54.4 35.714 54.4 35.7125 54.4C35.7111 54.4 35.7096 54.4 35.7081 54.4C35.7067 54.4 35.7052 54.4 35.7038 54.4C35.7023 54.4 35.7008 54.4 35.6994 54.4C35.6979 54.4 35.6965 54.4 35.695 54.4C35.6936 54.4 35.6921 54.4 35.6907 54.4C35.6892 54.4 35.6877 54.4 35.6863 54.4C35.6848 54.4 35.6834 54.4 35.6819 54.4C35.6805 54.4 35.679 54.4 35.6776 54.4C35.6761 54.4 35.6747 54.4 35.6732 54.4C35.6718 54.4 35.6703 54.4 35.6689 54.4C35.6674 54.4 35.666 54.4 35.6645 54.4C35.6631 54.4 35.6616 54.4 35.6602 54.4C35.6587 54.4 35.6573 54.4 35.6558 54.4C35.6544 54.4 35.6529 54.4 35.6515 54.4C35.65 54.4 35.6486 54.4 35.6471 54.4C35.6457 54.4 35.6442 54.4 35.6428 54.4C35.6414 54.4 35.6399 54.4 35.6385 54.4C35.637 54.4 35.6356 54.4 35.6341 54.4C35.6327 54.4 35.6313 54.4 35.6298 54.4C35.6284 54.4 35.6269 54.4 35.6255 54.4C35.624 54.4 35.6226 54.4 35.6212 54.4C35.6197 54.4 35.6183 54.4 35.6169 54.4C35.6154 54.4 35.614 54.4 35.6125 54.4C35.6111 54.4 35.6097 54.4 35.6082 54.4C35.6068 54.4 35.6054 54.4 35.6039 54.4C35.6025 54.4 35.6011 54.4 35.5996 54.4C35.5982 54.4 35.5967 54.4 35.5953 54.4C35.5939 54.4 35.5924 54.4 35.591 54.4C35.5896 54.4 35.5882 54.4 35.5867 54.4C35.5853 54.4 35.5839 54.4 35.5824 54.4C35.581 54.4 35.5796 54.4 35.5781 54.4C35.5767 54.4 35.5753 54.4 35.5739 54.4C35.5724 54.4 35.571 54.4 35.5696 54.4C35.5681 54.4 35.5667 54.4 35.5653 54.4C35.5639 54.4 35.5624 54.4 35.561 54.4C35.5596 54.4 35.5582 54.4 35.5567 54.4C35.5553 54.4 35.5539 54.4 35.5525 54.4C35.551 54.4 35.5496 54.4 35.5482 54.4C35.5468 54.4 35.5454 54.4 35.5439 54.4C35.5425 54.4 35.5411 54.4 35.5397 54.4C35.5383 54.4 35.5368 54.4 35.5354 54.4C35.534 54.4 35.5326 54.4 35.5312 54.4C35.5297 54.4 35.5283 54.4 35.5269 54.4C35.5255 54.4 35.5241 54.4 35.5227 54.4C35.5212 54.4 35.5198 54.4 35.5184 54.4C35.517 54.4 35.5156 54.4 35.5142 54.4C35.5128 54.4 35.5113 54.4 35.5099 54.4C35.5085 54.4 35.5071 54.4 35.5057 54.4C35.5043 54.4 35.5029 54.4 35.5015 54.4C35.5 54.4 35.4986 54.4 35.4972 54.4C35.4958 54.4 35.4944 54.4 35.493 54.4C35.4916 54.4 35.4902 54.4 35.4888 54.4C35.4874 54.4 35.486 54.4 35.4845 54.4C35.4831 54.4 35.4817 54.4 35.4803 54.4C35.4789 54.4 35.4775 54.4 35.4761 54.4C35.4747 54.4 35.4733 54.4 35.4719 54.4C35.4705 54.4 35.4691 54.4 35.4677 54.4C35.4663 54.4 35.4649 54.4 35.4635 54.4C35.4621 54.4 35.4607 54.4 35.4593 54.4C35.4579 54.4 35.4565 54.4 35.4551 54.4C35.4537 54.4 35.4523 54.4 35.4509 54.4C35.4495 54.4 35.4481 54.4 35.4467 54.4C35.4453 54.4 35.4439 54.4 35.4425 54.4C35.4411 54.4 35.4397 54.4 35.4383 54.4C35.4369 54.4 35.4355 54.4 35.4341 54.4C35.4327 54.4 35.4313 54.4 35.4299 54.4C35.4285 54.4 35.4272 54.4 35.4258 54.4C35.4244 54.4 35.423 54.4 35.4216 54.4C35.4202 54.4 35.4188 54.4 35.4174 54.4C35.416 54.4 35.4146 54.4 35.4132 54.4C35.4118 54.4 35.4105 54.4 35.4091 54.4C35.4077 54.4 35.4063 54.4 35.4049 54.4C35.4035 54.4 35.4021 54.4 35.4007 54.4C35.3994 54.4 35.398 54.4 35.3966 54.4C35.3952 54.4 35.3938 54.4 35.3924 54.4C35.391 54.4 35.3897 54.4 35.3883 54.4C35.3869 54.4 35.3855 54.4 35.3841 54.4C35.3828 54.4 35.3814 54.4 35.38 54.4C35.3786 54.4 35.3772 54.4 35.3758 54.4C35.3745 54.4 35.3731 54.4 35.3717 54.4C35.3703 54.4 35.3689 54.4 35.3676 54.4C35.3662 54.4 35.3648 54.4 35.3634 54.4C35.3621 54.4 35.3607 54.4 35.3593 54.4C35.3579 54.4 35.3566 54.4 35.3552 54.4C35.3538 54.4 35.3524 54.4 35.3511 54.4C35.3497 54.4 35.3483 54.4 35.3469 54.4C35.3456 54.4 35.3442 54.4 35.3428 54.4C35.3414 54.4 35.3401 54.4 35.3387 54.4C35.3373 54.4 35.336 54.4 35.3346 54.4C35.3332 54.4 35.3318 54.4 35.3305 54.4C35.3291 54.4 35.3277 54.4 35.3264 54.4C35.325 54.4 35.3236 54.4 35.3223 54.4C35.3209 54.4 35.3195 54.4 35.3182 54.4C35.3168 54.4 35.3154 54.4 35.3141 54.4C35.3127 54.4 35.3113 54.4 35.31 54.4C35.3086 54.4 35.3072 54.4 35.3059 54.4C35.3045 54.4 35.3032 54.4 35.3018 54.4C35.3004 54.4 35.2991 54.4 35.2977 54.4C35.2964 54.4 35.295 54.4 35.2936 54.4C35.2923 54.4 35.2909 54.4 35.2896 54.4C35.2882 54.4 35.2868 54.4 35.2855 54.4C35.2841 54.4 35.2828 54.4 35.2814 54.4C35.28 54.4 35.2787 54.4 35.2773 54.4C35.276 54.4 35.2746 54.4 35.2733 54.4C35.2719 54.4 35.2706 54.4 35.2692 54.4C35.2678 54.4 35.2665 54.4 35.2651 54.4C35.2638 54.4 35.2624 54.4 35.2611 54.4C35.2597 54.4 35.2584 54.4 35.257 54.4C35.2557 54.4 35.2543 54.4 35.253 54.4C35.2516 54.4 35.2503 54.4 35.2489 54.4C35.2476 54.4 35.2462 54.4 35.2449 54.4C35.2435 54.4 35.2422 54.4 35.2408 54.4C35.2395 54.4 35.2382 54.4 35.2368 54.4C35.2355 54.4 35.2341 54.4 35.2328 54.4C35.2314 54.4 35.2301 54.4 35.2287 54.4C35.2274 54.4 35.2261 54.4 35.2247 54.4C35.2234 54.4 35.222 54.4 35.2207 54.4C35.2193 54.4 35.218 54.4 35.2167 54.4C35.2153 54.4 35.214 54.4 35.2126 54.4C35.2113 54.4 35.21 54.4 35.2086 54.4C35.2073 54.4 35.2059 54.4 35.2046 54.4C35.2033 54.4 35.2019 54.4 35.2006 54.4C35.1993 54.4 35.1979 54.4 35.1966 54.4C35.1952 54.4 35.1939 54.4 35.1926 54.4C35.1912 54.4 35.1899 54.4 35.1886 54.4C35.1872 54.4 35.1859 54.4 35.1846 54.4C35.1832 54.4 35.1819 54.4 35.1806 54.4C35.1792 54.4 35.1779 54.4 35.1766 54.4C35.1753 54.4 35.1739 54.4 35.1726 54.4C35.1713 54.4 35.1699 54.4 35.1686 54.4C35.1673 54.4 35.166 54.4 35.1646 54.4C35.1633 54.4 35.162 54.4 35.1606 54.4C35.1593 54.4 35.158 54.4 35.1567 54.4C35.1553 54.4 35.154 54.4 35.1527 54.4C35.1514 54.4 35.15 54.4 35.1487 54.4C35.1474 54.4 35.1461 54.4 35.1448 54.4C35.1434 54.4 35.1421 54.4 35.1408 54.4C35.1395 54.4 35.1381 54.4 35.1368 54.4C35.1355 54.4 35.1342 54.4 35.1329 54.4C35.1315 54.4 35.1302 54.4 35.1289 54.4C35.1276 54.4 35.1263 54.4 35.125 54.4C35.1236 54.4 35.1223 54.4 35.121 54.4C35.1197 54.4 35.1184 54.4 35.1171 54.4C35.1157 54.4 35.1144 54.4 35.1131 54.4C35.1118 54.4 35.1105 54.4 35.1092 54.4C35.1079 54.4 35.1065 54.4 35.1052 54.4C35.1039 54.4 35.1026 54.4 35.1013 54.4C35.1 54.4 35.0987 54.4 35.0974 54.4C35.0961 54.4 35.0947 54.4 35.0934 54.4C35.0921 54.4 35.0908 54.4 35.0895 54.4C35.0882 54.4 35.0869 54.4 35.0856 54.4C35.0843 54.4 35.083 54.4 35.0817 54.4C35.0804 54.4 35.0791 54.4 35.0777 54.4C35.0764 54.4 35.0751 54.4 35.0738 54.4C35.0725 54.4 35.0712 54.4 35.0699 54.4C35.0686 54.4 35.0673 54.4 35.066 54.4C35.0647 54.4 35.0634 54.4 35.0621 54.4C35.0608 54.4 35.0595 54.4 35.0582 54.4C35.0569 54.4 35.0556 54.4 35.0543 54.4C35.053 54.4 35.0517 54.4 35.0504 54.4C35.0491 54.4 35.0478 54.4 35.0465 54.4C35.0452 54.4 35.0439 54.4 35.0426 54.4C35.0413 54.4 35.04 54.4 35.0387 54.4C35.0375 54.4 35.0362 54.4 35.0349 54.4C35.0336 54.4 35.0323 54.4 35.031 54.4C35.0297 54.4 35.0284 54.4 35.0271 54.4C35.0258 54.4 35.0245 54.4 35.0232 54.4C35.0219 54.4 35.0207 54.4 35.0194 54.4C35.0181 54.4 35.0168 54.4 35.0155 54.4C35.0142 54.4 35.0129 54.4 35.0116 54.4C35.0103 54.4 35.0091 54.4 35.0078 54.4C35.0065 54.4 35.0052 54.4 35.0039 54.4C35.0026 54.4 35.0013 54.4 35.0001 54.4C34.9988 54.4 34.9975 54.4 34.9962 54.4C34.9949 54.4 34.9936 54.4 34.9923 54.4C34.9911 54.4 34.9898 54.4 34.9885 54.4C34.9872 54.4 34.9859 54.4 34.9847 54.4C34.9834 54.4 34.9821 54.4 34.9808 54.4C34.9795 54.4 34.9783 54.4 34.977 54.4C34.9757 54.4 34.9744 54.4 34.9731 54.4C34.9719 54.4 34.9706 54.4 34.9693 54.4C34.968 54.4 34.9668 54.4 34.9655 54.4C34.9642 54.4 34.9629 54.4 34.9617 54.4C34.9604 54.4 34.9591 54.4 34.9578 54.4C34.9566 54.4 34.9553 54.4 34.954 54.4C34.9527 54.4 34.9515 54.4 34.9502 54.4C34.9489 54.4 34.9477 54.4 34.9464 54.4C34.9451 54.4 34.9438 54.4 34.9426 54.4C34.9413 54.4 34.94 54.4 34.9388 54.4C34.9375 54.4 34.9362 54.4 34.935 54.4C34.9337 54.4 34.9324 54.4 34.9312 54.4C34.9299 54.4 34.9286 54.4 34.9274 54.4C34.9261 54.4 34.9248 54.4 34.9236 54.4C34.9223 54.4 34.921 54.4 34.9198 54.4C34.9185 54.4 34.9173 54.4 34.916 54.4C34.9147 54.4 34.9135 54.4 34.9122 54.4C34.9109 54.4 34.9097 54.4 34.9084 54.4C34.9072 54.4 34.9059 54.4 34.9046 54.4C34.9034 54.4 34.9021 54.4 34.9009 54.4C34.8996 54.4 34.8984 54.4 34.8971 54.4C34.8958 54.4 34.8946 54.4 34.8933 54.4C34.8921 54.4 34.8908 54.4 34.8896 54.4C34.8883 54.4 34.887 54.4 34.8858 54.4C34.8845 54.4 34.8833 54.4 34.882 54.4C34.8808 54.4 34.8795 54.4 34.8783 54.4C34.877 54.4 34.8758 54.4 34.8745 54.4C34.8733 54.4 34.872 54.4 34.8708 54.4C34.8695 54.4 34.8683 54.4 34.867 54.4C34.8658 54.4 34.8645 54.4 34.8633 54.4C34.862 54.4 34.8608 54.4 34.8595 54.4C34.8583 54.4 34.857 54.4 34.8558 54.4C34.8545 54.4 34.8533 54.4 34.8521 54.4C34.8508 54.4 34.8496 54.4 34.8483 54.4C34.8471 54.4 34.8458 54.4 34.8446 54.4C34.8433 54.4 34.8421 54.4 34.8409 54.4C34.8396 54.4 34.8384 54.4 34.8371 54.4C34.8359 54.4 34.8347 54.4 34.8334 54.4C34.8322 54.4 34.8309 54.4 34.8297 54.4C34.8285 54.4 34.8272 54.4 34.826 54.4C34.8247 54.4 34.8235 54.4 34.8223 54.4C34.821 54.4 34.8198 54.4 34.8186 54.4C34.8173 54.4 34.8161 54.4 34.8149 54.4C34.8136 54.4 34.8124 54.4 34.8111 54.4C34.8099 54.4 34.8087 54.4 34.8074 54.4C34.8062 54.4 34.805 54.4 34.8038 54.4C34.8025 54.4 34.8013 54.4 34.8001 54.4C34.7988 54.4 34.7976 54.4 34.7964 54.4C34.7951 54.4 34.7939 54.4 34.7927 54.4C34.7914 54.4 34.7902 54.4 34.789 54.4C34.7878 54.4 34.7865 54.4 34.7853 54.4C34.7841 54.4 34.7829 54.4 34.7816 54.4C34.7804 54.4 34.7792 54.4 34.778 54.4C34.7767 54.4 34.7755 54.4 34.7743 54.4C34.7731 54.4 34.7718 54.4 34.7706 54.4C34.7694 54.4 34.7682 54.4 34.7669 54.4C34.7657 54.4 34.7645 54.4 34.7633 54.4C34.7621 54.4 34.7608 54.4 34.7596 54.4C34.7584 54.4 34.7572 54.4 34.756 54.4C34.7547 54.4 34.7535 54.4 34.7523 54.4C34.7511 54.4 34.7499 54.4 34.7487 54.4C34.7474 54.4 34.7462 54.4 34.745 54.4C34.7438 54.4 34.7426 54.4 34.7414 54.4C34.7402 54.4 34.7389 54.4 34.7377 54.4C34.7365 54.4 34.7353 54.4 34.7341 54.4C34.7329 54.4 34.7317 54.4 34.7304 54.4C34.7292 54.4 34.728 54.4 34.7268 54.4C34.7256 54.4 34.7244 54.4 34.7232 54.4C34.722 54.4 34.7208 54.4 34.7196 54.4C34.7183 54.4 34.7171 54.4 34.7159 54.4C34.7147 54.4 34.7135 54.4 34.7123 54.4C34.7111 54.4 34.7099 54.4 34.7087 54.4C34.7075 54.4 34.7063 54.4 34.7051 54.4C34.7039 54.4 34.7027 54.4 34.7015 54.4C34.7003 54.4 34.6991 54.4 34.6979 54.4C34.6967 54.4 34.6955 54.4 34.6943 54.4C34.6931 54.4 34.6919 54.4 34.6907 54.4C34.6895 54.4 34.6883 54.4 34.6871 54.4C34.6859 54.4 34.6847 54.4 34.6835 54.4C34.6823 54.4 34.6811 54.4 34.6799 54.4C34.6787 54.4 34.6775 54.4 34.6763 54.4C34.6751 54.4 34.6739 54.4 34.6727 54.4C34.6715 54.4 34.6703 54.4 34.6691 54.4C34.6679 54.4 34.6667 54.4 34.6655 54.4C34.6643 54.4 34.6631 54.4 34.6619 54.4C34.6607 54.4 34.6596 54.4 34.6584 54.4C34.6572 54.4 34.656 54.4 34.6548 54.4C34.6536 54.4 34.6524 54.4 34.6512 54.4C34.65 54.4 34.6488 54.4 34.6477 54.4C34.6465 54.4 34.6453 54.4 34.6441 54.4C34.6429 54.4 34.6417 54.4 34.6405 54.4C34.6393 54.4 34.6382 54.4 34.637 54.4C34.6358 54.4 34.6346 54.4 34.6334 54.4C34.6322 54.4 34.6311 54.4 34.6299 54.4C34.6287 54.4 34.6275 54.4 34.6263 54.4C34.6251 54.4 34.624 54.4 34.6228 54.4C34.6216 54.4 34.6204 54.4 34.6192 54.4C34.6181 54.4 34.6169 54.4 34.6157 54.4C34.6145 54.4 34.6133 54.4 34.6122 54.4C34.611 54.4 34.6098 54.4 34.6086 54.4C34.6075 54.4 34.6063 54.4 34.6051 54.4C34.6039 54.4 34.6028 54.4 34.6016 54.4C34.6004 54.4 34.5992 54.4 34.5981 54.4C34.5969 54.4 34.5957 54.4 34.5945 54.4C34.5934 54.4 34.5922 54.4 34.591 54.4C34.5898 54.4 34.5887 54.4 34.5875 54.4C34.5863 54.4 34.5852 54.4 34.584 54.4C34.5828 54.4 34.5817 54.4 34.5805 54.4C34.5793 54.4 34.5781 54.4 34.577 54.4C34.5758 54.4 34.5746 54.4 34.5735 54.4C34.5723 54.4 34.5711 54.4 34.57 54.4C34.5688 54.4 34.5676 54.4 34.5665 54.4C34.5653 54.4 34.5642 54.4 34.563 54.4C34.5618 54.4 34.5607 54.4 34.5595 54.4C34.5583 54.4 34.5572 54.4 34.556 54.4C34.5549 54.4 34.5537 54.4 34.5525 54.4C34.5514 54.4 34.5502 54.4 34.549 54.4C34.5479 54.4 34.5467 54.4 34.5456 54.4C34.5444 54.4 34.5433 54.4 34.5421 54.4C34.5409 54.4 34.5398 54.4 34.5386 54.4C34.5375 54.4 34.5363 54.4 34.5352 54.4C34.534 54.4 34.5328 54.4 34.5317 54.4C34.5305 54.4 34.5294 54.4 34.5282 54.4C34.5271 54.4 34.5259 54.4 34.5248 54.4C34.5236 54.4 34.5225 54.4 34.5213 54.4C34.5202 54.4 34.519 54.4 34.5179 54.4C34.5167 54.4 34.5156 54.4 34.5144 54.4C34.5133 54.4 34.5121 54.4 34.511 54.4C34.5098 54.4 34.5087 54.4 34.5075 54.4C34.5064 54.4 34.5052 54.4 34.5041 54.4C34.5029 54.4 34.5018 54.4 34.5006 54.4C34.4995 54.4 34.4984 54.4 34.4972 54.4C34.4961 54.4 34.4949 54.4 34.4938 54.4C34.4926 54.4 34.4915 54.4 34.4903 54.4C34.4892 54.4 34.4881 54.4 34.4869 54.4C34.4858 54.4 34.4846 54.4 34.4835 54.4C34.4824 54.4 34.4812 54.4 34.4801 54.4C34.4789 54.4 34.4778 54.4 34.4767 54.4C34.4755 54.4 34.4744 54.4 34.4732 54.4C34.4721 54.4 34.471 54.4 34.4698 54.4C34.4687 54.4 34.4676 54.4 34.4664 54.4C34.4653 54.4 34.4642 54.4 34.463 54.4C34.4619 54.4 34.4608 54.4 34.4596 54.4C34.4585 54.4 34.4574 54.4 34.4562 54.4C34.4551 54.4 34.454 54.4 34.4528 54.4C34.4517 54.4 34.4506 54.4 34.4494 54.4C34.4483 54.4 34.4472 54.4 34.4461 54.4C34.4449 54.4 34.4438 54.4 34.4427 54.4C34.4415 54.4 34.4404 54.4 34.4393 54.4C34.4382 54.4 34.437 54.4 34.4359 54.4C34.4348 54.4 34.4337 54.4 34.4325 54.4C34.4314 54.4 34.4303 54.4 34.4292 54.4C34.428 54.4 34.4269 54.4 34.4258 54.4C34.4247 54.4 34.4235 54.4 34.4224 54.4C34.4213 54.4 34.4202 54.4 34.4191 54.4C34.4179 54.4 34.4168 54.4 34.4157 54.4C34.4146 54.4 34.4134 54.4 34.4123 54.4C34.4112 54.4 34.4101 54.4 34.409 54.4C34.4079 54.4 34.4067 54.4 34.4056 54.4C34.4045 54.4 34.4034 54.4 34.4023 54.4C34.4012 54.4 34.4 54.4 34.3989 54.4C34.3978 54.4 34.3967 54.4 34.3956 54.4C34.3945 54.4 34.3934 54.4 34.3922 54.4C34.3911 54.4 34.39 54.4 34.3889 54.4C34.3878 54.4 34.3867 54.4 34.3856 54.4C34.3845 54.4 34.3834 54.4 34.3822 54.4C34.3811 54.4 34.38 54.4 34.3789 54.4C34.3778 54.4 34.3767 54.4 34.3756 54.4C34.3745 54.4 34.3734 54.4 34.3723 54.4C34.3712 54.4 34.3701 54.4 34.3689 54.4C34.3678 54.4 34.3667 54.4 34.3656 54.4C34.3645 54.4 34.3634 54.4 34.3623 54.4C34.3612 54.4 34.3601 54.4 34.359 54.4C34.3579 54.4 34.3568 54.4 34.3557 54.4C34.3546 54.4 34.3535 54.4 34.3524 54.4C34.3513 54.4 34.3502 54.4 34.3491 54.4C34.348 54.4 34.3469 54.4 34.3458 54.4C34.3447 54.4 34.3436 54.4 34.3425 54.4C34.3414 54.4 34.3403 54.4 34.3392 54.4C34.3381 54.4 34.337 54.4 34.3359 54.4C34.3348 54.4 34.3337 54.4 34.3326 54.4C34.3315 54.4 34.3305 54.4 34.3294 54.4C34.3283 54.4 34.3272 54.4 34.3261 54.4C34.325 54.4 34.3239 54.4 34.3228 54.4C34.3217 54.4 34.3206 54.4 34.3195 54.4C34.3184 54.4 34.3174 54.4 34.3163 54.4C34.3152 54.4 34.3141 54.4 34.313 54.4C34.3119 54.4 34.3108 54.4 34.3097 54.4C34.3086 54.4 34.3076 54.4 34.3065 54.4C34.3054 54.4 34.3043 54.4 34.3032 54.4C34.3021 54.4 34.301 54.4 34.3 54.4C34.2989 54.4 34.2978 54.4 34.2967 54.4C34.2956 54.4 34.2945 54.4 34.2935 54.4C34.2924 54.4 34.2913 54.4 34.2902 54.4C34.2891 54.4 34.2881 54.4 34.287 54.4C34.2859 54.4 34.2848 54.4 34.2837 54.4C34.2827 54.4 34.2816 54.4 34.2805 54.4C34.2794 54.4 34.2783 54.4 34.2773 54.4C34.2762 54.4 34.2751 54.4 34.274 54.4C34.273 54.4 34.2719 54.4 34.2708 54.4C34.2697 54.4 34.2687 54.4 34.2676 54.4C34.2665 54.4 34.2654 54.4 34.2644 54.4C34.2633 54.4 34.2622 54.4 34.2611 54.4C34.2601 54.4 34.259 54.4 34.2579 54.4C34.2569 54.4 34.2558 54.4 34.2547 54.4C34.2536 54.4 34.2526 54.4 34.2515 54.4C34.2504 54.4 34.2494 54.4 34.2483 54.4C34.2472 54.4 34.2462 54.4 34.2451 54.4C34.244 54.4 34.243 54.4 34.2419 54.4C34.2408 54.4 34.2398 54.4 34.2387 54.4C34.2376 54.4 34.2366 54.4 34.2355 54.4C34.2344 54.4 34.2334 54.4 34.2323 54.4C34.2313 54.4 34.2302 54.4 34.2291 54.4C34.2281 54.4 34.227 54.4 34.2259 54.4C34.2249 54.4 34.2238 54.4 34.2228 54.4C34.2217 54.4 34.2206 54.4 34.2196 54.4C34.2185 54.4 34.2175 54.4 34.2164 54.4C34.2154 54.4 34.2143 54.4 34.2132 54.4C34.2122 54.4 34.2111 54.4 34.2101 54.4C34.209 54.4 34.208 54.4 34.2069 54.4C34.2058 54.4 34.2048 54.4 34.2037 54.4C34.2027 54.4 34.2016 54.4 34.2006 54.4C34.1995 54.4 34.1985 54.4 34.1974 54.4C34.1964 54.4 34.1953 54.4 34.1943 54.4C34.1932 54.4 34.1922 54.4 34.1911 54.4C34.1901 54.4 34.189 54.4 34.188 54.4C34.1869 54.4 34.1859 54.4 34.1848 54.4C34.1838 54.4 34.1827 54.4 34.1817 54.4C34.1806 54.4 34.1796 54.4 34.1785 54.4C34.1775 54.4 34.1765 54.4 34.1754 54.4C34.1744 54.4 34.1733 54.4 34.1723 54.4C34.1712 54.4 34.1702 54.4 34.1691 54.4C34.1681 54.4 34.1671 54.4 34.166 54.4V56.4ZM36.166 56.4C38.7447 56.4 40.8497 55.8474 42.2514 54.5282L40.8807 53.0718C40.0156 53.8859 38.5206 54.4 36.166 54.4V56.4ZM42.2514 54.5282C43.6722 53.1909 44.266 51.1283 44.266 48.6H42.266C42.266 50.8717 41.7265 52.2757 40.8807 53.0718L42.2514 54.5282ZM44.266 48.6C44.266 46.4073 43.6389 44.5777 42.2514 43.2718L40.8807 44.7282C41.7598 45.5557 42.266 46.7927 42.266 48.6H44.266ZM42.2942 43.3146C40.9947 41.9339 39.2037 41.3 37.066 41.3V43.3C38.795 43.3 40.004 43.7995 40.8378 44.6854L42.2942 43.3146ZM37.066 41.3C34.7766 41.3 32.7734 42.0087 31.1124 43.4432L32.4196 44.9568C33.692 43.858 35.2221 43.3 37.066 43.3V41.3ZM31.1152 43.4407C29.3986 44.9121 28.5726 47.4954 28.3679 50.8389L30.3641 50.9611C30.5594 47.7713 31.3334 45.8879 32.4168 44.9593L31.1152 43.4407ZM29.6725 49.9481L11.9725 44.2481L11.3595 46.1519L29.0595 51.8519L29.6725 49.9481ZM12.6572 45.3322C13.1665 41.5129 14.5889 38.3776 16.9001 35.879L15.4319 34.521C12.8098 37.3557 11.2322 40.8871 10.6748 45.0678L12.6572 45.3322ZM16.891 35.8887C19.3084 33.3441 22.3409 31.3908 26.0117 30.0383L25.3203 28.1617C21.3912 29.6092 18.0903 31.7225 15.441 34.5113L16.891 35.8887ZM26.0065 30.0403C29.7503 28.6847 33.9 28 38.466 28V26C33.6987 26 29.3151 26.7153 25.3256 28.1597L26.0065 30.0403ZM38.466 28C43.6464 28 47.9429 28.7222 51.3887 30.1261L52.1433 28.2739C48.3892 26.7444 43.8189 26 38.466 26V28ZM51.3946 30.1285C54.9132 31.5359 57.5056 33.524 59.2402 36.064L60.8918 34.936C58.8931 32.0093 55.9522 29.7974 52.1374 28.2715L51.3946 30.1285ZM59.2496 36.0775C61.0437 38.6139 61.966 41.7363 61.966 45.5H63.966C63.966 41.397 62.955 37.8527 60.8824 34.9225L59.2496 36.0775ZM61.966 45.5C61.966 48.3974 61.4819 50.6926 60.5778 52.4406L62.3542 53.3594C63.4501 51.2407 63.966 48.6026 63.966 45.5H61.966ZM60.5655 52.4652C59.6889 54.281 58.5805 55.6841 57.2546 56.7087L58.4775 58.2913C60.0849 57.0492 61.3765 55.3856 62.3666 53.3347L60.5655 52.4652ZM57.2546 56.7087C55.8411 57.8009 54.5212 58.5809 53.2946 59.0715L54.0374 60.9285C55.4775 60.3525 56.9576 59.4657 58.4775 58.2913L57.2546 56.7087ZM53.3357 59.0561C52.0291 59.5134 51.1257 59.7 50.566 59.7V61.7C51.473 61.7 52.6363 61.4199 53.9964 60.9439L53.3357 59.0561ZM49.566 60.7V61.1H51.566V60.7H49.566ZM50.566 62.1C51.2525 62.1 52.2988 62.2466 53.7444 62.5751L54.1876 60.6249C52.6999 60.2868 51.4795 60.1 50.566 60.1V62.1ZM53.7536 62.5772C55.1639 62.8838 56.5942 63.4705 58.0461 64.3542L59.086 62.6458C57.4711 61.6629 55.8348 60.9829 54.1784 60.6228L53.7536 62.5772ZM58.0621 64.3638C59.4877 65.1953 60.704 66.4571 61.6978 68.1961L63.4343 67.2039C62.2947 65.2096 60.8444 63.6713 59.0699 62.6362L58.0621 64.3638ZM61.7198 68.2328C62.7195 69.8205 63.266 72.0146 63.266 74.9H65.266C65.266 71.7853 64.6792 69.1795 63.4123 67.1672L61.7198 68.2328ZM63.266 74.9C63.266 78.8383 62.1905 82.2257 60.0618 85.1056L61.6702 86.2944C64.0749 83.041 65.266 79.2283 65.266 74.9H63.266ZM60.0681 85.0972C57.9207 87.9394 55.0048 90.1362 51.2837 91.676L52.0484 93.524C56.0606 91.8638 59.278 89.4606 61.6639 86.3028L60.0681 85.0972ZM51.2837 91.676C47.5547 93.219 43.3539 94 38.666 94V96C43.5781 96 48.044 95.181 52.0484 93.524L51.2837 91.676Z" fill="#ED0EEB" mask="url(#path-1-outside-1_224_13)"/>
<mask id="path-3-outside-2_224_13" maskUnits="userSpaceOnUse" x="7" y="25" width="57" height="70" fill="black">
<rect fill="white" x="7" y="25" width="57" height="70"/>
<path d="M36.666 94C29.1993 94 23.066 92.6333 18.266 89.9C13.5327 87.1 10.2327 82.9333 8.36602 77.4L26.966 69.7C27.0327 72.0333 27.4327 73.8667 28.166 75.2C28.8993 76.5333 29.8993 77.4667 31.166 78C32.4993 78.4667 33.8994 78.7 35.366 78.7C36.8327 78.7 38.0994 78.4667 39.166 78C40.2993 77.4667 41.166 76.7 41.766 75.7C42.366 74.7 42.666 73.5333 42.666 72.2C42.666 70.6667 42.3327 69.4667 41.666 68.6C41.066 67.7333 40.2327 67.1333 39.166 66.8C38.0994 66.4 36.866 66.2 35.466 66.2C34.5327 66.2 33.6994 66.2333 32.966 66.3C32.2994 66.3667 31.4994 66.4667 30.566 66.6V54.2C31.0993 54.2667 31.6327 54.3333 32.166 54.4C32.6994 54.4 33.366 54.4 34.166 54.4C36.6327 54.4 38.4327 53.8667 39.566 52.8C40.6994 51.7333 41.266 50 41.266 47.6C41.266 45.6 40.6994 44.0667 39.566 43C38.4994 41.8667 36.9994 41.3 35.066 41.3C32.9994 41.3 31.2327 41.9333 29.766 43.2C28.366 44.4 27.566 46.6333 27.366 49.9L9.66602 44.2C10.1993 40.2 11.6993 36.8667 14.166 34.2C16.6993 31.5333 19.866 29.5 23.666 28.1C27.5327 26.7 31.7993 26 36.466 26C41.7327 26 46.166 26.7333 49.766 28.2C53.4327 29.6667 56.1994 31.7667 58.066 34.5C59.9994 37.2333 60.966 40.5667 60.966 44.5C60.966 47.5 60.466 49.9667 59.466 51.9C58.5327 53.8333 57.3327 55.3667 55.866 56.5C54.3994 57.6333 52.9994 58.4667 51.666 59C50.3327 59.4667 49.2994 59.7 48.566 59.7V60.1C49.366 60.1 50.4994 60.2667 51.966 60.6C53.4994 60.9333 55.0327 61.5667 56.566 62.5C58.166 63.4333 59.4993 64.8333 60.566 66.7C61.6994 68.5 62.266 70.9 62.266 73.9C62.266 78.0333 61.1327 81.6333 58.866 84.7C56.5994 87.7 53.5327 90 49.666 91.6C45.7994 93.2 41.466 94 36.666 94Z"/>
</mask>
<path d="M18.266 89.9L17.7569 90.7607L17.764 90.7649L17.7712 90.769L18.266 89.9ZM8.36602 77.4L7.98352 76.476L7.1196 76.8337L7.41848 77.7197L8.36602 77.4ZM26.966 69.7L27.9656 69.6714L27.9242 68.221L26.5835 68.776L26.966 69.7ZM28.166 75.2L29.0422 74.7181L29.0422 74.7181L28.166 75.2ZM31.166 78L30.778 78.9216L30.8065 78.9336L30.8357 78.9439L31.166 78ZM39.166 78L39.5668 78.9162L39.5794 78.9107L39.5918 78.9048L39.166 78ZM41.666 68.6L40.8438 69.1692L40.8581 69.1898L40.8734 69.2097L41.666 68.6ZM39.166 66.8L38.8149 67.7363L38.8411 67.7461L38.8677 67.7545L39.166 66.8ZM32.966 66.3L32.8755 65.3041L32.8665 65.305L32.966 66.3ZM30.566 66.6H29.566V67.753L30.7074 67.5899L30.566 66.6ZM30.566 54.2L30.6901 53.2077L29.566 53.0672V54.2H30.566ZM32.166 54.4L32.042 55.3923L32.1038 55.4H32.166V54.4ZM39.566 52.8L40.2514 53.5282L40.2514 53.5282L39.566 52.8ZM39.566 43L38.8378 43.6854L38.8586 43.7074L38.8807 43.7282L39.566 43ZM29.766 43.2L30.4168 43.9593L30.4196 43.9568L29.766 43.2ZM27.366 49.9L27.0595 50.8519L28.2854 51.2467L28.3641 49.9611L27.366 49.9ZM9.66602 44.2L8.67479 44.0678L8.56439 44.8958L9.35948 45.1519L9.66602 44.2ZM14.166 34.2L13.441 33.5112L13.4319 33.521L14.166 34.2ZM23.666 28.1L23.3256 27.1597L23.3203 27.1617L23.666 28.1ZM49.766 28.2L49.3887 29.1261L49.3946 29.1285L49.766 28.2ZM58.066 34.5L57.2402 35.064L57.2449 35.0707L57.2496 35.0775L58.066 34.5ZM59.466 51.9L58.5778 51.4406L58.5715 51.4528L58.5655 51.4652L59.466 51.9ZM55.866 56.5L55.2546 55.7087L55.2546 55.7087L55.866 56.5ZM51.666 59L51.9964 59.9439L52.0171 59.9366L52.0374 59.9285L51.666 59ZM48.566 59.7V58.7H47.566V59.7H48.566ZM48.566 60.1H47.566V61.1H48.566V60.1ZM51.966 60.6L51.7444 61.5752L51.7536 61.5772L51.966 60.6ZM56.566 62.5L56.0461 63.3542L56.0541 63.3591L56.0621 63.3638L56.566 62.5ZM60.566 66.7L59.6978 67.1961L59.7084 67.2147L59.7198 67.2328L60.566 66.7ZM58.866 84.7L59.6639 85.3029L59.6702 85.2944L58.866 84.7ZM49.666 91.6L50.0484 92.524L50.0484 92.524L49.666 91.6ZM36.666 93C29.3142 93 23.3662 91.6535 18.7609 89.031L17.7712 90.769C22.7658 93.6132 29.0845 95 36.666 95V93ZM18.7752 89.0393C14.2615 86.3693 11.1088 82.4019 9.31355 77.0803L7.41848 77.7197C9.3566 83.4648 12.8039 87.8307 17.7569 90.7607L18.7752 89.0393ZM8.74851 78.324L27.3485 70.624L26.5835 68.776L7.98352 76.476L8.74851 78.324ZM25.9664 69.7286C26.0354 72.1436 26.4498 74.1547 27.2898 75.6819L29.0422 74.7181C28.4155 73.5786 28.0299 71.9231 27.9656 69.6714L25.9664 69.7286ZM27.2898 75.6819C28.1193 77.1902 29.2813 78.2914 30.778 78.9216L31.5541 77.0784C30.5174 76.6419 29.6794 75.8765 29.0422 74.7181L27.2898 75.6819ZM30.8357 78.9439C32.2792 79.4491 33.7912 79.7 35.366 79.7V77.7C34.0075 77.7 32.7195 77.4842 31.4964 77.0561L30.8357 78.9439ZM35.366 79.7C36.936 79.7 38.3455 79.4505 39.5668 78.9162L38.7652 77.0838C37.8532 77.4828 36.7293 77.7 35.366 77.7V79.7ZM39.5918 78.9048C40.8906 78.2936 41.9138 77.3973 42.6235 76.2145L40.9085 75.1855C40.4182 76.0027 39.7081 76.6397 38.7402 77.0952L39.5918 78.9048ZM42.6235 76.2145C43.3295 75.0378 43.666 73.6881 43.666 72.2H41.666C41.666 73.3786 41.4025 74.3622 40.9085 75.1855L42.6235 76.2145ZM43.666 72.2C43.666 70.5329 43.3045 69.0899 42.4586 67.9903L40.8734 69.2097C41.3608 69.8434 41.666 70.8004 41.666 72.2H43.666ZM42.4882 68.0308C41.7534 66.9694 40.7299 66.241 39.4643 65.8455L38.8677 67.7545C39.7354 68.0256 40.3786 68.4972 40.8438 69.1692L42.4882 68.0308ZM39.5171 65.8637C38.3158 65.4132 36.9594 65.2 35.466 65.2V67.2C36.7726 67.2 37.8829 67.3868 38.8149 67.7363L39.5171 65.8637ZM35.466 65.2C34.51 65.2 33.6456 65.2341 32.8755 65.3041L33.0566 67.2959C33.7531 67.2326 34.5553 67.2 35.466 67.2V65.2ZM32.8665 65.305C32.1815 65.3735 31.3667 65.4755 30.4246 65.6101L30.7074 67.5899C31.632 67.4579 32.4172 67.3599 33.0655 67.295L32.8665 65.305ZM31.566 66.6V54.2H29.566V66.6H31.566ZM30.442 55.1923C30.9753 55.2589 31.5086 55.3256 32.042 55.3923L32.2901 53.4077C31.7567 53.3411 31.2234 53.2744 30.6901 53.2077L30.442 55.1923ZM32.166 55.4C32.1671 55.4 32.1681 55.4 32.1691 55.4C32.1702 55.4 32.1712 55.4 32.1723 55.4C32.1733 55.4 32.1744 55.4 32.1754 55.4C32.1765 55.4 32.1775 55.4 32.1785 55.4C32.1796 55.4 32.1806 55.4 32.1817 55.4C32.1827 55.4 32.1838 55.4 32.1848 55.4C32.1859 55.4 32.1869 55.4 32.188 55.4C32.189 55.4 32.1901 55.4 32.1911 55.4C32.1922 55.4 32.1932 55.4 32.1943 55.4C32.1953 55.4 32.1964 55.4 32.1974 55.4C32.1985 55.4 32.1995 55.4 32.2006 55.4C32.2016 55.4 32.2027 55.4 32.2037 55.4C32.2048 55.4 32.2058 55.4 32.2069 55.4C32.208 55.4 32.209 55.4 32.2101 55.4C32.2111 55.4 32.2122 55.4 32.2132 55.4C32.2143 55.4 32.2154 55.4 32.2164 55.4C32.2175 55.4 32.2185 55.4 32.2196 55.4C32.2206 55.4 32.2217 55.4 32.2228 55.4C32.2238 55.4 32.2249 55.4 32.2259 55.4C32.227 55.4 32.2281 55.4 32.2291 55.4C32.2302 55.4 32.2313 55.4 32.2323 55.4C32.2334 55.4 32.2344 55.4 32.2355 55.4C32.2366 55.4 32.2376 55.4 32.2387 55.4C32.2398 55.4 32.2408 55.4 32.2419 55.4C32.243 55.4 32.244 55.4 32.2451 55.4C32.2462 55.4 32.2472 55.4 32.2483 55.4C32.2494 55.4 32.2504 55.4 32.2515 55.4C32.2526 55.4 32.2536 55.4 32.2547 55.4C32.2558 55.4 32.2569 55.4 32.2579 55.4C32.259 55.4 32.2601 55.4 32.2611 55.4C32.2622 55.4 32.2633 55.4 32.2644 55.4C32.2654 55.4 32.2665 55.4 32.2676 55.4C32.2687 55.4 32.2697 55.4 32.2708 55.4C32.2719 55.4 32.273 55.4 32.274 55.4C32.2751 55.4 32.2762 55.4 32.2773 55.4C32.2783 55.4 32.2794 55.4 32.2805 55.4C32.2816 55.4 32.2827 55.4 32.2837 55.4C32.2848 55.4 32.2859 55.4 32.287 55.4C32.2881 55.4 32.2891 55.4 32.2902 55.4C32.2913 55.4 32.2924 55.4 32.2935 55.4C32.2945 55.4 32.2956 55.4 32.2967 55.4C32.2978 55.4 32.2989 55.4 32.3 55.4C32.301 55.4 32.3021 55.4 32.3032 55.4C32.3043 55.4 32.3054 55.4 32.3065 55.4C32.3076 55.4 32.3086 55.4 32.3097 55.4C32.3108 55.4 32.3119 55.4 32.313 55.4C32.3141 55.4 32.3152 55.4 32.3163 55.4C32.3174 55.4 32.3184 55.4 32.3195 55.4C32.3206 55.4 32.3217 55.4 32.3228 55.4C32.3239 55.4 32.325 55.4 32.3261 55.4C32.3272 55.4 32.3283 55.4 32.3294 55.4C32.3305 55.4 32.3315 55.4 32.3326 55.4C32.3337 55.4 32.3348 55.4 32.3359 55.4C32.337 55.4 32.3381 55.4 32.3392 55.4C32.3403 55.4 32.3414 55.4 32.3425 55.4C32.3436 55.4 32.3447 55.4 32.3458 55.4C32.3469 55.4 32.348 55.4 32.3491 55.4C32.3502 55.4 32.3513 55.4 32.3524 55.4C32.3535 55.4 32.3546 55.4 32.3557 55.4C32.3568 55.4 32.3579 55.4 32.359 55.4C32.3601 55.4 32.3612 55.4 32.3623 55.4C32.3634 55.4 32.3645 55.4 32.3656 55.4C32.3667 55.4 32.3678 55.4 32.3689 55.4C32.3701 55.4 32.3712 55.4 32.3723 55.4C32.3734 55.4 32.3745 55.4 32.3756 55.4C32.3767 55.4 32.3778 55.4 32.3789 55.4C32.38 55.4 32.3811 55.4 32.3822 55.4C32.3834 55.4 32.3845 55.4 32.3856 55.4C32.3867 55.4 32.3878 55.4 32.3889 55.4C32.39 55.4 32.3911 55.4 32.3922 55.4C32.3934 55.4 32.3945 55.4 32.3956 55.4C32.3967 55.4 32.3978 55.4 32.3989 55.4C32.4 55.4 32.4012 55.4 32.4023 55.4C32.4034 55.4 32.4045 55.4 32.4056 55.4C32.4067 55.4 32.4079 55.4 32.409 55.4C32.4101 55.4 32.4112 55.4 32.4123 55.4C32.4134 55.4 32.4146 55.4 32.4157 55.4C32.4168 55.4 32.4179 55.4 32.4191 55.4C32.4202 55.4 32.4213 55.4 32.4224 55.4C32.4235 55.4 32.4247 55.4 32.4258 55.4C32.4269 55.4 32.428 55.4 32.4292 55.4C32.4303 55.4 32.4314 55.4 32.4325 55.4C32.4337 55.4 32.4348 55.4 32.4359 55.4C32.437 55.4 32.4382 55.4 32.4393 55.4C32.4404 55.4 32.4415 55.4 32.4427 55.4C32.4438 55.4 32.4449 55.4 32.4461 55.4C32.4472 55.4 32.4483 55.4 32.4494 55.4C32.4506 55.4 32.4517 55.4 32.4528 55.4C32.454 55.4 32.4551 55.4 32.4562 55.4C32.4574 55.4 32.4585 55.4 32.4596 55.4C32.4608 55.4 32.4619 55.4 32.463 55.4C32.4642 55.4 32.4653 55.4 32.4664 55.4C32.4676 55.4 32.4687 55.4 32.4698 55.4C32.471 55.4 32.4721 55.4 32.4732 55.4C32.4744 55.4 32.4755 55.4 32.4767 55.4C32.4778 55.4 32.4789 55.4 32.4801 55.4C32.4812 55.4 32.4824 55.4 32.4835 55.4C32.4846 55.4 32.4858 55.4 32.4869 55.4C32.4881 55.4 32.4892 55.4 32.4903 55.4C32.4915 55.4 32.4926 55.4 32.4938 55.4C32.4949 55.4 32.4961 55.4 32.4972 55.4C32.4984 55.4 32.4995 55.4 32.5006 55.4C32.5018 55.4 32.5029 55.4 32.5041 55.4C32.5052 55.4 32.5064 55.4 32.5075 55.4C32.5087 55.4 32.5098 55.4 32.511 55.4C32.5121 55.4 32.5133 55.4 32.5144 55.4C32.5156 55.4 32.5167 55.4 32.5179 55.4C32.519 55.4 32.5202 55.4 32.5213 55.4C32.5225 55.4 32.5236 55.4 32.5248 55.4C32.5259 55.4 32.5271 55.4 32.5282 55.4C32.5294 55.4 32.5305 55.4 32.5317 55.4C32.5328 55.4 32.534 55.4 32.5352 55.4C32.5363 55.4 32.5375 55.4 32.5386 55.4C32.5398 55.4 32.5409 55.4 32.5421 55.4C32.5433 55.4 32.5444 55.4 32.5456 55.4C32.5467 55.4 32.5479 55.4 32.549 55.4C32.5502 55.4 32.5514 55.4 32.5525 55.4C32.5537 55.4 32.5549 55.4 32.556 55.4C32.5572 55.4 32.5583 55.4 32.5595 55.4C32.5607 55.4 32.5618 55.4 32.563 55.4C32.5642 55.4 32.5653 55.4 32.5665 55.4C32.5676 55.4 32.5688 55.4 32.57 55.4C32.5711 55.4 32.5723 55.4 32.5735 55.4C32.5746 55.4 32.5758 55.4 32.577 55.4C32.5781 55.4 32.5793 55.4 32.5805 55.4C32.5817 55.4 32.5828 55.4 32.584 55.4C32.5852 55.4 32.5863 55.4 32.5875 55.4C32.5887 55.4 32.5898 55.4 32.591 55.4C32.5922 55.4 32.5934 55.4 32.5945 55.4C32.5957 55.4 32.5969 55.4 32.5981 55.4C32.5992 55.4 32.6004 55.4 32.6016 55.4C32.6028 55.4 32.6039 55.4 32.6051 55.4C32.6063 55.4 32.6075 55.4 32.6086 55.4C32.6098 55.4 32.611 55.4 32.6122 55.4C32.6133 55.4 32.6145 55.4 32.6157 55.4C32.6169 55.4 32.6181 55.4 32.6192 55.4C32.6204 55.4 32.6216 55.4 32.6228 55.4C32.624 55.4 32.6251 55.4 32.6263 55.4C32.6275 55.4 32.6287 55.4 32.6299 55.4C32.6311 55.4 32.6322 55.4 32.6334 55.4C32.6346 55.4 32.6358 55.4 32.637 55.4C32.6382 55.4 32.6393 55.4 32.6405 55.4C32.6417 55.4 32.6429 55.4 32.6441 55.4C32.6453 55.4 32.6465 55.4 32.6477 55.4C32.6488 55.4 32.65 55.4 32.6512 55.4C32.6524 55.4 32.6536 55.4 32.6548 55.4C32.656 55.4 32.6572 55.4 32.6584 55.4C32.6596 55.4 32.6607 55.4 32.6619 55.4C32.6631 55.4 32.6643 55.4 32.6655 55.4C32.6667 55.4 32.6679 55.4 32.6691 55.4C32.6703 55.4 32.6715 55.4 32.6727 55.4C32.6739 55.4 32.6751 55.4 32.6763 55.4C32.6775 55.4 32.6787 55.4 32.6799 55.4C32.6811 55.4 32.6823 55.4 32.6835 55.4C32.6847 55.4 32.6859 55.4 32.6871 55.4C32.6883 55.4 32.6895 55.4 32.6907 55.4C32.6919 55.4 32.6931 55.4 32.6943 55.4C32.6955 55.4 32.6967 55.4 32.6979 55.4C32.6991 55.4 32.7003 55.4 32.7015 55.4C32.7027 55.4 32.7039 55.4 32.7051 55.4C32.7063 55.4 32.7075 55.4 32.7087 55.4C32.7099 55.4 32.7111 55.4 32.7123 55.4C32.7135 55.4 32.7147 55.4 32.7159 55.4C32.7171 55.4 32.7183 55.4 32.7196 55.4C32.7208 55.4 32.722 55.4 32.7232 55.4C32.7244 55.4 32.7256 55.4 32.7268 55.4C32.728 55.4 32.7292 55.4 32.7304 55.4C32.7317 55.4 32.7329 55.4 32.7341 55.4C32.7353 55.4 32.7365 55.4 32.7377 55.4C32.7389 55.4 32.7402 55.4 32.7414 55.4C32.7426 55.4 32.7438 55.4 32.745 55.4C32.7462 55.4 32.7474 55.4 32.7487 55.4C32.7499 55.4 32.7511 55.4 32.7523 55.4C32.7535 55.4 32.7547 55.4 32.756 55.4C32.7572 55.4 32.7584 55.4 32.7596 55.4C32.7608 55.4 32.7621 55.4 32.7633 55.4C32.7645 55.4 32.7657 55.4 32.7669 55.4C32.7682 55.4 32.7694 55.4 32.7706 55.4C32.7718 55.4 32.7731 55.4 32.7743 55.4C32.7755 55.4 32.7767 55.4 32.778 55.4C32.7792 55.4 32.7804 55.4 32.7816 55.4C32.7829 55.4 32.7841 55.4 32.7853 55.4C32.7865 55.4 32.7878 55.4 32.789 55.4C32.7902 55.4 32.7914 55.4 32.7927 55.4C32.7939 55.4 32.7951 55.4 32.7964 55.4C32.7976 55.4 32.7988 55.4 32.8001 55.4C32.8013 55.4 32.8025 55.4 32.8038 55.4C32.805 55.4 32.8062 55.4 32.8074 55.4C32.8087 55.4 32.8099 55.4 32.8111 55.4C32.8124 55.4 32.8136 55.4 32.8149 55.4C32.8161 55.4 32.8173 55.4 32.8186 55.4C32.8198 55.4 32.821 55.4 32.8223 55.4C32.8235 55.4 32.8247 55.4 32.826 55.4C32.8272 55.4 32.8285 55.4 32.8297 55.4C32.8309 55.4 32.8322 55.4 32.8334 55.4C32.8347 55.4 32.8359 55.4 32.8371 55.4C32.8384 55.4 32.8396 55.4 32.8409 55.4C32.8421 55.4 32.8433 55.4 32.8446 55.4C32.8458 55.4 32.8471 55.4 32.8483 55.4C32.8496 55.4 32.8508 55.4 32.8521 55.4C32.8533 55.4 32.8545 55.4 32.8558 55.4C32.857 55.4 32.8583 55.4 32.8595 55.4C32.8608 55.4 32.862 55.4 32.8633 55.4C32.8645 55.4 32.8658 55.4 32.867 55.4C32.8683 55.4 32.8695 55.4 32.8708 55.4C32.872 55.4 32.8733 55.4 32.8745 55.4C32.8758 55.4 32.877 55.4 32.8783 55.4C32.8795 55.4 32.8808 55.4 32.882 55.4C32.8833 55.4 32.8845 55.4 32.8858 55.4C32.887 55.4 32.8883 55.4 32.8896 55.4C32.8908 55.4 32.8921 55.4 32.8933 55.4C32.8946 55.4 32.8958 55.4 32.8971 55.4C32.8984 55.4 32.8996 55.4 32.9009 55.4C32.9021 55.4 32.9034 55.4 32.9046 55.4C32.9059 55.4 32.9072 55.4 32.9084 55.4C32.9097 55.4 32.9109 55.4 32.9122 55.4C32.9135 55.4 32.9147 55.4 32.916 55.4C32.9173 55.4 32.9185 55.4 32.9198 55.4C32.921 55.4 32.9223 55.4 32.9236 55.4C32.9248 55.4 32.9261 55.4 32.9274 55.4C32.9286 55.4 32.9299 55.4 32.9312 55.4C32.9324 55.4 32.9337 55.4 32.935 55.4C32.9362 55.4 32.9375 55.4 32.9388 55.4C32.94 55.4 32.9413 55.4 32.9426 55.4C32.9438 55.4 32.9451 55.4 32.9464 55.4C32.9477 55.4 32.9489 55.4 32.9502 55.4C32.9515 55.4 32.9527 55.4 32.954 55.4C32.9553 55.4 32.9566 55.4 32.9578 55.4C32.9591 55.4 32.9604 55.4 32.9617 55.4C32.9629 55.4 32.9642 55.4 32.9655 55.4C32.9668 55.4 32.968 55.4 32.9693 55.4C32.9706 55.4 32.9719 55.4 32.9731 55.4C32.9744 55.4 32.9757 55.4 32.977 55.4C32.9783 55.4 32.9795 55.4 32.9808 55.4C32.9821 55.4 32.9834 55.4 32.9847 55.4C32.9859 55.4 32.9872 55.4 32.9885 55.4C32.9898 55.4 32.9911 55.4 32.9923 55.4C32.9936 55.4 32.9949 55.4 32.9962 55.4C32.9975 55.4 32.9988 55.4 33.0001 55.4C33.0013 55.4 33.0026 55.4 33.0039 55.4C33.0052 55.4 33.0065 55.4 33.0078 55.4C33.0091 55.4 33.0103 55.4 33.0116 55.4C33.0129 55.4 33.0142 55.4 33.0155 55.4C33.0168 55.4 33.0181 55.4 33.0194 55.4C33.0207 55.4 33.0219 55.4 33.0232 55.4C33.0245 55.4 33.0258 55.4 33.0271 55.4C33.0284 55.4 33.0297 55.4 33.031 55.4C33.0323 55.4 33.0336 55.4 33.0349 55.4C33.0362 55.4 33.0375 55.4 33.0387 55.4C33.04 55.4 33.0413 55.4 33.0426 55.4C33.0439 55.4 33.0452 55.4 33.0465 55.4C33.0478 55.4 33.0491 55.4 33.0504 55.4C33.0517 55.4 33.053 55.4 33.0543 55.4C33.0556 55.4 33.0569 55.4 33.0582 55.4C33.0595 55.4 33.0608 55.4 33.0621 55.4C33.0634 55.4 33.0647 55.4 33.066 55.4C33.0673 55.4 33.0686 55.4 33.0699 55.4C33.0712 55.4 33.0725 55.4 33.0738 55.4C33.0751 55.4 33.0764 55.4 33.0777 55.4C33.0791 55.4 33.0804 55.4 33.0817 55.4C33.083 55.4 33.0843 55.4 33.0856 55.4C33.0869 55.4 33.0882 55.4 33.0895 55.4C33.0908 55.4 33.0921 55.4 33.0934 55.4C33.0947 55.4 33.0961 55.4 33.0974 55.4C33.0987 55.4 33.1 55.4 33.1013 55.4C33.1026 55.4 33.1039 55.4 33.1052 55.4C33.1065 55.4 33.1079 55.4 33.1092 55.4C33.1105 55.4 33.1118 55.4 33.1131 55.4C33.1144 55.4 33.1157 55.4 33.1171 55.4C33.1184 55.4 33.1197 55.4 33.121 55.4C33.1223 55.4 33.1236 55.4 33.125 55.4C33.1263 55.4 33.1276 55.4 33.1289 55.4C33.1302 55.4 33.1315 55.4 33.1329 55.4C33.1342 55.4 33.1355 55.4 33.1368 55.4C33.1381 55.4 33.1395 55.4 33.1408 55.4C33.1421 55.4 33.1434 55.4 33.1448 55.4C33.1461 55.4 33.1474 55.4 33.1487 55.4C33.15 55.4 33.1514 55.4 33.1527 55.4C33.154 55.4 33.1553 55.4 33.1567 55.4C33.158 55.4 33.1593 55.4 33.1606 55.4C33.162 55.4 33.1633 55.4 33.1646 55.4C33.166 55.4 33.1673 55.4 33.1686 55.4C33.1699 55.4 33.1713 55.4 33.1726 55.4C33.1739 55.4 33.1753 55.4 33.1766 55.4C33.1779 55.4 33.1792 55.4 33.1806 55.4C33.1819 55.4 33.1832 55.4 33.1846 55.4C33.1859 55.4 33.1872 55.4 33.1886 55.4C33.1899 55.4 33.1912 55.4 33.1926 55.4C33.1939 55.4 33.1952 55.4 33.1966 55.4C33.1979 55.4 33.1993 55.4 33.2006 55.4C33.2019 55.4 33.2033 55.4 33.2046 55.4C33.2059 55.4 33.2073 55.4 33.2086 55.4C33.21 55.4 33.2113 55.4 33.2126 55.4C33.214 55.4 33.2153 55.4 33.2167 55.4C33.218 55.4 33.2193 55.4 33.2207 55.4C33.222 55.4 33.2234 55.4 33.2247 55.4C33.2261 55.4 33.2274 55.4 33.2287 55.4C33.2301 55.4 33.2314 55.4 33.2328 55.4C33.2341 55.4 33.2355 55.4 33.2368 55.4C33.2382 55.4 33.2395 55.4 33.2408 55.4C33.2422 55.4 33.2435 55.4 33.2449 55.4C33.2462 55.4 33.2476 55.4 33.2489 55.4C33.2503 55.4 33.2516 55.4 33.253 55.4C33.2543 55.4 33.2557 55.4 33.257 55.4C33.2584 55.4 33.2597 55.4 33.2611 55.4C33.2624 55.4 33.2638 55.4 33.2651 55.4C33.2665 55.4 33.2678 55.4 33.2692 55.4C33.2706 55.4 33.2719 55.4 33.2733 55.4C33.2746 55.4 33.276 55.4 33.2773 55.4C33.2787 55.4 33.28 55.4 33.2814 55.4C33.2828 55.4 33.2841 55.4 33.2855 55.4C33.2868 55.4 33.2882 55.4 33.2896 55.4C33.2909 55.4 33.2923 55.4 33.2936 55.4C33.295 55.4 33.2964 55.4 33.2977 55.4C33.2991 55.4 33.3004 55.4 33.3018 55.4C33.3032 55.4 33.3045 55.4 33.3059 55.4C33.3072 55.4 33.3086 55.4 33.31 55.4C33.3113 55.4 33.3127 55.4 33.3141 55.4C33.3154 55.4 33.3168 55.4 33.3182 55.4C33.3195 55.4 33.3209 55.4 33.3223 55.4C33.3236 55.4 33.325 55.4 33.3264 55.4C33.3277 55.4 33.3291 55.4 33.3305 55.4C33.3318 55.4 33.3332 55.4 33.3346 55.4C33.336 55.4 33.3373 55.4 33.3387 55.4C33.3401 55.4 33.3414 55.4 33.3428 55.4C33.3442 55.4 33.3456 55.4 33.3469 55.4C33.3483 55.4 33.3497 55.4 33.3511 55.4C33.3524 55.4 33.3538 55.4 33.3552 55.4C33.3566 55.4 33.3579 55.4 33.3593 55.4C33.3607 55.4 33.3621 55.4 33.3634 55.4C33.3648 55.4 33.3662 55.4 33.3676 55.4C33.3689 55.4 33.3703 55.4 33.3717 55.4C33.3731 55.4 33.3745 55.4 33.3758 55.4C33.3772 55.4 33.3786 55.4 33.38 55.4C33.3814 55.4 33.3828 55.4 33.3841 55.4C33.3855 55.4 33.3869 55.4 33.3883 55.4C33.3897 55.4 33.391 55.4 33.3924 55.4C33.3938 55.4 33.3952 55.4 33.3966 55.4C33.398 55.4 33.3994 55.4 33.4007 55.4C33.4021 55.4 33.4035 55.4 33.4049 55.4C33.4063 55.4 33.4077 55.4 33.4091 55.4C33.4105 55.4 33.4118 55.4 33.4132 55.4C33.4146 55.4 33.416 55.4 33.4174 55.4C33.4188 55.4 33.4202 55.4 33.4216 55.4C33.423 55.4 33.4244 55.4 33.4258 55.4C33.4272 55.4 33.4285 55.4 33.4299 55.4C33.4313 55.4 33.4327 55.4 33.4341 55.4C33.4355 55.4 33.4369 55.4 33.4383 55.4C33.4397 55.4 33.4411 55.4 33.4425 55.4C33.4439 55.4 33.4453 55.4 33.4467 55.4C33.4481 55.4 33.4495 55.4 33.4509 55.4C33.4523 55.4 33.4537 55.4 33.4551 55.4C33.4565 55.4 33.4579 55.4 33.4593 55.4C33.4607 55.4 33.4621 55.4 33.4635 55.4C33.4649 55.4 33.4663 55.4 33.4677 55.4C33.4691 55.4 33.4705 55.4 33.4719 55.4C33.4733 55.4 33.4747 55.4 33.4761 55.4C33.4775 55.4 33.4789 55.4 33.4803 55.4C33.4817 55.4 33.4831 55.4 33.4845 55.4C33.486 55.4 33.4874 55.4 33.4888 55.4C33.4902 55.4 33.4916 55.4 33.493 55.4C33.4944 55.4 33.4958 55.4 33.4972 55.4C33.4986 55.4 33.5 55.4 33.5015 55.4C33.5029 55.4 33.5043 55.4 33.5057 55.4C33.5071 55.4 33.5085 55.4 33.5099 55.4C33.5113 55.4 33.5128 55.4 33.5142 55.4C33.5156 55.4 33.517 55.4 33.5184 55.4C33.5198 55.4 33.5212 55.4 33.5227 55.4C33.5241 55.4 33.5255 55.4 33.5269 55.4C33.5283 55.4 33.5297 55.4 33.5312 55.4C33.5326 55.4 33.534 55.4 33.5354 55.4C33.5368 55.4 33.5383 55.4 33.5397 55.4C33.5411 55.4 33.5425 55.4 33.5439 55.4C33.5454 55.4 33.5468 55.4 33.5482 55.4C33.5496 55.4 33.551 55.4 33.5525 55.4C33.5539 55.4 33.5553 55.4 33.5567 55.4C33.5582 55.4 33.5596 55.4 33.561 55.4C33.5624 55.4 33.5639 55.4 33.5653 55.4C33.5667 55.4 33.5681 55.4 33.5696 55.4C33.571 55.4 33.5724 55.4 33.5739 55.4C33.5753 55.4 33.5767 55.4 33.5781 55.4C33.5796 55.4 33.581 55.4 33.5824 55.4C33.5839 55.4 33.5853 55.4 33.5867 55.4C33.5882 55.4 33.5896 55.4 33.591 55.4C33.5924 55.4 33.5939 55.4 33.5953 55.4C33.5967 55.4 33.5982 55.4 33.5996 55.4C33.6011 55.4 33.6025 55.4 33.6039 55.4C33.6054 55.4 33.6068 55.4 33.6082 55.4C33.6097 55.4 33.6111 55.4 33.6125 55.4C33.614 55.4 33.6154 55.4 33.6169 55.4C33.6183 55.4 33.6197 55.4 33.6212 55.4C33.6226 55.4 33.624 55.4 33.6255 55.4C33.6269 55.4 33.6284 55.4 33.6298 55.4C33.6313 55.4 33.6327 55.4 33.6341 55.4C33.6356 55.4 33.637 55.4 33.6385 55.4C33.6399 55.4 33.6414 55.4 33.6428 55.4C33.6442 55.4 33.6457 55.4 33.6471 55.4C33.6486 55.4 33.65 55.4 33.6515 55.4C33.6529 55.4 33.6544 55.4 33.6558 55.4C33.6573 55.4 33.6587 55.4 33.6602 55.4C33.6616 55.4 33.6631 55.4 33.6645 55.4C33.666 55.4 33.6674 55.4 33.6689 55.4C33.6703 55.4 33.6718 55.4 33.6732 55.4C33.6747 55.4 33.6761 55.4 33.6776 55.4C33.679 55.4 33.6805 55.4 33.6819 55.4C33.6834 55.4 33.6848 55.4 33.6863 55.4C33.6877 55.4 33.6892 55.4 33.6907 55.4C33.6921 55.4 33.6936 55.4 33.695 55.4C33.6965 55.4 33.6979 55.4 33.6994 55.4C33.7008 55.4 33.7023 55.4 33.7038 55.4C33.7052 55.4 33.7067 55.4 33.7081 55.4C33.7096 55.4 33.7111 55.4 33.7125 55.4C33.714 55.4 33.7154 55.4 33.7169 55.4C33.7184 55.4 33.7198 55.4 33.7213 55.4C33.7228 55.4 33.7242 55.4 33.7257 55.4C33.7271 55.4 33.7286 55.4 33.7301 55.4C33.7315 55.4 33.733 55.4 33.7345 55.4C33.7359 55.4 33.7374 55.4 33.7389 55.4C33.7403 55.4 33.7418 55.4 33.7433 55.4C33.7447 55.4 33.7462 55.4 33.7477 55.4C33.7491 55.4 33.7506 55.4 33.7521 55.4C33.7536 55.4 33.755 55.4 33.7565 55.4C33.758 55.4 33.7594 55.4 33.7609 55.4C33.7624 55.4 33.7639 55.4 33.7653 55.4C33.7668 55.4 33.7683 55.4 33.7698 55.4C33.7712 55.4 33.7727 55.4 33.7742 55.4C33.7757 55.4 33.7771 55.4 33.7786 55.4C33.7801 55.4 33.7816 55.4 33.783 55.4C33.7845 55.4 33.786 55.4 33.7875 55.4C33.7889 55.4 33.7904 55.4 33.7919 55.4C33.7934 55.4 33.7949 55.4 33.7963 55.4C33.7978 55.4 33.7993 55.4 33.8008 55.4C33.8023 55.4 33.8037 55.4 33.8052 55.4C33.8067 55.4 33.8082 55.4 33.8097 55.4C33.8112 55.4 33.8126 55.4 33.8141 55.4C33.8156 55.4 33.8171 55.4 33.8186 55.4C33.8201 55.4 33.8216 55.4 33.823 55.4C33.8245 55.4 33.826 55.4 33.8275 55.4C33.829 55.4 33.8305 55.4 33.832 55.4C33.8334 55.4 33.8349 55.4 33.8364 55.4C33.8379 55.4 33.8394 55.4 33.8409 55.4C33.8424 55.4 33.8439 55.4 33.8454 55.4C33.8469 55.4 33.8484 55.4 33.8498 55.4C33.8513 55.4 33.8528 55.4 33.8543 55.4C33.8558 55.4 33.8573 55.4 33.8588 55.4C33.8603 55.4 33.8618 55.4 33.8633 55.4C33.8648 55.4 33.8663 55.4 33.8678 55.4C33.8693 55.4 33.8708 55.4 33.8723 55.4C33.8738 55.4 33.8753 55.4 33.8768 55.4C33.8783 55.4 33.8798 55.4 33.8813 55.4C33.8828 55.4 33.8843 55.4 33.8858 55.4C33.8873 55.4 33.8888 55.4 33.8903 55.4C33.8918 55.4 33.8933 55.4 33.8948 55.4C33.8963 55.4 33.8978 55.4 33.8993 55.4C33.9008 55.4 33.9023 55.4 33.9038 55.4C33.9053 55.4 33.9068 55.4 33.9083 55.4C33.9098 55.4 33.9113 55.4 33.9128 55.4C33.9143 55.4 33.9158 55.4 33.9173 55.4C33.9188 55.4 33.9204 55.4 33.9219 55.4C33.9234 55.4 33.9249 55.4 33.9264 55.4C33.9279 55.4 33.9294 55.4 33.9309 55.4C33.9324 55.4 33.9339 55.4 33.9355 55.4C33.937 55.4 33.9385 55.4 33.94 55.4C33.9415 55.4 33.943 55.4 33.9445 55.4C33.946 55.4 33.9476 55.4 33.9491 55.4C33.9506 55.4 33.9521 55.4 33.9536 55.4C33.9551 55.4 33.9567 55.4 33.9582 55.4C33.9597 55.4 33.9612 55.4 33.9627 55.4C33.9642 55.4 33.9658 55.4 33.9673 55.4C33.9688 55.4 33.9703 55.4 33.9718 55.4C33.9734 55.4 33.9749 55.4 33.9764 55.4C33.9779 55.4 33.9794 55.4 33.981 55.4C33.9825 55.4 33.984 55.4 33.9855 55.4C33.987 55.4 33.9886 55.4 33.9901 55.4C33.9916 55.4 33.9931 55.4 33.9947 55.4C33.9962 55.4 33.9977 55.4 33.9992 55.4C34.0008 55.4 34.0023 55.4 34.0038 55.4C34.0053 55.4 34.0069 55.4 34.0084 55.4C34.0099 55.4 34.0115 55.4 34.013 55.4C34.0145 55.4 34.016 55.4 34.0176 55.4C34.0191 55.4 34.0206 55.4 34.0222 55.4C34.0237 55.4 34.0252 55.4 34.0268 55.4C34.0283 55.4 34.0298 55.4 34.0314 55.4C34.0329 55.4 34.0344 55.4 34.036 55.4C34.0375 55.4 34.039 55.4 34.0406 55.4C34.0421 55.4 34.0436 55.4 34.0452 55.4C34.0467 55.4 34.0482 55.4 34.0498 55.4C34.0513 55.4 34.0529 55.4 34.0544 55.4C34.0559 55.4 34.0575 55.4 34.059 55.4C34.0605 55.4 34.0621 55.4 34.0636 55.4C34.0652 55.4 34.0667 55.4 34.0683 55.4C34.0698 55.4 34.0713 55.4 34.0729 55.4C34.0744 55.4 34.076 55.4 34.0775 55.4C34.079 55.4 34.0806 55.4 34.0821 55.4C34.0837 55.4 34.0852 55.4 34.0868 55.4C34.0883 55.4 34.0899 55.4 34.0914 55.4C34.093 55.4 34.0945 55.4 34.096 55.4C34.0976 55.4 34.0991 55.4 34.1007 55.4C34.1022 55.4 34.1038 55.4 34.1053 55.4C34.1069 55.4 34.1084 55.4 34.11 55.4C34.1115 55.4 34.1131 55.4 34.1146 55.4C34.1162 55.4 34.1177 55.4 34.1193 55.4C34.1208 55.4 34.1224 55.4 34.124 55.4C34.1255 55.4 34.1271 55.4 34.1286 55.4C34.1302 55.4 34.1317 55.4 34.1333 55.4C34.1348 55.4 34.1364 55.4 34.1379 55.4C34.1395 55.4 34.1411 55.4 34.1426 55.4C34.1442 55.4 34.1457 55.4 34.1473 55.4C34.1488 55.4 34.1504 55.4 34.152 55.4C34.1535 55.4 34.1551 55.4 34.1566 55.4C34.1582 55.4 34.1598 55.4 34.1613 55.4C34.1629 55.4 34.1645 55.4 34.166 55.4V53.4C34.1645 53.4 34.1629 53.4 34.1613 53.4C34.1598 53.4 34.1582 53.4 34.1566 53.4C34.1551 53.4 34.1535 53.4 34.152 53.4C34.1504 53.4 34.1488 53.4 34.1473 53.4C34.1457 53.4 34.1442 53.4 34.1426 53.4C34.1411 53.4 34.1395 53.4 34.1379 53.4C34.1364 53.4 34.1348 53.4 34.1333 53.4C34.1317 53.4 34.1302 53.4 34.1286 53.4C34.1271 53.4 34.1255 53.4 34.124 53.4C34.1224 53.4 34.1208 53.4 34.1193 53.4C34.1177 53.4 34.1162 53.4 34.1146 53.4C34.1131 53.4 34.1115 53.4 34.11 53.4C34.1084 53.4 34.1069 53.4 34.1053 53.4C34.1038 53.4 34.1022 53.4 34.1007 53.4C34.0991 53.4 34.0976 53.4 34.096 53.4C34.0945 53.4 34.093 53.4 34.0914 53.4C34.0899 53.4 34.0883 53.4 34.0868 53.4C34.0852 53.4 34.0837 53.4 34.0821 53.4C34.0806 53.4 34.079 53.4 34.0775 53.4C34.076 53.4 34.0744 53.4 34.0729 53.4C34.0713 53.4 34.0698 53.4 34.0683 53.4C34.0667 53.4 34.0652 53.4 34.0636 53.4C34.0621 53.4 34.0605 53.4 34.059 53.4C34.0575 53.4 34.0559 53.4 34.0544 53.4C34.0529 53.4 34.0513 53.4 34.0498 53.4C34.0482 53.4 34.0467 53.4 34.0452 53.4C34.0436 53.4 34.0421 53.4 34.0406 53.4C34.039 53.4 34.0375 53.4 34.036 53.4C34.0344 53.4 34.0329 53.4 34.0314 53.4C34.0298 53.4 34.0283 53.4 34.0268 53.4C34.0252 53.4 34.0237 53.4 34.0222 53.4C34.0206 53.4 34.0191 53.4 34.0176 53.4C34.016 53.4 34.0145 53.4 34.013 53.4C34.0115 53.4 34.0099 53.4 34.0084 53.4C34.0069 53.4 34.0053 53.4 34.0038 53.4C34.0023 53.4 34.0008 53.4 33.9992 53.4C33.9977 53.4 33.9962 53.4 33.9947 53.4C33.9931 53.4 33.9916 53.4 33.9901 53.4C33.9886 53.4 33.987 53.4 33.9855 53.4C33.984 53.4 33.9825 53.4 33.981 53.4C33.9794 53.4 33.9779 53.4 33.9764 53.4C33.9749 53.4 33.9734 53.4 33.9718 53.4C33.9703 53.4 33.9688 53.4 33.9673 53.4C33.9658 53.4 33.9642 53.4 33.9627 53.4C33.9612 53.4 33.9597 53.4 33.9582 53.4C33.9567 53.4 33.9551 53.4 33.9536 53.4C33.9521 53.4 33.9506 53.4 33.9491 53.4C33.9476 53.4 33.946 53.4 33.9445 53.4C33.943 53.4 33.9415 53.4 33.94 53.4C33.9385 53.4 33.937 53.4 33.9355 53.4C33.9339 53.4 33.9324 53.4 33.9309 53.4C33.9294 53.4 33.9279 53.4 33.9264 53.4C33.9249 53.4 33.9234 53.4 33.9219 53.4C33.9204 53.4 33.9188 53.4 33.9173 53.4C33.9158 53.4 33.9143 53.4 33.9128 53.4C33.9113 53.4 33.9098 53.4 33.9083 53.4C33.9068 53.4 33.9053 53.4 33.9038 53.4C33.9023 53.4 33.9008 53.4 33.8993 53.4C33.8978 53.4 33.8963 53.4 33.8948 53.4C33.8933 53.4 33.8918 53.4 33.8903 53.4C33.8888 53.4 33.8873 53.4 33.8858 53.4C33.8843 53.4 33.8828 53.4 33.8813 53.4C33.8798 53.4 33.8783 53.4 33.8768 53.4C33.8753 53.4 33.8738 53.4 33.8723 53.4C33.8708 53.4 33.8693 53.4 33.8678 53.4C33.8663 53.4 33.8648 53.4 33.8633 53.4C33.8618 53.4 33.8603 53.4 33.8588 53.4C33.8573 53.4 33.8558 53.4 33.8543 53.4C33.8528 53.4 33.8513 53.4 33.8498 53.4C33.8484 53.4 33.8469 53.4 33.8454 53.4C33.8439 53.4 33.8424 53.4 33.8409 53.4C33.8394 53.4 33.8379 53.4 33.8364 53.4C33.8349 53.4 33.8334 53.4 33.832 53.4C33.8305 53.4 33.829 53.4 33.8275 53.4C33.826 53.4 33.8245 53.4 33.823 53.4C33.8216 53.4 33.8201 53.4 33.8186 53.4C33.8171 53.4 33.8156 53.4 33.8141 53.4C33.8126 53.4 33.8112 53.4 33.8097 53.4C33.8082 53.4 33.8067 53.4 33.8052 53.4C33.8037 53.4 33.8023 53.4 33.8008 53.4C33.7993 53.4 33.7978 53.4 33.7963 53.4C33.7949 53.4 33.7934 53.4 33.7919 53.4C33.7904 53.4 33.7889 53.4 33.7875 53.4C33.786 53.4 33.7845 53.4 33.783 53.4C33.7816 53.4 33.7801 53.4 33.7786 53.4C33.7771 53.4 33.7757 53.4 33.7742 53.4C33.7727 53.4 33.7712 53.4 33.7698 53.4C33.7683 53.4 33.7668 53.4 33.7653 53.4C33.7639 53.4 33.7624 53.4 33.7609 53.4C33.7594 53.4 33.758 53.4 33.7565 53.4C33.755 53.4 33.7536 53.4 33.7521 53.4C33.7506 53.4 33.7491 53.4 33.7477 53.4C33.7462 53.4 33.7447 53.4 33.7433 53.4C33.7418 53.4 33.7403 53.4 33.7389 53.4C33.7374 53.4 33.7359 53.4 33.7345 53.4C33.733 53.4 33.7315 53.4 33.7301 53.4C33.7286 53.4 33.7271 53.4 33.7257 53.4C33.7242 53.4 33.7228 53.4 33.7213 53.4C33.7198 53.4 33.7184 53.4 33.7169 53.4C33.7154 53.4 33.714 53.4 33.7125 53.4C33.7111 53.4 33.7096 53.4 33.7081 53.4C33.7067 53.4 33.7052 53.4 33.7038 53.4C33.7023 53.4 33.7008 53.4 33.6994 53.4C33.6979 53.4 33.6965 53.4 33.695 53.4C33.6936 53.4 33.6921 53.4 33.6907 53.4C33.6892 53.4 33.6877 53.4 33.6863 53.4C33.6848 53.4 33.6834 53.4 33.6819 53.4C33.6805 53.4 33.679 53.4 33.6776 53.4C33.6761 53.4 33.6747 53.4 33.6732 53.4C33.6718 53.4 33.6703 53.4 33.6689 53.4C33.6674 53.4 33.666 53.4 33.6645 53.4C33.6631 53.4 33.6616 53.4 33.6602 53.4C33.6587 53.4 33.6573 53.4 33.6558 53.4C33.6544 53.4 33.6529 53.4 33.6515 53.4C33.65 53.4 33.6486 53.4 33.6471 53.4C33.6457 53.4 33.6442 53.4 33.6428 53.4C33.6414 53.4 33.6399 53.4 33.6385 53.4C33.637 53.4 33.6356 53.4 33.6341 53.4C33.6327 53.4 33.6313 53.4 33.6298 53.4C33.6284 53.4 33.6269 53.4 33.6255 53.4C33.624 53.4 33.6226 53.4 33.6212 53.4C33.6197 53.4 33.6183 53.4 33.6169 53.4C33.6154 53.4 33.614 53.4 33.6125 53.4C33.6111 53.4 33.6097 53.4 33.6082 53.4C33.6068 53.4 33.6054 53.4 33.6039 53.4C33.6025 53.4 33.6011 53.4 33.5996 53.4C33.5982 53.4 33.5967 53.4 33.5953 53.4C33.5939 53.4 33.5924 53.4 33.591 53.4C33.5896 53.4 33.5882 53.4 33.5867 53.4C33.5853 53.4 33.5839 53.4 33.5824 53.4C33.581 53.4 33.5796 53.4 33.5781 53.4C33.5767 53.4 33.5753 53.4 33.5739 53.4C33.5724 53.4 33.571 53.4 33.5696 53.4C33.5681 53.4 33.5667 53.4 33.5653 53.4C33.5639 53.4 33.5624 53.4 33.561 53.4C33.5596 53.4 33.5582 53.4 33.5567 53.4C33.5553 53.4 33.5539 53.4 33.5525 53.4C33.551 53.4 33.5496 53.4 33.5482 53.4C33.5468 53.4 33.5454 53.4 33.5439 53.4C33.5425 53.4 33.5411 53.4 33.5397 53.4C33.5383 53.4 33.5368 53.4 33.5354 53.4C33.534 53.4 33.5326 53.4 33.5312 53.4C33.5297 53.4 33.5283 53.4 33.5269 53.4C33.5255 53.4 33.5241 53.4 33.5227 53.4C33.5212 53.4 33.5198 53.4 33.5184 53.4C33.517 53.4 33.5156 53.4 33.5142 53.4C33.5128 53.4 33.5113 53.4 33.5099 53.4C33.5085 53.4 33.5071 53.4 33.5057 53.4C33.5043 53.4 33.5029 53.4 33.5015 53.4C33.5 53.4 33.4986 53.4 33.4972 53.4C33.4958 53.4 33.4944 53.4 33.493 53.4C33.4916 53.4 33.4902 53.4 33.4888 53.4C33.4874 53.4 33.486 53.4 33.4845 53.4C33.4831 53.4 33.4817 53.4 33.4803 53.4C33.4789 53.4 33.4775 53.4 33.4761 53.4C33.4747 53.4 33.4733 53.4 33.4719 53.4C33.4705 53.4 33.4691 53.4 33.4677 53.4C33.4663 53.4 33.4649 53.4 33.4635 53.4C33.4621 53.4 33.4607 53.4 33.4593 53.4C33.4579 53.4 33.4565 53.4 33.4551 53.4C33.4537 53.4 33.4523 53.4 33.4509 53.4C33.4495 53.4 33.4481 53.4 33.4467 53.4C33.4453 53.4 33.4439 53.4 33.4425 53.4C33.4411 53.4 33.4397 53.4 33.4383 53.4C33.4369 53.4 33.4355 53.4 33.4341 53.4C33.4327 53.4 33.4313 53.4 33.4299 53.4C33.4285 53.4 33.4272 53.4 33.4258 53.4C33.4244 53.4 33.423 53.4 33.4216 53.4C33.4202 53.4 33.4188 53.4 33.4174 53.4C33.416 53.4 33.4146 53.4 33.4132 53.4C33.4118 53.4 33.4105 53.4 33.4091 53.4C33.4077 53.4 33.4063 53.4 33.4049 53.4C33.4035 53.4 33.4021 53.4 33.4007 53.4C33.3994 53.4 33.398 53.4 33.3966 53.4C33.3952 53.4 33.3938 53.4 33.3924 53.4C33.391 53.4 33.3897 53.4 33.3883 53.4C33.3869 53.4 33.3855 53.4 33.3841 53.4C33.3828 53.4 33.3814 53.4 33.38 53.4C33.3786 53.4 33.3772 53.4 33.3758 53.4C33.3745 53.4 33.3731 53.4 33.3717 53.4C33.3703 53.4 33.3689 53.4 33.3676 53.4C33.3662 53.4 33.3648 53.4 33.3634 53.4C33.3621 53.4 33.3607 53.4 33.3593 53.4C33.3579 53.4 33.3566 53.4 33.3552 53.4C33.3538 53.4 33.3524 53.4 33.3511 53.4C33.3497 53.4 33.3483 53.4 33.3469 53.4C33.3456 53.4 33.3442 53.4 33.3428 53.4C33.3414 53.4 33.3401 53.4 33.3387 53.4C33.3373 53.4 33.336 53.4 33.3346 53.4C33.3332 53.4 33.3318 53.4 33.3305 53.4C33.3291 53.4 33.3277 53.4 33.3264 53.4C33.325 53.4 33.3236 53.4 33.3223 53.4C33.3209 53.4 33.3195 53.4 33.3182 53.4C33.3168 53.4 33.3154 53.4 33.3141 53.4C33.3127 53.4 33.3113 53.4 33.31 53.4C33.3086 53.4 33.3072 53.4 33.3059 53.4C33.3045 53.4 33.3032 53.4 33.3018 53.4C33.3004 53.4 33.2991 53.4 33.2977 53.4C33.2964 53.4 33.295 53.4 33.2936 53.4C33.2923 53.4 33.2909 53.4 33.2896 53.4C33.2882 53.4 33.2868 53.4 33.2855 53.4C33.2841 53.4 33.2828 53.4 33.2814 53.4C33.28 53.4 33.2787 53.4 33.2773 53.4C33.276 53.4 33.2746 53.4 33.2733 53.4C33.2719 53.4 33.2706 53.4 33.2692 53.4C33.2678 53.4 33.2665 53.4 33.2651 53.4C33.2638 53.4 33.2624 53.4 33.2611 53.4C33.2597 53.4 33.2584 53.4 33.257 53.4C33.2557 53.4 33.2543 53.4 33.253 53.4C33.2516 53.4 33.2503 53.4 33.2489 53.4C33.2476 53.4 33.2462 53.4 33.2449 53.4C33.2435 53.4 33.2422 53.4 33.2408 53.4C33.2395 53.4 33.2382 53.4 33.2368 53.4C33.2355 53.4 33.2341 53.4 33.2328 53.4C33.2314 53.4 33.2301 53.4 33.2287 53.4C33.2274 53.4 33.2261 53.4 33.2247 53.4C33.2234 53.4 33.222 53.4 33.2207 53.4C33.2193 53.4 33.218 53.4 33.2167 53.4C33.2153 53.4 33.214 53.4 33.2126 53.4C33.2113 53.4 33.21 53.4 33.2086 53.4C33.2073 53.4 33.2059 53.4 33.2046 53.4C33.2033 53.4 33.2019 53.4 33.2006 53.4C33.1993 53.4 33.1979 53.4 33.1966 53.4C33.1952 53.4 33.1939 53.4 33.1926 53.4C33.1912 53.4 33.1899 53.4 33.1886 53.4C33.1872 53.4 33.1859 53.4 33.1846 53.4C33.1832 53.4 33.1819 53.4 33.1806 53.4C33.1792 53.4 33.1779 53.4 33.1766 53.4C33.1753 53.4 33.1739 53.4 33.1726 53.4C33.1713 53.4 33.1699 53.4 33.1686 53.4C33.1673 53.4 33.166 53.4 33.1646 53.4C33.1633 53.4 33.162 53.4 33.1606 53.4C33.1593 53.4 33.158 53.4 33.1567 53.4C33.1553 53.4 33.154 53.4 33.1527 53.4C33.1514 53.4 33.15 53.4 33.1487 53.4C33.1474 53.4 33.1461 53.4 33.1448 53.4C33.1434 53.4 33.1421 53.4 33.1408 53.4C33.1395 53.4 33.1381 53.4 33.1368 53.4C33.1355 53.4 33.1342 53.4 33.1329 53.4C33.1315 53.4 33.1302 53.4 33.1289 53.4C33.1276 53.4 33.1263 53.4 33.125 53.4C33.1236 53.4 33.1223 53.4 33.121 53.4C33.1197 53.4 33.1184 53.4 33.1171 53.4C33.1157 53.4 33.1144 53.4 33.1131 53.4C33.1118 53.4 33.1105 53.4 33.1092 53.4C33.1079 53.4 33.1065 53.4 33.1052 53.4C33.1039 53.4 33.1026 53.4 33.1013 53.4C33.1 53.4 33.0987 53.4 33.0974 53.4C33.0961 53.4 33.0947 53.4 33.0934 53.4C33.0921 53.4 33.0908 53.4 33.0895 53.4C33.0882 53.4 33.0869 53.4 33.0856 53.4C33.0843 53.4 33.083 53.4 33.0817 53.4C33.0804 53.4 33.0791 53.4 33.0777 53.4C33.0764 53.4 33.0751 53.4 33.0738 53.4C33.0725 53.4 33.0712 53.4 33.0699 53.4C33.0686 53.4 33.0673 53.4 33.066 53.4C33.0647 53.4 33.0634 53.4 33.0621 53.4C33.0608 53.4 33.0595 53.4 33.0582 53.4C33.0569 53.4 33.0556 53.4 33.0543 53.4C33.053 53.4 33.0517 53.4 33.0504 53.4C33.0491 53.4 33.0478 53.4 33.0465 53.4C33.0452 53.4 33.0439 53.4 33.0426 53.4C33.0413 53.4 33.04 53.4 33.0387 53.4C33.0375 53.4 33.0362 53.4 33.0349 53.4C33.0336 53.4 33.0323 53.4 33.031 53.4C33.0297 53.4 33.0284 53.4 33.0271 53.4C33.0258 53.4 33.0245 53.4 33.0232 53.4C33.0219 53.4 33.0207 53.4 33.0194 53.4C33.0181 53.4 33.0168 53.4 33.0155 53.4C33.0142 53.4 33.0129 53.4 33.0116 53.4C33.0103 53.4 33.0091 53.4 33.0078 53.4C33.0065 53.4 33.0052 53.4 33.0039 53.4C33.0026 53.4 33.0013 53.4 33.0001 53.4C32.9988 53.4 32.9975 53.4 32.9962 53.4C32.9949 53.4 32.9936 53.4 32.9923 53.4C32.9911 53.4 32.9898 53.4 32.9885 53.4C32.9872 53.4 32.9859 53.4 32.9847 53.4C32.9834 53.4 32.9821 53.4 32.9808 53.4C32.9795 53.4 32.9783 53.4 32.977 53.4C32.9757 53.4 32.9744 53.4 32.9731 53.4C32.9719 53.4 32.9706 53.4 32.9693 53.4C32.968 53.4 32.9668 53.4 32.9655 53.4C32.9642 53.4 32.9629 53.4 32.9617 53.4C32.9604 53.4 32.9591 53.4 32.9578 53.4C32.9566 53.4 32.9553 53.4 32.954 53.4C32.9527 53.4 32.9515 53.4 32.9502 53.4C32.9489 53.4 32.9477 53.4 32.9464 53.4C32.9451 53.4 32.9438 53.4 32.9426 53.4C32.9413 53.4 32.94 53.4 32.9388 53.4C32.9375 53.4 32.9362 53.4 32.935 53.4C32.9337 53.4 32.9324 53.4 32.9312 53.4C32.9299 53.4 32.9286 53.4 32.9274 53.4C32.9261 53.4 32.9248 53.4 32.9236 53.4C32.9223 53.4 32.921 53.4 32.9198 53.4C32.9185 53.4 32.9173 53.4 32.916 53.4C32.9147 53.4 32.9135 53.4 32.9122 53.4C32.9109 53.4 32.9097 53.4 32.9084 53.4C32.9072 53.4 32.9059 53.4 32.9046 53.4C32.9034 53.4 32.9021 53.4 32.9009 53.4C32.8996 53.4 32.8984 53.4 32.8971 53.4C32.8958 53.4 32.8946 53.4 32.8933 53.4C32.8921 53.4 32.8908 53.4 32.8896 53.4C32.8883 53.4 32.887 53.4 32.8858 53.4C32.8845 53.4 32.8833 53.4 32.882 53.4C32.8808 53.4 32.8795 53.4 32.8783 53.4C32.877 53.4 32.8758 53.4 32.8745 53.4C32.8733 53.4 32.872 53.4 32.8708 53.4C32.8695 53.4 32.8683 53.4 32.867 53.4C32.8658 53.4 32.8645 53.4 32.8633 53.4C32.862 53.4 32.8608 53.4 32.8595 53.4C32.8583 53.4 32.857 53.4 32.8558 53.4C32.8545 53.4 32.8533 53.4 32.8521 53.4C32.8508 53.4 32.8496 53.4 32.8483 53.4C32.8471 53.4 32.8458 53.4 32.8446 53.4C32.8433 53.4 32.8421 53.4 32.8409 53.4C32.8396 53.4 32.8384 53.4 32.8371 53.4C32.8359 53.4 32.8347 53.4 32.8334 53.4C32.8322 53.4 32.8309 53.4 32.8297 53.4C32.8285 53.4 32.8272 53.4 32.826 53.4C32.8247 53.4 32.8235 53.4 32.8223 53.4C32.821 53.4 32.8198 53.4 32.8186 53.4C32.8173 53.4 32.8161 53.4 32.8149 53.4C32.8136 53.4 32.8124 53.4 32.8111 53.4C32.8099 53.4 32.8087 53.4 32.8074 53.4C32.8062 53.4 32.805 53.4 32.8038 53.4C32.8025 53.4 32.8013 53.4 32.8001 53.4C32.7988 53.4 32.7976 53.4 32.7964 53.4C32.7951 53.4 32.7939 53.4 32.7927 53.4C32.7914 53.4 32.7902 53.4 32.789 53.4C32.7878 53.4 32.7865 53.4 32.7853 53.4C32.7841 53.4 32.7829 53.4 32.7816 53.4C32.7804 53.4 32.7792 53.4 32.778 53.4C32.7767 53.4 32.7755 53.4 32.7743 53.4C32.7731 53.4 32.7718 53.4 32.7706 53.4C32.7694 53.4 32.7682 53.4 32.7669 53.4C32.7657 53.4 32.7645 53.4 32.7633 53.4C32.7621 53.4 32.7608 53.4 32.7596 53.4C32.7584 53.4 32.7572 53.4 32.756 53.4C32.7547 53.4 32.7535 53.4 32.7523 53.4C32.7511 53.4 32.7499 53.4 32.7487 53.4C32.7474 53.4 32.7462 53.4 32.745 53.4C32.7438 53.4 32.7426 53.4 32.7414 53.4C32.7402 53.4 32.7389 53.4 32.7377 53.4C32.7365 53.4 32.7353 53.4 32.7341 53.4C32.7329 53.4 32.7317 53.4 32.7304 53.4C32.7292 53.4 32.728 53.4 32.7268 53.4C32.7256 53.4 32.7244 53.4 32.7232 53.4C32.722 53.4 32.7208 53.4 32.7196 53.4C32.7183 53.4 32.7171 53.4 32.7159 53.4C32.7147 53.4 32.7135 53.4 32.7123 53.4C32.7111 53.4 32.7099 53.4 32.7087 53.4C32.7075 53.4 32.7063 53.4 32.7051 53.4C32.7039 53.4 32.7027 53.4 32.7015 53.4C32.7003 53.4 32.6991 53.4 32.6979 53.4C32.6967 53.4 32.6955 53.4 32.6943 53.4C32.6931 53.4 32.6919 53.4 32.6907 53.4C32.6895 53.4 32.6883 53.4 32.6871 53.4C32.6859 53.4 32.6847 53.4 32.6835 53.4C32.6823 53.4 32.6811 53.4 32.6799 53.4C32.6787 53.4 32.6775 53.4 32.6763 53.4C32.6751 53.4 32.6739 53.4 32.6727 53.4C32.6715 53.4 32.6703 53.4 32.6691 53.4C32.6679 53.4 32.6667 53.4 32.6655 53.4C32.6643 53.4 32.6631 53.4 32.6619 53.4C32.6607 53.4 32.6596 53.4 32.6584 53.4C32.6572 53.4 32.656 53.4 32.6548 53.4C32.6536 53.4 32.6524 53.4 32.6512 53.4C32.65 53.4 32.6488 53.4 32.6477 53.4C32.6465 53.4 32.6453 53.4 32.6441 53.4C32.6429 53.4 32.6417 53.4 32.6405 53.4C32.6393 53.4 32.6382 53.4 32.637 53.4C32.6358 53.4 32.6346 53.4 32.6334 53.4C32.6322 53.4 32.6311 53.4 32.6299 53.4C32.6287 53.4 32.6275 53.4 32.6263 53.4C32.6251 53.4 32.624 53.4 32.6228 53.4C32.6216 53.4 32.6204 53.4 32.6192 53.4C32.6181 53.4 32.6169 53.4 32.6157 53.4C32.6145 53.4 32.6133 53.4 32.6122 53.4C32.611 53.4 32.6098 53.4 32.6086 53.4C32.6075 53.4 32.6063 53.4 32.6051 53.4C32.6039 53.4 32.6028 53.4 32.6016 53.4C32.6004 53.4 32.5992 53.4 32.5981 53.4C32.5969 53.4 32.5957 53.4 32.5945 53.4C32.5934 53.4 32.5922 53.4 32.591 53.4C32.5898 53.4 32.5887 53.4 32.5875 53.4C32.5863 53.4 32.5852 53.4 32.584 53.4C32.5828 53.4 32.5817 53.4 32.5805 53.4C32.5793 53.4 32.5781 53.4 32.577 53.4C32.5758 53.4 32.5746 53.4 32.5735 53.4C32.5723 53.4 32.5711 53.4 32.57 53.4C32.5688 53.4 32.5676 53.4 32.5665 53.4C32.5653 53.4 32.5642 53.4 32.563 53.4C32.5618 53.4 32.5607 53.4 32.5595 53.4C32.5583 53.4 32.5572 53.4 32.556 53.4C32.5549 53.4 32.5537 53.4 32.5525 53.4C32.5514 53.4 32.5502 53.4 32.549 53.4C32.5479 53.4 32.5467 53.4 32.5456 53.4C32.5444 53.4 32.5433 53.4 32.5421 53.4C32.5409 53.4 32.5398 53.4 32.5386 53.4C32.5375 53.4 32.5363 53.4 32.5352 53.4C32.534 53.4 32.5328 53.4 32.5317 53.4C32.5305 53.4 32.5294 53.4 32.5282 53.4C32.5271 53.4 32.5259 53.4 32.5248 53.4C32.5236 53.4 32.5225 53.4 32.5213 53.4C32.5202 53.4 32.519 53.4 32.5179 53.4C32.5167 53.4 32.5156 53.4 32.5144 53.4C32.5133 53.4 32.5121 53.4 32.511 53.4C32.5098 53.4 32.5087 53.4 32.5075 53.4C32.5064 53.4 32.5052 53.4 32.5041 53.4C32.5029 53.4 32.5018 53.4 32.5006 53.4C32.4995 53.4 32.4984 53.4 32.4972 53.4C32.4961 53.4 32.4949 53.4 32.4938 53.4C32.4926 53.4 32.4915 53.4 32.4903 53.4C32.4892 53.4 32.4881 53.4 32.4869 53.4C32.4858 53.4 32.4846 53.4 32.4835 53.4C32.4824 53.4 32.4812 53.4 32.4801 53.4C32.4789 53.4 32.4778 53.4 32.4767 53.4C32.4755 53.4 32.4744 53.4 32.4732 53.4C32.4721 53.4 32.471 53.4 32.4698 53.4C32.4687 53.4 32.4676 53.4 32.4664 53.4C32.4653 53.4 32.4642 53.4 32.463 53.4C32.4619 53.4 32.4608 53.4 32.4596 53.4C32.4585 53.4 32.4574 53.4 32.4562 53.4C32.4551 53.4 32.454 53.4 32.4528 53.4C32.4517 53.4 32.4506 53.4 32.4494 53.4C32.4483 53.4 32.4472 53.4 32.4461 53.4C32.4449 53.4 32.4438 53.4 32.4427 53.4C32.4415 53.4 32.4404 53.4 32.4393 53.4C32.4382 53.4 32.437 53.4 32.4359 53.4C32.4348 53.4 32.4337 53.4 32.4325 53.4C32.4314 53.4 32.4303 53.4 32.4292 53.4C32.428 53.4 32.4269 53.4 32.4258 53.4C32.4247 53.4 32.4235 53.4 32.4224 53.4C32.4213 53.4 32.4202 53.4 32.4191 53.4C32.4179 53.4 32.4168 53.4 32.4157 53.4C32.4146 53.4 32.4134 53.4 32.4123 53.4C32.4112 53.4 32.4101 53.4 32.409 53.4C32.4079 53.4 32.4067 53.4 32.4056 53.4C32.4045 53.4 32.4034 53.4 32.4023 53.4C32.4012 53.4 32.4 53.4 32.3989 53.4C32.3978 53.4 32.3967 53.4 32.3956 53.4C32.3945 53.4 32.3934 53.4 32.3922 53.4C32.3911 53.4 32.39 53.4 32.3889 53.4C32.3878 53.4 32.3867 53.4 32.3856 53.4C32.3845 53.4 32.3834 53.4 32.3822 53.4C32.3811 53.4 32.38 53.4 32.3789 53.4C32.3778 53.4 32.3767 53.4 32.3756 53.4C32.3745 53.4 32.3734 53.4 32.3723 53.4C32.3712 53.4 32.3701 53.4 32.3689 53.4C32.3678 53.4 32.3667 53.4 32.3656 53.4C32.3645 53.4 32.3634 53.4 32.3623 53.4C32.3612 53.4 32.3601 53.4 32.359 53.4C32.3579 53.4 32.3568 53.4 32.3557 53.4C32.3546 53.4 32.3535 53.4 32.3524 53.4C32.3513 53.4 32.3502 53.4 32.3491 53.4C32.348 53.4 32.3469 53.4 32.3458 53.4C32.3447 53.4 32.3436 53.4 32.3425 53.4C32.3414 53.4 32.3403 53.4 32.3392 53.4C32.3381 53.4 32.337 53.4 32.3359 53.4C32.3348 53.4 32.3337 53.4 32.3326 53.4C32.3315 53.4 32.3305 53.4 32.3294 53.4C32.3283 53.4 32.3272 53.4 32.3261 53.4C32.325 53.4 32.3239 53.4 32.3228 53.4C32.3217 53.4 32.3206 53.4 32.3195 53.4C32.3184 53.4 32.3174 53.4 32.3163 53.4C32.3152 53.4 32.3141 53.4 32.313 53.4C32.3119 53.4 32.3108 53.4 32.3097 53.4C32.3086 53.4 32.3076 53.4 32.3065 53.4C32.3054 53.4 32.3043 53.4 32.3032 53.4C32.3021 53.4 32.301 53.4 32.3 53.4C32.2989 53.4 32.2978 53.4 32.2967 53.4C32.2956 53.4 32.2945 53.4 32.2935 53.4C32.2924 53.4 32.2913 53.4 32.2902 53.4C32.2891 53.4 32.2881 53.4 32.287 53.4C32.2859 53.4 32.2848 53.4 32.2837 53.4C32.2827 53.4 32.2816 53.4 32.2805 53.4C32.2794 53.4 32.2783 53.4 32.2773 53.4C32.2762 53.4 32.2751 53.4 32.274 53.4C32.273 53.4 32.2719 53.4 32.2708 53.4C32.2697 53.4 32.2687 53.4 32.2676 53.4C32.2665 53.4 32.2654 53.4 32.2644 53.4C32.2633 53.4 32.2622 53.4 32.2611 53.4C32.2601 53.4 32.259 53.4 32.2579 53.4C32.2569 53.4 32.2558 53.4 32.2547 53.4C32.2536 53.4 32.2526 53.4 32.2515 53.4C32.2504 53.4 32.2494 53.4 32.2483 53.4C32.2472 53.4 32.2462 53.4 32.2451 53.4C32.244 53.4 32.243 53.4 32.2419 53.4C32.2408 53.4 32.2398 53.4 32.2387 53.4C32.2376 53.4 32.2366 53.4 32.2355 53.4C32.2344 53.4 32.2334 53.4 32.2323 53.4C32.2313 53.4 32.2302 53.4 32.2291 53.4C32.2281 53.4 32.227 53.4 32.2259 53.4C32.2249 53.4 32.2238 53.4 32.2228 53.4C32.2217 53.4 32.2206 53.4 32.2196 53.4C32.2185 53.4 32.2175 53.4 32.2164 53.4C32.2154 53.4 32.2143 53.4 32.2132 53.4C32.2122 53.4 32.2111 53.4 32.2101 53.4C32.209 53.4 32.208 53.4 32.2069 53.4C32.2058 53.4 32.2048 53.4 32.2037 53.4C32.2027 53.4 32.2016 53.4 32.2006 53.4C32.1995 53.4 32.1985 53.4 32.1974 53.4C32.1964 53.4 32.1953 53.4 32.1943 53.4C32.1932 53.4 32.1922 53.4 32.1911 53.4C32.1901 53.4 32.189 53.4 32.188 53.4C32.1869 53.4 32.1859 53.4 32.1848 53.4C32.1838 53.4 32.1827 53.4 32.1817 53.4C32.1806 53.4 32.1796 53.4 32.1785 53.4C32.1775 53.4 32.1765 53.4 32.1754 53.4C32.1744 53.4 32.1733 53.4 32.1723 53.4C32.1712 53.4 32.1702 53.4 32.1691 53.4C32.1681 53.4 32.1671 53.4 32.166 53.4V55.4ZM34.166 55.4C36.7447 55.4 38.8497 54.8474 40.2514 53.5282L38.8807 52.0718C38.0156 52.8859 36.5206 53.4 34.166 53.4V55.4ZM40.2514 53.5282C41.6722 52.1909 42.266 50.1283 42.266 47.6H40.266C40.266 49.8717 39.7265 51.2757 38.8807 52.0718L40.2514 53.5282ZM42.266 47.6C42.266 45.4073 41.6389 43.5777 40.2514 42.2718L38.8807 43.7282C39.7598 44.5557 40.266 45.7927 40.266 47.6H42.266ZM40.2942 42.3146C38.9947 40.9339 37.2037 40.3 35.066 40.3V42.3C36.795 42.3 38.004 42.7995 38.8378 43.6854L40.2942 42.3146ZM35.066 40.3C32.7766 40.3 30.7734 41.0087 29.1124 42.4432L30.4196 43.9568C31.692 42.858 33.2221 42.3 35.066 42.3V40.3ZM29.1152 42.4407C27.3986 43.9121 26.5726 46.4954 26.3679 49.8389L28.3641 49.9611C28.5594 46.7713 29.3334 44.8879 30.4168 43.9593L29.1152 42.4407ZM27.6725 48.9481L9.97255 43.2481L9.35948 45.1519L27.0595 50.8519L27.6725 48.9481ZM10.6572 44.3322C11.1665 40.5129 12.5889 37.3776 14.9001 34.879L13.4319 33.521C10.8098 36.3557 9.23222 39.8871 8.67479 44.0678L10.6572 44.3322ZM14.891 34.8887C17.3084 32.3441 20.3409 30.3908 24.0117 29.0383L23.3203 27.1617C19.3912 28.6092 16.0903 30.7225 13.441 33.5113L14.891 34.8887ZM24.0065 29.0403C27.7503 27.6847 31.9 27 36.466 27V25C31.6987 25 27.3151 25.7153 23.3256 27.1597L24.0065 29.0403ZM36.466 27C41.6464 27 45.9429 27.7222 49.3887 29.1261L50.1433 27.2739C46.3892 25.7444 41.8189 25 36.466 25V27ZM49.3946 29.1285C52.9132 30.5359 55.5056 32.524 57.2402 35.064L58.8918 33.936C56.8931 31.0093 53.9522 28.7974 50.1374 27.2715L49.3946 29.1285ZM57.2496 35.0775C59.0437 37.6139 59.966 40.7363 59.966 44.5H61.966C61.966 40.397 60.955 36.8527 58.8824 33.9225L57.2496 35.0775ZM59.966 44.5C59.966 47.3974 59.4819 49.6926 58.5778 51.4406L60.3542 52.3594C61.4501 50.2407 61.966 47.6026 61.966 44.5H59.966ZM58.5655 51.4652C57.6889 53.281 56.5805 54.6841 55.2546 55.7087L56.4775 57.2913C58.0849 56.0492 59.3765 54.3856 60.3666 52.3347L58.5655 51.4652ZM55.2546 55.7087C53.8411 56.8009 52.5212 57.5809 51.2946 58.0715L52.0374 59.9285C53.4775 59.3525 54.9576 58.4657 56.4775 57.2913L55.2546 55.7087ZM51.3357 58.0561C50.0291 58.5134 49.1257 58.7 48.566 58.7V60.7C49.473 60.7 50.6363 60.4199 51.9964 59.9439L51.3357 58.0561ZM47.566 59.7V60.1H49.566V59.7H47.566ZM48.566 61.1C49.2525 61.1 50.2988 61.2466 51.7444 61.5751L52.1876 59.6249C50.6999 59.2868 49.4795 59.1 48.566 59.1V61.1ZM51.7536 61.5772C53.1639 61.8838 54.5942 62.4705 56.0461 63.3542L57.086 61.6458C55.4711 60.6629 53.8348 59.9829 52.1784 59.6228L51.7536 61.5772ZM56.0621 63.3638C57.4877 64.1953 58.704 65.4571 59.6978 67.1961L61.4343 66.2039C60.2947 64.2096 58.8444 62.6713 57.0699 61.6362L56.0621 63.3638ZM59.7198 67.2328C60.7195 68.8205 61.266 71.0146 61.266 73.9H63.266C63.266 70.7853 62.6792 68.1795 61.4123 66.1672L59.7198 67.2328ZM61.266 73.9C61.266 77.8383 60.1905 81.2257 58.0618 84.1056L59.6702 85.2944C62.0749 82.041 63.266 78.2283 63.266 73.9H61.266ZM58.0681 84.0972C55.9207 86.9394 53.0048 89.1362 49.2837 90.676L50.0484 92.524C54.0606 90.8638 57.278 88.4606 59.6639 85.3028L58.0681 84.0972ZM49.2837 90.676C45.5547 92.219 41.3539 93 36.666 93V95C41.5781 95 46.044 94.181 50.0484 92.524L49.2837 90.676Z" fill="#14F6FE" mask="url(#path-3-outside-2_224_13)"/>
</svg>
