<svg width="74" height="116" viewBox="0 0 74 116" fill="none" xmlns="http://www.w3.org/2000/svg">
<mask id="path-1-outside-1_224_9" maskUnits="userSpaceOnUse" x="10" y="26" width="56" height="69" fill="black">
<rect fill="white" x="10" y="26" width="56" height="69"/>
<path d="M13.4707 94V81.4C18.804 78.3333 23.3707 75.3667 27.1707 72.5C31.0374 69.6333 34.204 66.9 36.6707 64.3C39.1374 61.6333 40.9707 59.1333 42.1707 56.8C43.3707 54.4 43.9707 52.1333 43.9707 50C43.9707 47.9333 43.404 46.2 42.2707 44.8C41.1374 43.3333 39.3707 42.6 36.9707 42.6C34.2374 42.6 32.1707 43.6333 30.7707 45.7C29.4374 47.7667 28.7707 50.9333 28.7707 55.2L11.2707 50.5C11.3374 45.2333 12.5374 40.8667 14.8707 37.4C17.204 33.9333 20.404 31.3333 24.4707 29.6C28.604 27.8667 33.204 27 38.2707 27C43.004 27 47.004 27.6667 50.2707 29C53.604 30.2667 56.2707 31.9667 58.2707 34.1C60.3374 36.1667 61.8374 38.4667 62.7707 41C63.704 43.4667 64.1707 45.9333 64.1707 48.4C64.1707 52.7333 63.0374 56.7 60.7707 60.3C58.504 63.9 55.3707 67.2667 51.3707 70.4C47.3707 73.4667 42.7374 76.4 37.4707 79.2V79.4C38.7374 79.2667 40.1707 79.1667 41.7707 79.1C43.3707 79.0333 45.0707 79 46.8707 79C48.6707 78.9333 50.404 78.9 52.0707 78.9H64.7707V94H13.4707Z"/>
</mask>
<path d="M13.4707 94H12.4707V95H13.4707V94ZM13.4707 81.4L12.9722 80.5331L12.4707 80.8215V81.4H13.4707ZM27.1707 72.5L26.5751 71.6967L26.5685 71.7017L27.1707 72.5ZM36.6707 64.3L37.3962 64.9883L37.4048 64.979L36.6707 64.3ZM42.1707 56.8L43.06 57.2574L43.0651 57.2472L42.1707 56.8ZM42.2707 44.8L41.4794 45.4114L41.4863 45.4204L41.4935 45.4292L42.2707 44.8ZM30.7707 45.7L29.9428 45.1392L29.9365 45.1484L29.9304 45.1579L30.7707 45.7ZM28.7707 55.2L28.5113 56.1658L29.7707 56.504V55.2H28.7707ZM11.2707 50.5L10.2708 50.4873L10.2609 51.2642L11.0113 51.4658L11.2707 50.5ZM14.8707 37.4L14.0411 36.8416L14.0411 36.8416L14.8707 37.4ZM24.4707 29.6L24.084 28.6778L24.0786 28.6801L24.4707 29.6ZM50.2707 29L49.8928 29.9258L49.9041 29.9305L49.9155 29.9348L50.2707 29ZM58.2707 34.1L57.5412 34.7839L57.5522 34.7957L57.5636 34.8071L58.2707 34.1ZM62.7707 41L61.8323 41.3457L61.8354 41.3539L62.7707 41ZM60.7707 60.3L59.9245 59.7672L59.9245 59.7672L60.7707 60.3ZM51.3707 70.4L51.9792 71.1936L51.9874 71.1872L51.3707 70.4ZM37.4707 79.2L37.0013 78.317L36.4707 78.5991V79.2H37.4707ZM37.4707 79.4H36.4707V80.5108L37.5754 80.3945L37.4707 79.4ZM41.7707 79.1L41.8123 80.0991L41.8123 80.0991L41.7707 79.1ZM46.8707 79V80H46.8892L46.9077 79.9993L46.8707 79ZM64.7707 78.9H65.7707V77.9H64.7707V78.9ZM64.7707 94V95H65.7707V94H64.7707ZM14.4707 94V81.4H12.4707V94H14.4707ZM13.9692 82.2669C19.3287 79.1852 23.9319 76.196 27.7729 73.2983L26.5685 71.7017C22.8095 74.5374 18.2794 77.4815 12.9722 80.5331L13.9692 82.2669ZM27.7663 73.3033C31.6648 70.413 34.8787 67.6418 37.3962 64.9883L35.9452 63.6117C33.5293 66.1582 30.41 68.8536 26.5751 71.6967L27.7663 73.3033ZM37.4048 64.979C39.9113 62.2693 41.8061 59.6955 43.06 57.2573L41.2814 56.3427C40.1353 58.5712 38.3635 60.9973 35.9366 63.621L37.4048 64.979ZM43.0651 57.2472C44.3171 54.7433 44.9707 52.3234 44.9707 50H42.9707C42.9707 51.9433 42.4243 54.0567 41.2763 56.3528L43.0651 57.2472ZM44.9707 50C44.9707 47.7398 44.3463 45.7746 43.048 44.1708L41.4935 45.4292C42.4618 46.6254 42.9707 48.1269 42.9707 50H44.9707ZM43.062 44.1886C41.6858 42.4076 39.5809 41.6 36.9707 41.6V43.6C39.1605 43.6 40.589 44.2591 41.4794 45.4114L43.062 44.1886ZM36.9707 41.6C33.9428 41.6 31.5487 42.7685 29.9428 45.1392L31.5986 46.2608C32.7927 44.4982 34.532 43.6 36.9707 43.6V41.6ZM29.9304 45.1579C28.4413 47.4659 27.7707 50.8654 27.7707 55.2H29.7707C29.7707 51.0012 30.4334 48.0674 31.611 46.2421L29.9304 45.1579ZM29.0301 54.2342L11.5301 49.5342L11.0113 51.4658L28.5113 56.1658L29.0301 54.2342ZM12.2706 50.5127C12.3355 45.3901 13.5008 41.2262 15.7003 37.9584L14.0411 36.8416C11.574 40.5071 10.3393 45.0766 10.2708 50.4873L12.2706 50.5127ZM15.7003 37.9584C17.9194 34.6614 20.963 32.1821 24.8628 30.5199L24.0786 28.6801C19.845 30.4845 16.4887 33.2052 14.0411 36.8416L15.7003 37.9584ZM24.8574 30.5222C28.8533 28.8465 33.3196 28 38.2707 28V26C33.0885 26 28.3548 26.8868 24.084 28.6778L24.8574 30.5222ZM38.2707 28C42.9162 28 46.7795 28.6551 49.8928 29.9258L50.6486 28.0741C47.2286 26.6782 43.0919 26 38.2707 26V28ZM49.9155 29.9348C53.1373 31.1591 55.6656 32.7833 57.5412 34.7839L59.0002 33.4161C56.8758 31.15 54.0708 29.3743 50.6259 28.0652L49.9155 29.9348ZM57.5636 34.8071C59.5365 36.78 60.9531 38.9591 61.8324 41.3457L63.709 40.6543C62.7217 37.9742 61.1382 35.5533 58.9778 33.3929L57.5636 34.8071ZM61.8354 41.3539C62.7289 43.7154 63.1707 46.0624 63.1707 48.4H65.1707C65.1707 45.8043 64.6791 43.218 63.706 40.6461L61.8354 41.3539ZM63.1707 48.4C63.1707 52.5485 62.0887 56.3299 59.9245 59.7672L61.6169 60.8328C63.986 57.0701 65.1707 52.9182 65.1707 48.4H63.1707ZM59.9245 59.7672C57.7297 63.2529 54.6806 66.537 50.754 69.6128L51.9874 71.1872C56.0608 67.9964 59.2783 64.5471 61.6169 60.8328L59.9245 59.7672ZM50.7623 69.6064C46.8131 72.6341 42.2278 75.5384 37.0013 78.317L37.9401 80.083C43.2469 77.2616 47.9283 74.2993 51.9791 71.1936L50.7623 69.6064ZM36.4707 79.2V79.4H38.4707V79.2H36.4707ZM37.5754 80.3945C38.8166 80.2639 40.2283 80.1651 41.8123 80.0991L41.7291 78.1009C40.1131 78.1682 38.6582 78.2695 37.366 78.4055L37.5754 80.3945ZM41.8123 80.0991C43.3969 80.0331 45.0829 80 46.8707 80V78C45.0585 78 43.3445 78.0336 41.7291 78.1009L41.8123 80.0991ZM46.9077 79.9993C48.6964 79.9331 50.4173 79.9 52.0707 79.9V77.9C50.3908 77.9 48.645 77.9336 46.8337 78.0007L46.9077 79.9993ZM52.0707 79.9H64.7707V77.9H52.0707V79.9ZM63.7707 78.9V94H65.7707V78.9H63.7707ZM64.7707 93H13.4707V95H64.7707V93Z" fill="#ED0EEB" mask="url(#path-1-outside-1_224_9)"/>
<mask id="path-3-outside-2_224_9" maskUnits="userSpaceOnUse" x="8" y="25" width="56" height="69" fill="black">
<rect fill="white" x="8" y="25" width="56" height="69"/>
<path d="M11.4707 93V80.4C16.804 77.3333 21.3707 74.3667 25.1707 71.5C29.0374 68.6333 32.204 65.9 34.6707 63.3C37.1374 60.6333 38.9707 58.1333 40.1707 55.8C41.3707 53.4 41.9707 51.1333 41.9707 49C41.9707 46.9333 41.404 45.2 40.2707 43.8C39.1374 42.3333 37.3707 41.6 34.9707 41.6C32.2374 41.6 30.1707 42.6333 28.7707 44.7C27.4374 46.7667 26.7707 49.9333 26.7707 54.2L9.2707 49.5C9.33737 44.2333 10.5374 39.8667 12.8707 36.4C15.204 32.9333 18.404 30.3333 22.4707 28.6C26.604 26.8667 31.204 26 36.2707 26C41.004 26 45.004 26.6667 48.2707 28C51.604 29.2667 54.2707 30.9667 56.2707 33.1C58.3374 35.1667 59.8374 37.4667 60.7707 40C61.704 42.4667 62.1707 44.9333 62.1707 47.4C62.1707 51.7333 61.0374 55.7 58.7707 59.3C56.504 62.9 53.3707 66.2667 49.3707 69.4C45.3707 72.4667 40.7374 75.4 35.4707 78.2V78.4C36.7374 78.2667 38.1707 78.1667 39.7707 78.1C41.3707 78.0333 43.0707 78 44.8707 78C46.6707 77.9333 48.404 77.9 50.0707 77.9H62.7707V93H11.4707Z"/>
</mask>
<path d="M11.4707 93H10.4707V94H11.4707V93ZM11.4707 80.4L10.9722 79.5331L10.4707 79.8215V80.4H11.4707ZM25.1707 71.5L24.5751 70.6967L24.5685 70.7017L25.1707 71.5ZM34.6707 63.3L35.3962 63.9883L35.4048 63.979L34.6707 63.3ZM40.1707 55.8L41.06 56.2574L41.0651 56.2472L40.1707 55.8ZM40.2707 43.8L39.4794 44.4114L39.4863 44.4204L39.4935 44.4292L40.2707 43.8ZM28.7707 44.7L27.9428 44.1392L27.9365 44.1484L27.9304 44.1579L28.7707 44.7ZM26.7707 54.2L26.5113 55.1658L27.7707 55.504V54.2H26.7707ZM9.2707 49.5L8.27078 49.4873L8.26095 50.2642L9.01132 50.4658L9.2707 49.5ZM12.8707 36.4L12.0411 35.8416L12.0411 35.8416L12.8707 36.4ZM22.4707 28.6L22.084 27.6778L22.0786 27.6801L22.4707 28.6ZM48.2707 28L47.8928 28.9258L47.9041 28.9305L47.9155 28.9348L48.2707 28ZM56.2707 33.1L55.5412 33.7839L55.5522 33.7957L55.5636 33.8071L56.2707 33.1ZM60.7707 40L59.8323 40.3457L59.8354 40.3539L60.7707 40ZM58.7707 59.3L57.9245 58.7672L57.9245 58.7672L58.7707 59.3ZM49.3707 69.4L49.9792 70.1936L49.9874 70.1872L49.3707 69.4ZM35.4707 78.2L35.0013 77.317L34.4707 77.5991V78.2H35.4707ZM35.4707 78.4H34.4707V79.5108L35.5754 79.3945L35.4707 78.4ZM39.7707 78.1L39.8123 79.0991L39.8123 79.0991L39.7707 78.1ZM44.8707 78V79H44.8892L44.9077 78.9993L44.8707 78ZM62.7707 77.9H63.7707V76.9H62.7707V77.9ZM62.7707 93V94H63.7707V93H62.7707ZM12.4707 93V80.4H10.4707V93H12.4707ZM11.9692 81.2669C17.3287 78.1852 21.9319 75.196 25.7729 72.2983L24.5685 70.7017C20.8095 73.5374 16.2794 76.4815 10.9722 79.5331L11.9692 81.2669ZM25.7663 72.3033C29.6648 69.413 32.8787 66.6418 35.3962 63.9883L33.9452 62.6117C31.5293 65.1582 28.41 67.8536 24.5751 70.6967L25.7663 72.3033ZM35.4048 63.979C37.9113 61.2693 39.8061 58.6955 41.06 56.2573L39.2814 55.3427C38.1353 57.5712 36.3635 59.9973 33.9366 62.621L35.4048 63.979ZM41.0651 56.2472C42.3171 53.7433 42.9707 51.3234 42.9707 49H40.9707C40.9707 50.9433 40.4243 53.0567 39.2763 55.3528L41.0651 56.2472ZM42.9707 49C42.9707 46.7398 42.3463 44.7746 41.048 43.1708L39.4935 44.4292C40.4618 45.6254 40.9707 47.1269 40.9707 49H42.9707ZM41.062 43.1886C39.6858 41.4076 37.5809 40.6 34.9707 40.6V42.6C37.1605 42.6 38.589 43.2591 39.4794 44.4114L41.062 43.1886ZM34.9707 40.6C31.9428 40.6 29.5487 41.7685 27.9428 44.1392L29.5986 45.2608C30.7927 43.4982 32.532 42.6 34.9707 42.6V40.6ZM27.9304 44.1579C26.4413 46.4659 25.7707 49.8654 25.7707 54.2H27.7707C27.7707 50.0012 28.4334 47.0674 29.611 45.2421L27.9304 44.1579ZM27.0301 53.2342L9.53008 48.5342L9.01132 50.4658L26.5113 55.1658L27.0301 53.2342ZM10.2706 49.5127C10.3355 44.3901 11.5008 40.2262 13.7003 36.9584L12.0411 35.8416C9.57396 39.5071 8.33927 44.0766 8.27078 49.4873L10.2706 49.5127ZM13.7003 36.9584C15.9194 33.6614 18.963 31.1821 22.8628 29.5199L22.0786 27.6801C17.845 29.4845 14.4887 32.2052 12.0411 35.8416L13.7003 36.9584ZM22.8574 29.5222C26.8533 27.8465 31.3196 27 36.2707 27V25C31.0885 25 26.3548 25.8868 22.084 27.6778L22.8574 29.5222ZM36.2707 27C40.9162 27 44.7795 27.6551 47.8928 28.9258L48.6486 27.0741C45.2286 25.6782 41.0919 25 36.2707 25V27ZM47.9155 28.9348C51.1373 30.1591 53.6656 31.7833 55.5412 33.7839L57.0002 32.4161C54.8758 30.15 52.0708 28.3743 48.6259 27.0652L47.9155 28.9348ZM55.5636 33.8071C57.5365 35.78 58.9531 37.9591 59.8324 40.3457L61.709 39.6543C60.7217 36.9742 59.1382 34.5533 56.9778 32.3929L55.5636 33.8071ZM59.8354 40.3539C60.7289 42.7154 61.1707 45.0624 61.1707 47.4H63.1707C63.1707 44.8043 62.6791 42.218 61.706 39.6461L59.8354 40.3539ZM61.1707 47.4C61.1707 51.5485 60.0887 55.3299 57.9245 58.7672L59.6169 59.8328C61.986 56.0701 63.1707 51.9182 63.1707 47.4H61.1707ZM57.9245 58.7672C55.7297 62.2529 52.6806 65.537 48.754 68.6128L49.9874 70.1872C54.0608 66.9964 57.2783 63.5471 59.6169 59.8328L57.9245 58.7672ZM48.7623 68.6064C44.8131 71.6341 40.2278 74.5384 35.0013 77.317L35.9401 79.083C41.2469 76.2616 45.9283 73.2993 49.9791 70.1936L48.7623 68.6064ZM34.4707 78.2V78.4H36.4707V78.2H34.4707ZM35.5754 79.3945C36.8166 79.2639 38.2283 79.1651 39.8123 79.0991L39.7291 77.1009C38.1131 77.1682 36.6582 77.2695 35.366 77.4055L35.5754 79.3945ZM39.8123 79.0991C41.3969 79.0331 43.0829 79 44.8707 79V77C43.0585 77 41.3445 77.0336 39.7291 77.1009L39.8123 79.0991ZM44.9077 78.9993C46.6964 78.9331 48.4173 78.9 50.0707 78.9V76.9C48.3908 76.9 46.645 76.9336 44.8337 77.0007L44.9077 78.9993ZM50.0707 78.9H62.7707V76.9H50.0707V78.9ZM61.7707 77.9V93H63.7707V77.9H61.7707ZM62.7707 92H11.4707V94H62.7707V92Z" fill="#14F6FE" mask="url(#path-3-outside-2_224_9)"/>
</svg>
